<svg id="svg" version="1.1" xmlns="http://www.w3.org/2000/svg" xmlns:xlink="http://www.w3.org/1999/xlink" width="400" height="400" viewBox="0, 0, 400,400"><g id="svgg"><path id="path0" d="M381.400 134.317 C 374.315 139.681,353.759 155.237,346.556 160.686 C 341.840 164.253,334.701 169.665,330.691 172.711 C 326.681 175.757,318.540 181.910,312.600 186.385 C 306.660 190.859,301.305 194.976,300.700 195.535 L 299.600 196.550 299.600 268.075 L 299.600 339.600 331.320 339.600 C 356.142 339.600,363.157 339.491,363.579 339.100 C 364.016 338.694,364.058 338.712,363.800 339.200 C 363.542 339.688,363.584 339.706,364.021 339.300 C 364.318 339.025,365.064 338.800,365.680 338.800 C 366.296 338.800,366.800 338.620,366.800 338.400 C 366.800 338.180,367.250 338.000,367.800 338.000 C 368.350 338.000,368.800 337.820,368.800 337.600 C 368.800 337.380,369.053 337.200,369.362 337.200 C 370.119 337.200,373.200 335.535,373.200 335.126 C 373.200 334.947,373.383 334.800,373.607 334.800 C 374.143 334.800,378.964 329.906,379.125 329.198 C 379.194 328.897,379.599 328.348,380.025 327.978 C 380.451 327.609,380.800 327.012,380.800 326.653 C 380.800 326.294,380.980 326.000,381.200 326.000 C 381.420 326.000,381.600 325.640,381.600 325.200 C 381.600 324.760,381.780 324.400,382.000 324.400 C 382.220 324.400,382.400 323.950,382.400 323.400 C 382.400 322.850,382.580 322.400,382.800 322.400 C 383.020 322.400,383.200 321.871,383.200 321.224 C 383.200 320.577,383.380 319.936,383.600 319.800 C 384.073 319.507,384.173 132.799,383.700 132.802 C 383.535 132.803,382.500 133.485,381.400 134.317 M16.000 318.800 C 16.000 319.240,16.180 319.600,16.400 319.600 C 16.620 319.600,16.800 319.240,16.800 318.800 C 16.800 318.360,16.620 318.000,16.400 318.000 C 16.180 318.000,16.000 318.360,16.000 318.800 M21.206 329.471 C 21.218 330.084,21.955 330.978,22.226 330.707 C 22.374 330.559,22.204 330.147,21.848 329.790 C 21.491 329.434,21.203 329.291,21.206 329.471 M23.462 331.872 C 23.176 332.157,25.519 334.400,26.104 334.400 C 26.334 334.400,26.177 334.085,25.755 333.700 C 25.334 333.315,24.697 332.694,24.342 332.319 C 23.986 331.945,23.590 331.743,23.462 331.872 M35.679 339.013 C 36.077 339.410,37.623 339.561,37.387 339.179 C 37.258 338.971,36.773 338.800,36.310 338.800 C 35.846 338.800,35.562 338.896,35.679 339.013 " stroke="none" fill="#5ca35b" fill-rule="evenodd"></path><path id="path1" d="M341.000 60.800 C 340.864 61.020,339.964 61.200,339.000 61.200 C 338.036 61.200,337.136 61.380,337.000 61.600 C 336.864 61.820,336.133 62.000,335.376 62.000 C 334.619 62.000,334.000 62.180,334.000 62.400 C 334.000 62.620,333.550 62.800,333.000 62.800 C 332.450 62.800,332.000 62.980,332.000 63.200 C 332.000 63.420,331.539 63.600,330.976 63.600 C 330.396 63.600,330.060 63.773,330.200 64.000 C 330.336 64.220,330.202 64.400,329.903 64.400 C 329.149 64.400,327.207 65.335,327.203 65.700 C 327.201 65.865,326.880 66.000,326.488 66.000 C 326.097 66.000,325.517 66.360,325.200 66.800 C 324.883 67.240,324.383 67.600,324.088 67.600 C 323.794 67.600,323.663 67.778,323.797 67.995 C 323.932 68.213,323.793 68.295,323.489 68.179 C 323.185 68.062,322.595 68.423,322.174 68.983 C 321.754 69.543,321.133 70.000,320.793 70.000 C 320.454 70.000,319.924 70.350,319.615 70.779 C 319.307 71.207,318.907 71.466,318.727 71.355 C 318.547 71.244,318.400 71.356,318.400 71.605 C 318.400 72.196,317.386 73.200,316.789 73.200 C 316.532 73.200,315.799 73.759,315.160 74.442 C 314.522 75.126,314.000 75.473,314.000 75.214 C 314.000 74.921,313.761 74.982,313.368 75.375 C 313.020 75.723,312.590 75.918,312.413 75.808 C 312.236 75.698,311.845 75.911,311.545 76.281 C 311.170 76.744,311.156 76.860,311.500 76.653 C 311.775 76.488,312.000 76.543,312.000 76.776 C 312.000 77.168,311.441 77.367,310.689 77.244 C 310.518 77.216,310.273 77.464,310.146 77.796 C 310.019 78.128,309.634 78.400,309.291 78.400 C 308.947 78.400,308.778 78.511,308.914 78.648 C 309.329 79.062,308.114 80.000,307.162 80.000 C 306.670 80.000,306.376 80.109,306.509 80.242 C 306.793 80.526,305.359 81.968,304.036 82.730 C 303.361 83.118,303.197 83.128,303.420 82.768 C 303.615 82.453,303.558 82.379,303.262 82.562 C 303.008 82.719,302.800 83.029,302.800 83.252 C 302.800 83.853,301.743 84.800,301.071 84.800 C 300.749 84.800,300.376 85.085,300.243 85.433 C 299.923 86.266,299.927 194.993,300.247 195.313 C 300.461 195.528,310.155 188.323,332.509 171.333 C 335.859 168.787,342.380 163.847,347.000 160.355 C 351.620 156.863,359.000 151.272,363.400 147.930 C 379.076 136.024,382.978 133.106,383.486 132.912 C 384.140 132.661,384.253 94.400,383.600 94.400 C 383.380 94.400,383.200 93.410,383.200 92.200 C 383.200 90.990,383.020 90.000,382.800 90.000 C 382.580 90.000,382.400 89.269,382.400 88.376 C 382.400 87.396,382.242 86.851,382.000 87.000 C 381.767 87.144,381.600 86.737,381.600 86.024 C 381.600 85.351,381.420 84.800,381.200 84.800 C 380.613 84.800,380.711 83.605,381.300 83.573 C 381.575 83.558,381.395 83.351,380.900 83.112 C 380.336 82.840,380.000 82.318,380.000 81.715 C 380.000 81.082,379.840 80.852,379.532 81.042 C 379.215 81.238,379.148 81.111,379.325 80.650 C 379.489 80.223,379.358 79.882,378.970 79.733 C 378.631 79.603,378.449 79.250,378.564 78.948 C 378.690 78.622,378.511 78.400,378.121 78.400 C 377.761 78.400,377.580 78.286,377.719 78.147 C 378.128 77.738,377.227 76.400,376.543 76.400 C 376.158 76.400,376.001 76.175,376.137 75.820 C 376.285 75.433,376.167 75.315,375.780 75.463 C 375.413 75.604,375.200 75.435,375.200 75.003 C 375.200 74.628,374.646 73.804,373.970 73.172 C 373.293 72.539,372.852 71.839,372.990 71.616 C 373.144 71.368,372.972 71.312,372.551 71.474 C 372.029 71.675,371.922 71.581,372.110 71.090 C 372.267 70.680,372.183 70.505,371.880 70.616 C 371.616 70.712,370.995 70.211,370.500 69.501 C 370.005 68.792,369.600 68.453,369.600 68.748 C 369.600 69.043,369.078 68.726,368.440 68.042 C 367.801 67.359,366.991 66.800,366.640 66.800 C 366.288 66.800,366.000 66.620,366.000 66.400 C 366.000 66.180,365.764 66.000,365.475 66.000 C 365.187 66.000,364.552 65.628,364.065 65.174 C 363.577 64.720,362.836 64.323,362.417 64.291 C 361.998 64.260,361.744 64.091,361.851 63.917 C 361.959 63.743,361.497 63.600,360.824 63.600 C 360.151 63.600,359.600 63.420,359.600 63.200 C 359.600 62.980,359.015 62.797,358.300 62.794 C 357.314 62.789,357.145 62.694,357.600 62.400 C 358.039 62.116,357.737 62.011,356.476 62.006 C 355.431 62.002,354.850 61.843,355.000 61.600 C 355.153 61.352,354.404 61.200,353.024 61.200 C 351.801 61.200,350.800 61.020,350.800 60.800 C 350.800 60.556,348.941 60.400,346.024 60.400 C 343.271 60.400,341.142 60.569,341.000 60.800 " stroke="none" fill="#f3ba43" fill-rule="evenodd"></path><path id="path2" d="M16.000 225.600 C 16.000 284.999,16.139 318.000,16.388 318.000 C 16.601 318.000,16.751 318.646,16.722 319.436 C 16.690 320.286,16.898 321.020,17.234 321.236 C 17.718 321.547,17.713 321.657,17.200 321.994 C 16.799 322.257,16.766 322.390,17.100 322.394 C 17.375 322.397,17.600 322.670,17.600 323.000 C 17.600 323.330,17.780 323.600,18.000 323.600 C 18.220 323.600,18.400 323.960,18.400 324.400 C 18.400 324.840,18.580 325.200,18.800 325.200 C 19.020 325.200,19.200 325.560,19.200 326.000 C 19.200 326.440,19.346 326.800,19.525 326.800 C 19.704 326.800,20.097 327.427,20.398 328.194 C 20.699 328.961,21.024 329.510,21.120 329.413 C 21.440 329.093,22.400 330.331,22.406 331.071 C 22.411 331.688,22.472 331.708,22.800 331.200 C 23.129 330.691,23.189 330.710,23.194 331.324 C 23.197 331.722,23.335 331.972,23.500 331.880 C 23.665 331.788,24.390 332.317,25.111 333.056 C 25.833 333.795,26.287 334.400,26.122 334.400 C 25.957 334.400,26.267 334.714,26.811 335.097 C 27.355 335.480,27.935 335.750,28.100 335.697 C 28.265 335.644,28.400 335.780,28.400 336.000 C 28.400 336.220,28.760 336.400,29.200 336.400 C 29.640 336.400,30.000 336.580,30.000 336.800 C 30.000 337.020,30.345 337.200,30.767 337.200 C 31.188 337.200,31.601 337.403,31.683 337.650 C 31.766 337.898,32.324 338.100,32.924 338.100 C 33.524 338.100,34.112 338.257,34.231 338.450 C 34.350 338.643,35.056 338.800,35.800 338.800 C 36.544 338.800,37.264 338.980,37.400 339.200 C 37.561 339.461,48.537 339.600,69.024 339.600 L 100.400 339.600 100.400 268.200 C 100.400 200.538,100.363 196.763,99.695 196.095 C 99.307 195.707,96.202 193.283,92.795 190.708 C 89.388 188.134,82.370 182.825,77.200 178.911 C 72.030 174.997,62.220 167.577,55.400 162.421 C 48.580 157.265,42.910 152.939,42.800 152.808 C 42.690 152.676,39.090 149.939,34.800 146.726 C 30.510 143.513,25.380 139.641,23.400 138.122 C 19.247 134.936,16.746 133.200,16.307 133.200 C 16.138 133.200,16.000 174.780,16.000 225.600 " stroke="none" fill="#4c83eb" fill-rule="evenodd"></path><path id="path3" d="M47.400 60.800 C 47.264 61.020,46.353 61.200,45.376 61.200 C 44.399 61.200,43.600 61.380,43.600 61.600 C 43.600 61.820,43.060 62.000,42.400 62.000 C 41.740 62.000,41.200 62.180,41.200 62.400 C 41.200 62.620,40.851 62.800,40.424 62.800 C 39.997 62.800,39.536 62.980,39.400 63.200 C 39.264 63.420,38.713 63.600,38.176 63.600 C 37.639 63.600,37.200 63.780,37.200 64.000 C 37.200 64.220,36.922 64.400,36.583 64.400 C 36.244 64.400,35.580 64.760,35.108 65.200 C 34.636 65.640,34.013 66.000,33.725 66.000 C 33.436 66.000,33.200 66.180,33.200 66.400 C 33.200 66.620,32.952 66.800,32.648 66.800 C 32.345 66.800,31.355 67.520,30.448 68.400 C 29.541 69.280,28.649 70.000,28.465 70.000 C 27.994 70.000,24.800 73.463,24.800 73.973 C 24.800 74.204,24.260 74.909,23.600 75.540 C 22.940 76.171,22.400 76.810,22.400 76.960 C 22.400 77.110,22.040 77.620,21.600 78.092 C 21.160 78.564,20.800 79.187,20.800 79.475 C 20.800 79.764,20.620 80.000,20.400 80.000 C 20.180 80.000,20.000 80.360,20.000 80.800 C 20.000 81.240,19.820 81.600,19.600 81.600 C 19.380 81.600,19.200 81.960,19.200 82.400 C 19.200 82.840,19.020 83.200,18.800 83.200 C 18.580 83.200,18.400 83.740,18.400 84.400 C 18.400 85.060,18.220 85.600,18.000 85.600 C 17.780 85.600,17.600 86.140,17.600 86.800 C 17.600 87.460,17.438 88.000,17.240 88.000 C 16.492 88.000,16.299 92.390,16.179 112.200 L 16.056 132.600 26.128 140.100 C 31.667 144.226,39.350 149.990,43.200 152.911 C 47.050 155.832,55.060 161.896,61.000 166.388 C 66.940 170.880,73.240 175.656,75.000 177.003 C 87.448 186.527,99.683 195.651,99.821 195.512 C 100.271 195.062,100.006 85.002,99.555 84.852 C 99.295 84.765,98.542 84.178,97.882 83.547 C 97.221 82.916,96.510 82.400,96.301 82.400 C 96.092 82.400,95.417 81.860,94.800 81.200 C 94.183 80.540,93.463 80.000,93.200 80.000 C 92.937 80.000,92.217 79.460,91.600 78.800 C 90.983 78.140,90.363 77.600,90.222 77.600 C 90.081 77.600,89.480 77.150,88.887 76.600 C 88.293 76.050,87.608 75.600,87.363 75.600 C 87.119 75.600,86.354 75.060,85.663 74.400 C 84.972 73.740,84.208 73.200,83.964 73.200 C 83.720 73.200,83.017 72.660,82.400 72.000 C 81.783 71.340,81.075 70.800,80.826 70.800 C 80.577 70.800,79.743 70.170,78.973 69.400 C 78.203 68.630,77.408 68.000,77.205 68.000 C 77.002 68.000,76.420 67.584,75.911 67.075 C 75.402 66.566,74.404 65.892,73.693 65.577 C 72.982 65.262,72.400 64.869,72.400 64.702 C 72.400 64.536,72.040 64.400,71.600 64.400 C 71.160 64.400,70.800 64.220,70.800 64.000 C 70.800 63.780,70.440 63.600,70.000 63.600 C 69.560 63.600,69.200 63.459,69.200 63.287 C 69.200 63.115,68.345 62.743,67.300 62.461 C 66.255 62.178,65.087 61.779,64.705 61.573 C 64.323 61.368,63.378 61.200,62.605 61.200 C 61.832 61.200,61.200 61.020,61.200 60.800 C 61.200 60.549,58.675 60.400,54.424 60.400 C 50.337 60.400,47.549 60.559,47.400 60.800 M298.500 86.223 C 297.911 86.863,297.862 87.200,298.357 87.200 C 298.698 87.200,299.337 85.996,299.109 85.783 C 299.049 85.727,298.775 85.925,298.500 86.223 M104.033 88.833 C 104.492 89.292,104.963 89.570,105.081 89.452 C 105.360 89.174,104.186 88.000,103.629 88.000 C 103.393 88.000,103.575 88.375,104.033 88.833 M107.093 91.200 C 107.470 91.640,107.946 92.000,108.151 92.000 C 108.356 92.000,108.198 91.640,107.800 91.200 C 107.402 90.760,106.926 90.400,106.742 90.400 C 106.558 90.400,106.716 90.760,107.093 91.200 M291.829 91.829 C 290.964 92.693,291.041 92.906,292.000 92.307 C 292.440 92.032,292.800 91.671,292.800 91.504 C 292.800 91.043,292.521 91.136,291.829 91.829 M110.238 93.400 C 110.831 93.950,111.499 94.400,111.721 94.400 C 111.943 94.400,111.601 93.950,110.962 93.400 C 109.449 92.099,108.833 92.099,110.238 93.400 M288.500 93.798 C 287.757 94.642,287.894 94.873,288.800 94.307 C 289.240 94.032,289.600 93.671,289.600 93.504 C 289.600 93.027,289.049 93.175,288.500 93.798 M112.800 95.151 C 112.800 95.653,113.974 96.560,114.257 96.276 C 114.388 96.145,114.217 95.760,113.876 95.419 C 113.181 94.724,112.800 94.629,112.800 95.151 M286.276 95.374 C 285.878 95.676,285.698 96.007,285.876 96.110 C 286.054 96.213,286.546 95.961,286.970 95.549 C 287.857 94.686,287.352 94.559,286.276 95.374 M119.320 100.136 C 119.474 100.537,119.600 100.941,119.600 101.033 C 119.600 101.125,119.855 101.200,120.167 101.200 C 120.478 101.200,120.805 101.416,120.893 101.680 C 120.984 101.952,121.150 101.995,121.275 101.780 C 121.396 101.571,120.943 100.952,120.268 100.403 C 119.276 99.599,119.094 99.547,119.320 100.136 M122.451 102.698 C 123.775 104.383,125.241 105.096,124.308 103.601 C 124.033 103.161,123.581 102.800,123.304 102.800 C 123.027 102.800,122.800 102.620,122.800 102.400 C 122.800 102.180,122.598 102.000,122.351 102.000 C 122.057 102.000,122.092 102.241,122.451 102.698 M126.279 105.454 C 126.147 105.587,126.308 105.965,126.638 106.295 C 127.415 107.072,127.684 106.803,127.028 105.906 C 126.749 105.524,126.412 105.321,126.279 105.454 M130.000 108.824 C 130.000 109.057,130.159 109.149,130.352 109.029 C 130.546 108.910,131.305 109.336,132.039 109.976 C 132.772 110.617,133.530 111.043,133.723 110.924 C 133.915 110.805,133.292 110.189,132.337 109.556 C 130.460 108.310,130.000 108.166,130.000 108.824 M263.429 112.629 C 263.005 112.938,262.772 113.305,262.910 113.443 C 263.049 113.582,263.462 113.395,263.829 113.029 C 264.691 112.166,264.425 111.900,263.429 112.629 M137.606 113.886 C 137.603 114.153,138.005 114.585,138.500 114.846 C 138.995 115.106,139.513 115.492,139.650 115.703 C 139.809 115.946,139.986 115.946,140.136 115.703 C 140.266 115.493,139.884 115.069,139.286 114.761 C 138.689 114.453,138.068 114.021,137.906 113.801 C 137.722 113.550,137.610 113.582,137.606 113.886 M259.400 116.000 C 259.002 116.440,258.434 116.800,258.138 116.800 C 257.842 116.800,257.600 116.980,257.600 117.200 C 257.600 118.018,258.815 117.345,259.949 115.900 C 260.702 114.940,260.292 115.015,259.400 116.000 M142.806 117.871 C 142.818 118.484,143.555 119.378,143.826 119.107 C 143.974 118.959,143.804 118.547,143.448 118.190 C 143.091 117.834,142.803 117.691,142.806 117.871 M144.800 119.429 C 144.800 119.853,146.036 120.897,146.267 120.667 C 146.392 120.541,146.217 120.160,145.876 119.819 C 145.241 119.184,144.800 119.024,144.800 119.429 M151.464 124.297 C 151.334 124.507,151.665 124.914,152.200 125.200 C 152.735 125.486,153.078 125.873,152.963 126.060 C 152.847 126.247,153.097 126.400,153.518 126.400 C 153.939 126.400,154.779 126.860,155.386 127.422 C 155.993 127.984,156.573 128.360,156.676 128.258 C 156.778 128.155,155.813 127.303,154.531 126.364 C 153.249 125.424,152.088 124.489,151.950 124.285 C 151.798 124.060,151.607 124.064,151.464 124.297 M246.800 125.571 C 246.800 125.775,246.485 126.024,246.100 126.124 C 245.509 126.279,245.502 126.314,246.051 126.354 C 246.409 126.379,246.926 126.130,247.200 125.800 C 247.544 125.385,247.559 125.200,247.249 125.200 C 247.002 125.200,246.800 125.367,246.800 125.571 M243.507 127.787 C 242.553 128.628,242.515 128.742,243.207 128.689 C 243.643 128.657,244.000 128.398,244.000 128.115 C 244.000 127.832,244.259 127.600,244.576 127.600 C 244.893 127.600,245.264 127.420,245.400 127.200 C 245.873 126.434,244.593 126.832,243.507 127.787 M157.200 128.625 C 157.200 128.925,158.273 130.000,158.571 130.000 C 159.080 130.000,158.751 129.362,158.000 128.893 C 157.560 128.618,157.200 128.498,157.200 128.625 M164.400 134.229 C 164.400 134.527,165.475 135.600,165.775 135.600 C 165.902 135.600,165.782 135.240,165.507 134.800 C 165.038 134.049,164.400 133.720,164.400 134.229 M168.077 137.174 C 168.343 137.600,168.705 137.858,168.883 137.749 C 169.061 137.639,168.948 137.290,168.632 136.974 C 167.812 136.155,167.509 136.265,168.077 137.174 M170.800 139.200 C 170.800 139.420,170.991 139.600,171.224 139.600 C 171.457 139.600,171.536 139.780,171.400 140.000 C 171.264 140.220,171.435 140.400,171.780 140.400 C 172.307 140.400,172.327 140.272,171.907 139.600 C 171.375 138.747,170.800 138.540,170.800 139.200 M228.229 139.429 C 227.805 139.738,227.572 140.105,227.710 140.243 C 227.849 140.382,228.262 140.195,228.629 139.829 C 229.491 138.966,229.225 138.700,228.229 139.429 M174.400 142.357 C 174.400 142.924,175.546 143.211,175.849 142.721 C 176.015 142.452,175.941 142.389,175.662 142.562 C 175.408 142.719,175.200 142.657,175.200 142.424 C 175.200 142.191,175.020 142.000,174.800 142.000 C 174.580 142.000,174.400 142.161,174.400 142.357 M223.200 143.497 C 222.650 144.074,222.487 144.335,222.837 144.077 C 223.187 143.818,223.554 143.687,223.652 143.785 C 223.750 143.883,224.050 143.612,224.319 143.182 C 225.008 142.078,224.385 142.254,223.200 143.497 M177.420 144.109 C 177.635 144.669,179.200 145.761,179.200 145.350 C 179.200 145.104,177.611 143.600,177.351 143.600 C 177.282 143.600,177.313 143.829,177.420 144.109 M180.153 146.332 C 180.568 146.799,181.075 147.077,181.280 146.951 C 181.718 146.680,181.702 146.663,180.400 145.996 C 179.403 145.485,179.402 145.486,180.153 146.332 M184.000 149.157 C 184.000 149.354,184.285 149.624,184.633 149.757 C 185.611 150.133,185.708 150.051,185.057 149.400 C 184.377 148.720,184.000 148.633,184.000 149.157 M190.279 153.854 C 190.147 153.987,190.308 154.365,190.638 154.695 C 191.415 155.472,191.684 155.203,191.028 154.306 C 190.749 153.924,190.412 153.721,190.279 153.854 M205.852 156.609 C 205.661 157.106,205.764 157.141,206.409 156.795 C 207.336 156.299,207.424 156.000,206.643 156.000 C 206.336 156.000,205.980 156.274,205.852 156.609 M194.000 157.157 C 194.000 157.354,194.285 157.624,194.633 157.757 C 195.611 158.133,195.708 158.051,195.057 157.400 C 194.377 156.720,194.000 156.633,194.000 157.157 M196.877 159.174 C 197.390 159.996,198.800 160.574,198.800 159.963 C 198.800 159.763,198.549 159.600,198.243 159.600 C 197.936 159.600,197.582 159.330,197.455 159.000 C 197.329 158.670,197.038 158.400,196.809 158.400 C 196.545 158.400,196.569 158.682,196.877 159.174 M202.041 159.247 C 201.516 159.672,201.193 160.126,201.322 160.256 C 201.452 160.385,202.023 160.125,202.592 159.677 C 203.161 159.230,203.485 158.776,203.311 158.669 C 203.138 158.562,202.566 158.822,202.041 159.247 M296.104 199.421 C 295.831 199.716,295.741 200.038,295.904 200.137 C 296.067 200.235,296.423 200.074,296.696 199.779 C 296.969 199.484,297.059 199.162,296.896 199.063 C 296.733 198.965,296.377 199.126,296.104 199.421 M106.279 201.454 C 106.147 201.587,106.308 201.965,106.638 202.295 C 107.415 203.072,107.684 202.803,107.028 201.906 C 106.749 201.524,106.412 201.321,106.279 201.454 M292.013 202.691 C 291.489 203.282,291.503 203.323,292.146 203.076 C 292.542 202.924,292.941 202.800,293.033 202.800 C 293.125 202.800,293.200 202.620,293.200 202.400 C 293.200 201.812,292.681 201.939,292.013 202.691 M290.119 204.313 C 289.634 204.691,288.767 205.333,288.191 205.739 C 287.616 206.146,287.230 206.564,287.335 206.668 C 287.516 206.849,288.036 206.478,290.354 204.513 C 291.583 203.470,291.400 203.315,290.119 204.313 M109.600 204.589 C 109.600 204.655,110.068 205.014,110.640 205.389 C 111.626 206.036,111.659 206.034,111.284 205.365 C 110.963 204.790,109.600 204.162,109.600 204.589 M112.832 206.690 C 112.814 206.959,113.323 207.450,113.962 207.780 C 114.601 208.111,115.411 208.668,115.762 209.019 C 116.113 209.370,116.400 209.477,116.400 209.256 C 116.400 208.797,114.281 207.200,113.672 207.200 C 113.449 207.200,113.176 206.975,113.065 206.700 C 112.910 206.317,112.856 206.314,112.832 206.690 M279.660 211.842 C 278.931 212.666,279.400 213.057,280.181 212.276 C 280.521 211.936,280.800 211.554,280.800 211.429 C 280.800 211.009,280.206 211.224,279.660 211.842 M122.667 213.867 C 122.541 213.992,122.708 214.365,123.038 214.695 C 123.368 215.025,123.741 215.192,123.867 215.067 C 123.992 214.941,123.825 214.568,123.495 214.238 C 123.165 213.908,122.792 213.741,122.667 213.867 M270.665 218.800 C 270.042 219.460,269.682 219.994,269.866 219.987 C 270.308 219.970,271.847 218.800,271.427 218.800 C 271.248 218.800,271.326 218.530,271.600 218.200 C 272.472 217.149,271.840 217.555,270.665 218.800 M128.400 218.704 C 128.400 218.871,128.760 219.232,129.200 219.507 C 130.076 220.054,130.285 219.645,129.520 218.880 C 128.978 218.338,128.400 218.247,128.400 218.704 M267.371 221.371 C 266.948 221.681,266.727 222.061,266.882 222.215 C 267.036 222.369,267.462 222.195,267.829 221.829 C 268.692 220.965,268.369 220.642,267.371 221.371 M264.070 223.463 C 262.991 224.618,263.879 224.746,265.174 223.622 C 265.996 222.910,266.007 222.849,265.306 222.902 C 264.885 222.934,264.329 223.186,264.070 223.463 M138.800 226.304 C 138.800 226.471,139.160 226.832,139.600 227.107 C 140.530 227.688,140.654 227.397,139.829 226.571 C 139.198 225.941,138.800 225.837,138.800 226.304 M260.060 226.668 C 259.319 227.469,259.809 227.848,260.584 227.073 C 260.926 226.731,261.070 226.368,260.903 226.267 C 260.736 226.167,260.357 226.347,260.060 226.668 M254.460 231.051 C 253.943 231.602,253.590 232.124,253.677 232.210 C 253.869 232.403,256.000 230.608,256.000 230.253 C 256.000 229.749,255.381 230.069,254.460 231.051 M147.600 232.768 C 147.600 233.293,149.280 234.854,149.552 234.582 C 149.667 234.466,149.275 233.921,148.681 233.370 C 148.086 232.819,147.600 232.548,147.600 232.768 M251.075 233.646 C 250.263 234.479,250.124 234.800,250.575 234.800 C 250.919 234.800,251.200 234.519,251.200 234.176 C 251.200 233.833,251.361 233.652,251.558 233.774 C 251.755 233.896,252.029 233.701,252.168 233.340 C 252.559 232.321,252.294 232.395,251.075 233.646 M244.477 238.826 C 243.909 239.735,244.212 239.845,245.032 239.026 C 245.348 238.710,245.461 238.361,245.283 238.251 C 245.105 238.142,244.743 238.400,244.477 238.826 M156.800 240.024 C 156.800 240.257,156.980 240.336,157.200 240.200 C 157.420 240.064,157.600 240.214,157.600 240.534 C 157.600 240.853,157.871 241.218,158.201 241.345 C 158.713 241.542,158.707 241.429,158.155 240.588 C 157.486 239.567,156.800 239.281,156.800 240.024 M241.492 240.770 C 241.351 241.310,241.456 241.477,241.845 241.327 C 242.150 241.210,242.400 240.864,242.400 240.557 C 242.400 239.726,241.724 239.884,241.492 240.770 M237.800 243.660 C 236.728 244.375,236.705 244.430,237.581 244.178 C 238.121 244.022,238.809 243.648,239.110 243.347 C 239.898 242.559,239.198 242.726,237.800 243.660 M163.867 245.067 C 163.741 245.192,163.908 245.565,164.238 245.895 C 164.568 246.225,164.941 246.392,165.067 246.267 C 165.192 246.141,165.025 245.768,164.695 245.438 C 164.365 245.108,163.992 244.941,163.867 245.067 M234.676 246.181 C 234.357 246.500,233.984 246.650,233.848 246.514 C 233.711 246.378,233.600 246.477,233.600 246.733 C 233.600 247.436,234.189 247.296,235.000 246.400 C 235.828 245.485,235.556 245.301,234.676 246.181 M167.390 248.248 C 167.747 248.604,168.159 248.774,168.307 248.626 C 168.456 248.478,168.312 248.189,167.988 247.984 C 167.043 247.387,166.687 247.544,167.390 248.248 M173.467 252.267 C 173.341 252.392,173.508 252.765,173.838 253.095 C 174.168 253.425,174.541 253.592,174.667 253.467 C 174.792 253.341,174.625 252.968,174.295 252.638 C 173.965 252.308,173.592 252.141,173.467 252.267 M180.105 257.817 C 181.210 258.842,182.000 259.085,182.000 258.400 C 182.000 258.180,181.730 258.000,181.400 258.000 C 181.070 258.000,180.800 257.841,180.800 257.647 C 180.800 257.452,180.405 257.190,179.923 257.064 C 179.107 256.850,179.119 256.903,180.105 257.817 M219.029 257.809 C 218.605 258.129,218.390 258.523,218.551 258.684 C 218.712 258.845,218.969 258.787,219.122 258.554 C 219.275 258.322,219.760 257.927,220.200 257.678 C 220.754 257.364,220.815 257.224,220.400 257.225 C 220.070 257.225,219.453 257.488,219.029 257.809 M215.843 260.233 C 215.467 261.211,215.549 261.308,216.200 260.657 C 216.880 259.977,216.967 259.600,216.443 259.600 C 216.246 259.600,215.976 259.885,215.843 260.233 M193.200 267.346 C 193.200 267.706,193.337 268.000,193.504 268.000 C 193.671 268.000,194.292 268.448,194.883 268.996 C 195.474 269.544,196.059 269.827,196.184 269.625 C 196.309 269.423,196.054 269.144,195.616 269.005 C 195.179 268.866,194.456 268.289,194.010 267.722 C 193.414 266.964,193.200 266.865,193.200 267.346 M202.413 270.691 C 201.889 271.282,201.903 271.323,202.546 271.076 C 202.942 270.924,203.341 270.800,203.433 270.800 C 203.525 270.800,203.600 270.620,203.600 270.400 C 203.600 269.812,203.081 269.939,202.413 270.691 " stroke="none" fill="#b5352c" fill-rule="evenodd"></path><path id="path4" d="M339.200 60.800 C 338.731 61.103,338.834 61.189,339.676 61.194 C 340.268 61.197,340.864 61.020,341.000 60.800 C 341.316 60.289,339.990 60.289,339.200 60.800 M350.800 60.792 C 350.800 61.017,351.370 61.200,352.067 61.200 C 353.523 61.200,353.470 61.025,351.900 60.649 C 351.247 60.492,350.800 60.550,350.800 60.792 M335.200 61.600 C 334.731 61.903,334.834 61.989,335.676 61.994 C 336.268 61.997,336.864 61.820,337.000 61.600 C 337.316 61.089,335.990 61.089,335.200 61.600 M355.000 61.600 C 354.864 61.820,355.134 62.000,355.600 62.000 C 356.066 62.000,356.336 61.820,356.200 61.600 C 356.064 61.380,355.794 61.200,355.600 61.200 C 355.406 61.200,355.136 61.380,355.000 61.600 M363.600 64.695 C 363.600 65.084,365.214 66.119,365.451 65.882 C 365.547 65.786,365.169 65.410,364.612 65.045 C 364.056 64.680,363.600 64.522,363.600 64.695 M324.629 66.629 C 324.205 66.938,323.972 67.305,324.110 67.443 C 324.249 67.582,324.662 67.395,325.029 67.029 C 325.891 66.166,325.625 65.900,324.629 66.629 M367.600 66.969 C 367.600 67.116,368.050 67.686,368.600 68.236 C 369.521 69.157,369.980 69.133,369.294 68.200 C 368.829 67.568,367.600 66.674,367.600 66.969 M321.293 69.200 C 321.018 69.640,320.898 70.000,321.025 70.000 C 321.325 70.000,322.400 68.927,322.400 68.629 C 322.400 68.120,321.762 68.449,321.293 69.200 M371.200 70.211 C 371.200 70.616,374.858 74.075,375.067 73.867 C 375.182 73.751,374.455 72.834,373.449 71.828 C 371.721 70.100,371.200 69.725,371.200 70.211 M317.260 72.242 C 316.531 73.066,317.000 73.457,317.781 72.676 C 318.121 72.336,318.400 71.954,318.400 71.829 C 318.400 71.409,317.806 71.624,317.260 72.242 M314.871 74.020 C 314.392 74.466,314.000 75.012,314.000 75.234 C 314.000 75.455,314.469 75.167,315.042 74.594 C 316.281 73.356,316.129 72.848,314.871 74.020 M375.200 75.029 C 375.200 75.453,376.436 76.497,376.667 76.267 C 376.792 76.141,376.617 75.760,376.276 75.419 C 375.641 74.784,375.200 74.624,375.200 75.029 M308.060 79.068 C 307.319 79.869,307.809 80.248,308.584 79.473 C 308.926 79.131,309.070 78.768,308.903 78.667 C 308.736 78.567,308.357 78.747,308.060 79.068 M305.220 81.271 C 304.048 82.529,304.556 82.681,305.794 81.442 C 306.367 80.869,306.655 80.400,306.434 80.400 C 306.212 80.400,305.666 80.792,305.220 81.271 M301.802 83.998 C 301.403 84.439,301.207 84.800,301.367 84.800 C 301.788 84.800,302.928 83.595,302.712 83.379 C 302.611 83.278,302.202 83.556,301.802 83.998 M299.429 85.829 C 299.083 86.174,298.800 86.624,298.800 86.829 C 298.800 87.033,298.410 87.200,297.933 87.200 C 297.457 87.200,297.176 87.309,297.309 87.443 C 297.687 87.821,296.664 88.723,296.102 88.507 C 295.826 88.401,295.600 88.604,295.600 88.957 C 295.600 89.311,295.330 89.600,295.000 89.600 C 294.670 89.600,294.400 89.780,294.400 90.000 C 294.400 90.220,294.113 90.400,293.763 90.400 C 293.412 90.400,293.040 90.724,292.937 91.120 C 292.833 91.516,292.381 92.069,291.932 92.349 C 291.262 92.768,291.172 92.765,291.427 92.330 C 291.598 92.038,291.377 92.115,290.936 92.501 C 290.496 92.886,290.015 93.081,289.868 92.934 C 289.720 92.787,289.600 92.924,289.600 93.239 C 289.600 93.554,288.880 94.256,288.000 94.800 C 287.120 95.344,286.400 95.937,286.400 96.118 C 286.400 96.299,286.219 96.335,285.997 96.198 C 285.776 96.061,285.486 96.231,285.354 96.575 C 285.222 96.919,284.874 97.200,284.580 97.200 C 284.286 97.200,283.762 97.605,283.415 98.100 C 283.068 98.595,282.653 98.973,282.492 98.940 C 282.332 98.907,282.245 99.042,282.300 99.240 C 282.355 99.438,282.083 99.600,281.696 99.600 C 281.309 99.600,280.768 99.960,280.493 100.400 C 280.218 100.840,279.590 101.203,279.097 101.206 C 278.371 101.211,278.314 101.286,278.800 101.600 C 279.313 101.931,279.298 101.989,278.700 101.994 C 278.315 101.997,278.000 102.136,278.000 102.302 C 278.000 102.469,277.459 102.844,276.798 103.137 C 276.136 103.430,275.697 103.834,275.821 104.035 C 275.946 104.236,275.806 104.400,275.512 104.400 C 275.217 104.400,274.724 104.750,274.415 105.179 C 274.107 105.607,273.707 105.866,273.527 105.755 C 273.347 105.644,273.200 105.833,273.200 106.176 C 273.200 106.519,272.964 106.800,272.675 106.800 C 272.387 106.800,271.802 107.116,271.375 107.503 C 270.949 107.889,270.105 108.426,269.500 108.694 C 268.895 108.963,268.400 109.367,268.400 109.591 C 268.400 109.816,268.040 110.000,267.600 110.000 C 267.142 110.000,266.800 110.267,266.800 110.624 C 266.800 110.967,266.619 111.135,266.397 110.998 C 266.176 110.861,265.886 111.031,265.754 111.375 C 265.622 111.719,265.303 112.000,265.046 112.000 C 264.788 112.000,264.317 112.360,264.000 112.800 C 263.683 113.240,263.285 113.600,263.116 113.600 C 262.765 113.600,261.697 114.433,259.655 116.300 C 258.873 117.015,257.866 117.603,257.417 117.606 C 256.743 117.611,256.705 117.680,257.200 118.000 C 257.728 118.341,257.725 118.388,257.175 118.394 C 256.832 118.397,256.116 118.805,255.585 119.300 C 255.053 119.795,254.553 120.137,254.474 120.059 C 254.241 119.833,252.400 121.554,252.400 121.997 C 252.400 122.219,252.130 122.400,251.800 122.400 C 251.470 122.400,251.200 122.580,251.200 122.800 C 251.200 123.020,250.919 123.200,250.576 123.200 C 250.233 123.200,250.064 123.380,250.200 123.600 C 250.336 123.820,250.167 124.000,249.824 124.000 C 249.481 124.000,249.200 124.180,249.200 124.400 C 249.200 124.620,248.750 124.800,248.200 124.800 C 247.650 124.800,247.245 124.997,247.300 125.237 C 247.355 125.478,247.040 125.883,246.600 126.137 C 246.160 126.392,245.656 126.825,245.480 127.100 C 245.304 127.375,244.899 127.600,244.580 127.600 C 244.261 127.600,244.000 127.881,244.000 128.224 C 244.000 128.567,243.827 128.740,243.615 128.609 C 243.403 128.478,242.863 128.737,242.415 129.185 C 241.967 129.633,241.465 130.045,241.300 130.100 C 241.135 130.155,241.045 130.335,241.100 130.500 C 241.155 130.665,240.840 130.800,240.400 130.800 C 239.960 130.800,239.600 130.980,239.600 131.200 C 239.600 131.420,239.330 131.600,239.000 131.600 C 238.670 131.600,238.400 131.780,238.400 132.000 C 238.400 132.220,238.085 132.403,237.700 132.406 C 237.102 132.411,237.087 132.469,237.600 132.800 C 238.096 133.120,238.059 133.189,237.388 133.194 C 236.942 133.197,236.324 133.550,236.015 133.979 C 235.707 134.407,235.306 134.665,235.124 134.553 C 234.943 134.441,234.686 134.631,234.554 134.975 C 234.422 135.319,234.103 135.600,233.846 135.600 C 233.588 135.600,233.117 135.960,232.800 136.400 C 232.483 136.840,232.085 137.200,231.916 137.200 C 231.576 137.200,230.393 138.123,228.968 139.500 C 228.456 139.995,227.931 140.400,227.801 140.400 C 227.672 140.400,227.180 140.760,226.708 141.200 C 226.236 141.640,225.644 142.000,225.392 142.000 C 225.141 142.000,224.694 142.450,224.400 142.999 C 224.106 143.549,223.777 143.911,223.670 143.803 C 223.562 143.695,223.232 143.807,222.937 144.052 C 222.642 144.297,222.400 144.392,222.400 144.262 C 222.400 144.133,221.870 144.516,221.222 145.113 C 219.433 146.763,218.865 147.200,218.506 147.200 C 218.326 147.200,217.553 147.737,216.789 148.394 C 213.886 150.890,213.458 151.200,212.913 151.200 C 212.605 151.200,212.464 151.380,212.600 151.600 C 212.736 151.820,212.466 152.000,212.000 152.000 C 211.534 152.000,211.244 152.147,211.355 152.327 C 211.466 152.506,211.026 152.966,210.378 153.349 C 209.730 153.732,209.200 154.226,209.200 154.446 C 209.200 154.667,209.020 154.736,208.800 154.600 C 208.580 154.464,208.399 154.588,208.399 154.876 C 208.398 155.446,206.180 157.057,205.604 156.908 C 205.408 156.858,205.136 157.173,204.997 157.608 C 204.852 158.066,204.392 158.400,203.906 158.400 C 203.445 158.400,203.181 158.514,203.320 158.653 C 203.459 158.792,203.173 159.197,202.684 159.553 C 201.070 160.727,200.040 161.189,199.822 160.836 C 199.704 160.645,199.119 160.366,198.522 160.216 C 197.924 160.066,197.210 159.621,196.934 159.227 C 196.658 158.833,195.885 158.284,195.216 158.007 C 194.472 157.698,194.000 157.212,194.000 156.751 C 194.000 156.338,193.728 156.000,193.395 156.000 C 192.266 156.000,189.824 154.309,190.286 153.848 C 190.422 153.711,190.233 153.600,189.867 153.600 C 189.500 153.600,189.200 153.420,189.200 153.200 C 189.200 152.980,188.919 152.800,188.576 152.800 C 188.233 152.800,188.064 152.620,188.200 152.400 C 188.336 152.180,188.302 152.000,188.124 152.000 C 187.946 151.999,187.277 151.549,186.638 151.000 C 185.999 150.450,185.348 150.000,185.192 150.000 C 185.036 150.000,184.305 149.473,183.568 148.830 C 182.831 148.186,182.082 147.749,181.904 147.859 C 181.726 147.969,181.630 147.829,181.690 147.548 C 181.751 147.267,181.620 147.028,181.400 147.017 C 181.011 146.998,178.206 145.016,177.400 144.190 C 176.500 143.269,175.082 142.234,175.352 142.695 C 175.548 143.030,175.440 143.114,175.021 142.953 C 174.679 142.822,174.400 142.554,174.400 142.357 C 174.400 141.674,172.794 140.400,171.933 140.400 C 171.457 140.400,171.183 140.283,171.326 140.141 C 171.681 139.786,169.986 138.361,169.538 138.638 C 169.341 138.760,169.230 138.684,169.290 138.470 C 169.351 138.255,169.220 138.038,169.000 137.986 C 168.780 137.935,168.365 137.557,168.077 137.146 C 167.790 136.736,167.284 136.400,166.954 136.400 C 166.623 136.400,166.464 136.220,166.600 136.000 C 166.736 135.780,166.516 135.600,166.112 135.600 C 165.707 135.600,165.117 135.240,164.800 134.800 C 164.483 134.360,163.983 134.000,163.688 134.000 C 163.394 134.000,163.264 133.820,163.400 133.600 C 163.536 133.380,163.277 133.200,162.824 133.200 C 162.259 133.200,162.000 132.941,162.000 132.376 C 162.000 131.923,161.832 131.657,161.626 131.784 C 161.420 131.911,160.798 131.562,160.244 131.008 C 159.690 130.453,158.998 130.000,158.706 130.000 C 158.415 130.000,157.917 129.640,157.600 129.200 C 157.283 128.760,156.892 128.400,156.732 128.400 C 156.572 128.400,155.956 127.950,155.362 127.400 C 154.769 126.850,153.939 126.400,153.518 126.400 C 153.097 126.400,152.847 126.247,152.963 126.060 C 153.078 125.873,152.735 125.486,152.200 125.200 C 151.665 124.914,151.322 124.527,151.437 124.340 C 151.553 124.153,151.187 124.000,150.624 124.000 C 150.060 124.000,149.600 123.771,149.600 123.489 C 149.600 122.915,148.204 121.600,147.595 121.600 C 147.378 121.600,147.200 121.420,147.200 121.200 C 147.200 120.980,146.880 120.800,146.488 120.800 C 146.097 120.800,145.517 120.440,145.200 120.000 C 144.883 119.560,144.315 119.200,143.939 119.200 C 143.562 119.200,143.140 118.840,143.000 118.400 C 142.860 117.960,142.559 117.600,142.331 117.600 C 142.102 117.600,141.554 117.141,141.112 116.579 C 140.670 116.017,140.220 115.647,140.112 115.755 C 139.882 115.985,139.336 115.560,137.184 113.473 C 136.318 112.634,135.428 112.059,135.205 112.197 C 134.982 112.335,134.800 112.156,134.800 111.800 C 134.800 111.444,134.620 111.264,134.400 111.400 C 134.180 111.536,134.000 111.446,134.000 111.200 C 134.000 110.954,133.859 110.840,133.686 110.947 C 133.514 111.053,132.772 110.617,132.039 109.976 C 131.305 109.336,130.546 108.910,130.352 109.029 C 130.159 109.149,130.000 108.866,130.000 108.400 C 130.000 107.934,129.840 107.651,129.645 107.772 C 129.450 107.893,129.068 107.723,128.796 107.396 C 128.524 107.068,128.041 106.800,127.722 106.800 C 127.404 106.800,126.873 106.530,126.543 106.200 C 126.213 105.870,126.059 105.600,126.200 105.600 C 126.755 105.600,125.274 104.455,124.560 104.331 C 124.142 104.259,123.284 103.617,122.653 102.905 C 122.023 102.193,121.348 101.709,121.153 101.829 C 120.959 101.949,120.800 101.857,120.800 101.624 C 120.800 101.391,120.542 101.200,120.227 101.200 C 119.912 101.200,119.552 100.880,119.428 100.489 C 119.304 100.098,118.812 99.513,118.335 99.189 C 117.858 98.865,117.138 98.285,116.734 97.900 C 116.330 97.515,115.719 97.200,115.376 97.200 C 115.033 97.200,114.864 97.020,115.000 96.800 C 115.136 96.580,114.887 96.400,114.446 96.400 C 114.006 96.400,113.410 96.069,113.123 95.663 C 112.835 95.258,112.201 94.715,111.713 94.456 C 111.225 94.197,110.344 93.539,109.754 92.993 C 109.165 92.447,108.484 91.995,108.242 91.989 C 107.999 91.983,107.275 91.443,106.633 90.789 C 105.992 90.135,105.308 89.600,105.114 89.600 C 104.920 89.600,104.347 89.153,103.841 88.607 C 103.335 88.060,102.803 87.730,102.660 87.873 C 102.517 88.016,102.400 87.930,102.400 87.682 C 102.400 87.434,102.001 86.859,101.513 86.405 L 100.626 85.578 100.316 86.416 C 100.145 86.877,100.002 111.750,99.997 141.689 C 99.988 199.924,99.925 198.000,101.833 198.000 C 102.171 198.000,102.336 198.180,102.200 198.400 C 101.973 198.767,102.520 198.978,103.330 198.837 C 103.511 198.806,103.551 198.956,103.419 199.170 C 103.286 199.384,103.588 199.776,104.089 200.040 C 104.590 200.304,105.092 200.658,105.204 200.828 C 105.316 200.997,105.658 201.195,105.965 201.268 C 106.272 201.341,107.009 201.895,107.605 202.500 C 108.200 203.105,109.027 203.603,109.443 203.606 C 110.078 203.611,110.103 203.675,109.600 204.000 C 109.182 204.270,109.152 204.405,109.500 204.444 C 109.775 204.475,110.164 204.523,110.364 204.550 C 110.564 204.578,111.118 205.097,111.596 205.704 C 112.073 206.311,112.630 206.705,112.832 206.580 C 113.034 206.455,113.200 206.543,113.200 206.776 C 113.200 207.009,113.463 207.200,113.784 207.200 C 114.105 207.200,115.083 207.902,115.958 208.759 C 116.833 209.616,117.646 210.221,117.765 210.102 C 117.884 209.983,118.095 210.181,118.233 210.543 C 118.372 210.904,118.871 211.203,119.343 211.206 C 120.043 211.211,120.090 211.283,119.600 211.600 C 119.182 211.870,119.152 212.005,119.500 212.044 C 119.775 212.075,120.135 212.147,120.300 212.204 C 120.465 212.261,121.020 212.443,121.534 212.609 C 122.236 212.836,122.335 212.995,121.934 213.249 C 121.435 213.566,121.684 213.682,122.630 213.574 C 122.757 213.559,123.183 213.919,123.577 214.374 C 123.971 214.828,124.633 215.203,125.047 215.206 C 125.680 215.211,125.704 215.274,125.200 215.600 C 124.715 215.914,124.772 215.989,125.500 215.994 C 126.131 215.998,126.400 216.239,126.400 216.800 C 126.400 217.341,126.667 217.600,127.224 217.600 C 127.677 217.600,127.936 217.780,127.800 218.000 C 127.664 218.220,127.891 218.400,128.304 218.400 C 128.718 218.400,129.431 218.805,129.889 219.300 C 131.418 220.951,132.592 221.883,133.506 222.172 C 134.004 222.329,134.308 222.625,134.182 222.829 C 134.056 223.033,134.334 223.200,134.800 223.200 C 135.266 223.200,135.558 223.345,135.448 223.522 C 135.339 223.699,135.868 224.178,136.624 224.585 C 137.381 224.993,138.000 225.478,138.000 225.663 C 138.000 225.848,138.288 226.000,138.640 226.000 C 138.991 226.000,139.756 226.496,140.340 227.101 C 141.973 228.798,144.266 230.397,144.615 230.083 C 144.787 229.927,144.804 230.016,144.653 230.280 C 144.492 230.561,144.755 230.960,145.289 231.243 C 145.790 231.508,146.515 232.085,146.900 232.524 C 147.332 233.017,147.600 233.123,147.600 232.802 C 147.600 232.516,148.142 232.848,148.803 233.541 C 149.465 234.233,150.179 234.800,150.389 234.800 C 150.600 234.800,150.965 235.160,151.200 235.600 C 151.435 236.040,151.892 236.400,152.214 236.400 C 152.536 236.400,152.800 236.580,152.800 236.800 C 152.800 237.020,153.171 237.200,153.624 237.200 C 154.077 237.200,154.336 237.380,154.200 237.600 C 154.064 237.820,154.173 238.000,154.443 238.000 C 154.713 238.000,154.816 238.117,154.673 238.261 C 154.382 238.551,156.205 239.600,157.000 239.600 C 157.279 239.600,157.803 240.050,158.163 240.600 C 158.524 241.150,159.008 241.600,159.240 241.600 C 159.472 241.600,160.166 242.095,160.783 242.700 C 162.105 243.996,163.416 244.942,163.765 244.851 C 163.901 244.816,164.631 245.405,165.387 246.160 C 166.142 246.915,167.129 247.651,167.580 247.794 C 168.031 247.937,168.400 248.183,168.400 248.341 C 168.400 248.498,168.940 248.946,169.600 249.336 C 170.260 249.726,170.800 250.316,170.800 250.646 C 170.800 250.977,170.965 251.145,171.168 251.020 C 171.370 250.895,171.801 251.058,172.125 251.382 C 172.449 251.706,172.954 252.023,173.248 252.086 C 173.958 252.238,174.800 253.040,174.800 253.564 C 174.800 253.795,175.258 254.100,175.819 254.240 C 176.379 254.381,176.747 254.586,176.638 254.696 C 176.335 254.998,177.221 255.713,179.000 256.601 C 179.880 257.040,180.660 257.535,180.733 257.700 C 180.807 257.865,181.122 258.000,181.433 258.000 C 181.745 258.000,182.000 258.180,182.000 258.400 C 182.000 258.620,182.270 258.800,182.600 258.800 C 182.930 258.800,183.155 259.025,183.100 259.300 C 183.045 259.575,183.214 259.759,183.476 259.708 C 183.737 259.658,184.064 259.973,184.203 260.408 C 184.341 260.844,184.712 261.200,185.027 261.200 C 185.342 261.200,185.600 261.380,185.600 261.600 C 185.600 261.820,185.939 262.000,186.353 262.000 C 186.770 262.000,187.200 262.357,187.316 262.800 C 187.463 263.361,187.865 263.602,188.663 263.606 C 189.544 263.611,189.665 263.700,189.200 264.000 C 188.715 264.314,188.772 264.389,189.500 264.394 C 190.131 264.398,190.400 264.639,190.400 265.200 C 190.400 265.673,190.667 266.000,191.053 266.000 C 191.412 266.000,192.042 266.388,192.453 266.861 C 192.955 267.440,193.202 267.538,193.206 267.161 C 193.211 266.693,193.273 266.697,193.580 267.181 C 193.782 267.500,193.856 267.910,193.744 268.091 C 193.632 268.272,193.689 268.384,193.870 268.340 C 194.456 268.199,196.382 269.306,196.164 269.658 C 196.048 269.846,196.244 270.000,196.600 270.000 C 196.956 270.000,197.136 270.180,197.000 270.400 C 196.864 270.620,197.032 270.800,197.373 270.800 C 197.714 270.800,198.218 271.160,198.493 271.600 C 199.106 272.582,201.200 272.718,201.200 271.776 C 201.200 271.433,201.347 271.244,201.527 271.355 C 201.707 271.466,202.107 271.207,202.415 270.779 C 202.724 270.350,203.285 270.000,203.661 270.000 C 204.038 270.000,204.460 269.640,204.600 269.200 C 204.740 268.760,205.090 268.400,205.379 268.400 C 205.667 268.400,206.645 267.680,207.552 266.800 C 208.458 265.921,209.200 265.315,209.200 265.455 C 209.200 265.595,209.668 265.241,210.240 264.669 C 210.813 264.096,211.623 263.520,212.040 263.387 C 212.458 263.255,212.800 262.888,212.800 262.573 C 212.800 262.258,213.160 262.000,213.600 262.000 C 214.040 262.000,214.400 261.820,214.400 261.600 C 214.400 261.380,214.658 261.200,214.973 261.200 C 215.288 261.200,215.660 260.840,215.800 260.400 C 215.940 259.960,216.267 259.600,216.527 259.599 C 216.787 259.599,217.630 259.059,218.400 258.400 C 219.170 257.741,220.031 257.201,220.313 257.201 C 220.594 257.200,220.922 256.946,221.041 256.636 C 221.161 256.326,221.695 255.963,222.229 255.828 C 222.763 255.694,223.200 255.329,223.200 255.016 C 223.200 254.703,223.408 254.319,223.662 254.162 C 223.965 253.974,224.024 254.069,223.832 254.438 C 223.672 254.747,223.797 254.688,224.110 254.306 C 224.423 253.925,224.796 253.730,224.940 253.873 C 225.083 254.016,225.200 253.833,225.200 253.467 C 225.200 253.044,225.529 252.798,226.100 252.794 C 226.828 252.789,226.885 252.714,226.400 252.400 C 225.915 252.086,225.972 252.011,226.700 252.006 C 227.195 252.003,227.600 251.809,227.600 251.576 C 227.600 251.343,227.780 251.264,228.000 251.400 C 228.220 251.536,228.400 251.356,228.400 251.000 C 228.400 250.644,228.568 250.457,228.774 250.584 C 228.980 250.711,229.602 250.362,230.156 249.808 C 230.710 249.253,231.332 248.800,231.537 248.800 C 231.742 248.800,232.329 248.273,232.842 247.630 C 233.354 246.986,233.914 246.547,234.087 246.653 C 234.259 246.760,234.400 246.637,234.400 246.381 C 234.400 246.124,234.678 246.021,235.021 246.153 C 235.377 246.289,235.537 246.222,235.397 245.995 C 235.263 245.778,235.356 245.600,235.605 245.600 C 235.854 245.600,236.327 245.330,236.657 245.000 C 236.987 244.670,237.109 244.398,236.929 244.396 C 236.748 244.394,237.397 243.915,238.372 243.331 C 240.713 241.928,241.600 241.141,241.600 240.468 C 241.600 240.149,241.845 240.009,242.180 240.137 C 242.498 240.259,243.292 239.873,243.944 239.280 C 244.596 238.686,245.370 238.142,245.664 238.070 C 245.959 237.999,246.260 237.774,246.333 237.570 C 246.407 237.367,246.678 237.200,246.937 237.200 C 247.196 237.200,247.632 236.840,247.907 236.400 C 248.182 235.960,248.686 235.600,249.027 235.600 C 249.368 235.600,249.536 235.420,249.400 235.200 C 249.264 234.980,249.330 234.800,249.546 234.800 C 249.762 234.800,250.492 234.246,251.169 233.569 C 251.846 232.892,252.400 232.547,252.400 232.802 C 252.400 233.057,253.106 232.531,253.969 231.633 C 254.831 230.735,255.730 230.000,255.966 230.000 C 256.617 230.000,258.402 228.326,258.163 227.940 C 258.047 227.753,258.257 227.600,258.629 227.600 C 259.002 227.600,259.629 227.228,260.023 226.774 C 260.417 226.319,260.798 225.977,260.870 226.013 C 261.143 226.149,263.595 224.584,263.597 224.271 C 263.601 223.848,264.482 222.965,265.000 222.867 C 266.089 222.659,266.800 222.310,266.800 221.983 C 266.800 221.784,267.295 221.363,267.900 221.049 C 268.505 220.734,269.714 219.784,270.587 218.938 C 271.460 218.092,271.929 217.719,271.630 218.109 C 271.159 218.724,271.172 218.786,271.728 218.572 C 272.081 218.437,272.479 217.983,272.612 217.563 C 272.745 217.143,273.130 216.800,273.466 216.800 C 273.803 216.800,274.583 216.260,275.200 215.600 C 275.817 214.940,276.497 214.400,276.712 214.400 C 276.927 214.400,277.845 213.680,278.752 212.800 C 279.659 211.920,280.671 211.200,281.000 211.200 C 281.330 211.200,281.600 211.020,281.600 210.800 C 281.600 210.580,281.887 210.400,282.237 210.400 C 282.588 210.400,282.969 210.042,283.083 209.604 C 283.197 209.167,283.450 208.908,283.645 209.028 C 283.840 209.149,284.000 208.967,284.000 208.624 C 284.000 208.281,284.135 208.021,284.300 208.047 C 285.311 208.207,285.980 207.893,286.217 207.147 C 286.403 206.560,286.581 206.446,286.788 206.781 C 287.011 207.141,287.150 207.107,287.325 206.651 C 287.455 206.312,288.274 205.584,289.145 205.035 C 290.016 204.485,291.186 203.577,291.746 203.018 C 292.306 202.458,292.999 202.000,293.286 202.000 C 293.573 202.000,294.032 201.640,294.307 201.200 C 294.582 200.760,295.086 200.400,295.427 200.400 C 295.768 200.400,295.965 200.265,295.866 200.100 C 295.650 199.744,296.400 199.052,297.195 198.873 C 297.506 198.804,298.268 198.174,298.889 197.473 L 300.019 196.200 300.110 140.700 C 300.159 110.175,300.168 85.200,300.129 85.200 C 300.089 85.200,299.774 85.483,299.429 85.829 M381.600 86.424 C 381.600 86.877,381.780 87.136,382.000 87.000 C 382.220 86.864,382.400 86.493,382.400 86.176 C 382.400 85.859,382.220 85.600,382.000 85.600 C 381.780 85.600,381.600 85.971,381.600 86.424 M382.400 89.000 C 382.400 89.550,382.580 90.000,382.800 90.000 C 383.020 90.000,383.200 89.550,383.200 89.000 C 383.200 88.450,383.020 88.000,382.800 88.000 C 382.580 88.000,382.400 88.450,382.400 89.000 M383.200 92.976 C 383.200 93.759,383.342 94.400,383.515 94.400 C 383.990 94.400,384.069 92.090,383.604 91.803 C 383.361 91.652,383.200 92.119,383.200 92.976 " stroke="none" fill="#dc5444" fill-rule="evenodd"></path></g></svg>