<svg id="svg" version="1.1" xmlns="http://www.w3.org/2000/svg" xmlns:xlink="http://www.w3.org/1999/xlink" width="400" height="400" viewBox="0, 0, 400,400"><g id="svgg"><path id="path0" d="M192.400 57.603 C 157.377 57.853,159.322 57.717,152.000 60.434 C 140.650 64.647,130.674 75.517,127.069 87.600 C 125.330 93.427,125.200 95.575,125.200 118.569 L 125.200 140.385 126.231 140.643 C 128.292 141.161,140.083 140.529,142.143 139.791 C 147.802 137.765,150.042 133.368,150.393 123.600 C 150.900 109.477,157.609 104.780,171.618 108.738 C 191.142 114.256,210.407 114.122,229.955 108.331 C 242.250 104.689,249.098 110.239,249.619 124.267 C 249.950 133.200,251.239 136.114,256.128 138.979 C 259.172 140.763,273.081 141.662,274.571 140.171 C 275.308 139.435,275.504 105.223,274.809 98.622 C 273.865 89.646,267.534 83.374,258.391 82.359 C 251.811 81.628,250.119 80.158,249.565 74.690 C 248.422 63.412,240.698 57.037,228.480 57.288 C 226.126 57.336,209.890 57.478,192.400 57.603 M56.860 58.642 C 56.562 58.978,56.399 59.332,56.495 59.429 C 56.592 59.526,56.998 59.244,57.398 58.802 C 57.797 58.361,57.961 58.007,57.762 58.015 C 57.563 58.024,57.157 58.305,56.860 58.642 M345.802 62.002 C 346.202 62.444,346.611 62.722,346.712 62.621 C 346.928 62.405,345.788 61.200,345.367 61.200 C 345.207 61.200,345.403 61.561,345.802 62.002 M160.587 250.183 C 152.160 254.300,126.982 266.846,124.800 268.016 C 123.590 268.665,118.550 270.477,113.600 272.043 C 108.650 273.609,101.990 275.740,98.800 276.779 C 95.610 277.818,90.840 279.353,88.200 280.191 C 73.253 284.933,61.995 295.175,58.073 307.600 C 55.951 314.322,55.658 316.766,55.442 329.505 L 55.298 338.009 58.834 341.612 C 60.949 343.768,62.284 345.437,62.157 345.767 C 62.041 346.071,62.138 346.438,62.373 346.583 C 62.608 346.728,62.800 346.673,62.800 346.461 C 62.800 345.533,64.732 346.731,67.320 349.263 C 68.859 350.768,70.311 352.000,70.548 352.000 C 70.785 352.000,72.006 353.080,73.262 354.400 C 74.519 355.720,75.744 356.800,75.987 356.800 C 76.229 356.800,76.955 357.340,77.600 358.000 C 78.245 358.660,78.916 359.200,79.091 359.200 C 79.265 359.200,79.856 359.605,80.404 360.100 C 80.952 360.595,82.210 361.534,83.200 362.186 C 84.190 362.839,85.322 363.694,85.716 364.086 C 86.109 364.479,86.666 364.800,86.954 364.800 C 87.241 364.800,87.809 365.168,88.216 365.617 C 88.937 366.414,88.936 366.428,88.178 366.158 C 87.533 365.929,87.487 365.976,87.910 366.431 C 88.321 366.873,88.573 366.884,89.210 366.487 C 89.839 366.093,90.003 366.096,90.015 366.497 C 90.024 366.773,90.609 367.364,91.315 367.808 C 92.022 368.253,92.600 368.868,92.600 369.175 C 92.600 369.482,92.870 369.807,93.200 369.897 C 93.733 370.043,93.733 370.014,93.200 369.637 C 92.338 369.027,93.319 369.101,94.548 369.739 C 95.120 370.036,95.471 370.396,95.327 370.539 C 95.184 370.683,95.390 370.800,95.786 370.800 C 96.540 370.800,99.303 372.336,99.533 372.883 C 99.607 373.057,99.932 373.200,100.257 373.200 C 100.582 373.200,100.744 373.367,100.618 373.571 C 100.491 373.776,100.796 374.001,101.294 374.071 C 101.900 374.157,102.161 374.432,102.082 374.900 C 102.018 375.285,102.163 375.600,102.406 375.600 C 102.649 375.600,102.736 375.420,102.600 375.200 C 102.206 374.562,102.926 374.730,104.924 375.741 C 105.947 376.259,106.667 376.799,106.525 376.941 C 106.383 377.084,106.667 377.200,107.157 377.200 C 107.649 377.200,107.937 377.379,107.800 377.600 C 107.660 377.827,107.996 378.000,108.576 378.000 C 109.139 378.000,109.600 378.160,109.600 378.356 C 109.600 378.551,109.825 378.686,110.100 378.656 C 110.375 378.625,111.590 379.086,112.800 379.679 C 114.010 380.273,116.755 381.567,118.900 382.554 C 121.045 383.541,122.800 384.524,122.800 384.737 C 122.800 384.951,123.115 385.043,123.500 384.942 C 123.885 384.842,125.411 385.308,126.891 385.980 C 128.371 386.651,129.901 387.204,130.291 387.209 C 130.681 387.214,131.450 387.570,132.000 388.000 C 132.550 388.430,133.257 388.786,133.572 388.791 C 134.250 388.802,136.712 389.553,137.695 390.049 C 138.077 390.242,138.741 390.400,139.171 390.400 C 139.601 390.400,140.064 390.580,140.200 390.800 C 140.336 391.020,140.789 391.200,141.208 391.200 C 141.626 391.200,142.195 391.443,142.472 391.739 C 142.750 392.036,143.309 392.192,143.714 392.086 C 144.120 391.980,144.846 392.072,145.326 392.291 C 146.785 392.956,149.011 393.600,149.848 393.600 C 150.284 393.600,150.837 393.797,151.077 394.037 C 151.317 394.277,152.028 394.536,152.657 394.612 C 153.972 394.771,156.061 395.281,159.200 396.211 C 160.410 396.569,162.030 396.948,162.800 397.053 C 163.570 397.159,164.470 397.354,164.800 397.488 C 165.484 397.765,166.276 397.879,168.024 397.950 C 168.728 397.979,169.142 398.170,169.000 398.400 C 168.842 398.655,170.051 398.800,172.343 398.800 C 174.318 398.800,175.993 398.971,176.067 399.180 C 176.143 399.397,180.632 399.681,186.514 399.842 L 196.827 400.124 196.457 399.162 C 196.253 398.633,194.377 394.690,192.288 390.400 C 188.336 382.283,185.175 375.307,181.597 366.800 C 180.440 364.050,179.091 360.900,178.600 359.800 C 173.953 349.405,165.574 323.193,163.127 311.400 C 161.946 305.707,161.209 301.781,160.800 299.000 C 160.606 297.680,160.155 294.800,159.799 292.600 C 159.010 287.721,158.861 271.574,159.570 267.600 C 160.957 259.811,161.612 257.374,163.685 252.274 C 165.643 247.457,165.864 247.606,160.587 250.183 M234.800 248.322 C 234.800 248.488,235.419 250.091,236.174 251.883 C 238.137 256.536,239.084 260.022,240.382 267.367 C 241.036 271.067,240.909 287.559,240.191 292.235 C 239.856 294.416,239.400 297.460,239.178 299.000 C 236.939 314.526,227.271 347.425,221.193 360.200 C 220.775 361.080,219.697 363.600,218.798 365.800 C 217.899 368.000,216.721 370.734,216.182 371.875 C 215.642 373.016,215.200 374.058,215.200 374.190 C 215.200 374.626,211.572 382.469,207.727 390.345 C 205.647 394.605,203.772 398.547,203.560 399.105 L 203.174 400.119 213.287 399.833 C 218.849 399.675,223.571 399.378,223.780 399.173 C 223.989 398.968,225.564 398.800,227.280 398.800 C 229.093 398.800,230.400 398.632,230.400 398.400 C 230.400 398.178,231.467 398.000,232.800 398.000 C 234.133 398.000,235.200 397.822,235.200 397.600 C 235.200 397.380,236.010 397.200,237.000 397.200 C 237.990 397.200,238.800 397.020,238.800 396.800 C 238.800 396.580,239.484 396.400,240.320 396.400 C 241.156 396.400,242.011 396.235,242.220 396.034 C 242.429 395.832,243.230 395.617,244.000 395.555 C 244.770 395.492,245.580 395.315,245.800 395.160 C 246.020 395.005,246.740 394.816,247.400 394.740 C 248.060 394.665,248.690 394.486,248.800 394.342 C 248.910 394.199,249.540 394.025,250.200 393.956 C 250.860 393.887,251.580 393.721,251.800 393.587 C 252.020 393.453,253.010 393.111,254.000 392.826 C 254.990 392.542,256.160 392.157,256.600 391.971 C 257.260 391.693,259.542 391.047,261.400 390.614 C 262.198 390.428,263.423 389.947,264.501 389.398 C 265.409 388.934,265.688 388.928,266.093 389.361 C 266.494 389.790,266.658 389.740,266.992 389.088 C 267.216 388.649,267.531 388.306,267.690 388.326 C 267.850 388.346,268.467 388.110,269.062 387.802 C 269.656 387.493,270.291 387.332,270.471 387.444 C 270.652 387.556,270.800 387.457,270.800 387.224 C 270.800 386.991,271.169 386.800,271.619 386.800 C 272.070 386.800,273.184 386.440,274.094 386.000 C 275.005 385.560,276.076 385.200,276.475 385.200 C 276.874 385.200,277.200 385.020,277.200 384.800 C 277.200 384.580,277.545 384.400,277.967 384.400 C 278.388 384.400,278.793 384.265,278.867 384.100 C 279.078 383.625,282.241 382.000,282.954 382.000 C 283.310 382.000,283.600 381.820,283.600 381.600 C 283.600 381.380,283.960 381.200,284.400 381.200 C 284.840 381.200,285.200 381.020,285.200 380.800 C 285.200 380.580,285.472 380.400,285.805 380.400 C 286.445 380.400,288.047 379.605,288.422 379.102 C 288.545 378.938,289.121 378.764,289.703 378.716 C 290.286 378.668,290.683 378.550,290.587 378.454 C 290.387 378.254,292.300 377.200,292.862 377.200 C 293.066 377.200,293.620 376.840,294.092 376.400 C 294.564 375.960,295.277 375.600,295.675 375.600 C 296.074 375.600,296.400 375.420,296.400 375.200 C 296.400 374.980,296.591 374.800,296.824 374.800 C 297.057 374.800,297.136 374.980,297.000 375.200 C 296.864 375.420,296.921 375.600,297.127 375.600 C 297.635 375.600,298.441 374.591,298.197 374.263 C 298.088 374.118,298.120 374.090,298.268 374.201 C 298.415 374.311,298.896 374.086,299.336 373.701 C 299.777 373.315,300.006 373.225,299.845 373.500 C 299.365 374.321,300.176 374.066,300.800 373.200 C 301.117 372.760,301.550 372.400,301.763 372.400 C 301.975 372.400,302.594 371.995,303.139 371.500 C 303.683 371.005,303.999 370.825,303.841 371.100 C 303.358 371.938,304.172 371.656,304.707 370.800 C 304.982 370.360,305.486 370.000,305.827 370.000 C 306.168 370.000,306.336 369.820,306.200 369.600 C 306.058 369.369,306.430 369.200,307.080 369.200 C 307.774 369.200,308.400 368.893,308.707 368.400 C 308.982 367.960,309.565 367.600,310.003 367.600 C 310.442 367.600,310.800 367.409,310.800 367.176 C 310.800 366.943,310.575 366.888,310.300 367.053 C 309.960 367.257,309.976 367.137,310.349 366.677 C 310.943 365.944,311.402 365.749,311.000 366.400 C 310.496 367.215,311.311 366.766,312.057 365.818 C 312.553 365.187,313.062 364.926,313.480 365.086 C 313.915 365.253,314.035 365.181,313.842 364.868 C 313.668 364.587,313.802 364.400,314.176 364.400 C 314.519 364.400,314.800 364.251,314.800 364.068 C 314.800 363.885,315.655 363.127,316.700 362.383 C 317.745 361.640,319.230 360.435,320.000 359.706 C 320.828 358.922,321.686 358.451,322.101 358.553 C 322.486 358.648,322.706 358.571,322.589 358.383 C 322.473 358.194,323.029 357.446,323.824 356.720 C 325.720 354.991,326.516 354.549,326.707 355.122 C 326.879 355.638,328.400 354.860,328.400 354.255 C 328.400 354.061,328.146 354.113,327.836 354.370 C 327.501 354.648,327.177 354.686,327.040 354.464 C 326.663 353.854,329.505 351.916,330.372 352.191 C 330.791 352.324,331.267 352.215,331.432 351.948 C 331.645 351.603,331.511 351.547,330.966 351.754 C 330.087 352.086,333.662 348.329,336.535 345.902 C 337.869 344.775,338.562 344.415,338.765 344.743 C 338.975 345.083,339.267 344.989,339.791 344.409 C 340.194 343.964,340.331 343.600,340.095 343.600 C 339.860 343.600,339.586 343.825,339.488 344.100 C 339.390 344.375,339.203 344.503,339.072 344.384 C 338.942 344.266,340.374 342.594,342.255 340.671 C 344.889 337.977,345.603 337.015,345.360 336.486 C 345.186 336.109,344.919 331.300,344.767 325.800 C 344.001 298.122,334.028 286.533,303.000 277.264 C 300.800 276.607,296.463 275.244,293.361 274.235 C 290.260 273.226,287.461 272.400,287.141 272.400 C 286.822 272.400,286.389 272.248,286.180 272.062 C 285.971 271.876,283.372 270.952,280.403 270.008 C 277.435 269.065,274.460 267.877,273.793 267.367 C 272.755 266.576,255.915 258.000,255.398 258.000 C 255.298 258.000,251.028 255.911,245.908 253.357 C 235.836 248.333,234.800 247.864,234.800 248.322 M58.800 342.967 C 58.800 343.388,60.005 344.528,60.221 344.312 C 60.322 344.211,60.044 343.802,59.602 343.402 C 59.161 343.003,58.800 342.807,58.800 342.967 " stroke="none" fill="#3e6c8e" fill-rule="evenodd"></path><path id="path1" d="M175.000 0.278 C 174.340 0.384,173.540 0.680,173.223 0.935 C 172.763 1.306,172.715 1.286,172.985 0.838 C 173.371 0.199,170.832 0.512,170.420 1.154 C 170.299 1.343,169.705 1.442,169.100 1.376 C 168.455 1.305,167.997 1.450,167.994 1.727 C 167.990 2.038,167.870 2.014,167.644 1.657 C 167.267 1.062,164.800 1.376,164.800 2.019 C 164.800 2.215,164.529 2.271,164.197 2.143 C 163.433 1.850,160.717 2.342,160.957 2.731 C 161.056 2.890,160.206 3.016,159.068 3.011 C 157.521 3.003,157.029 3.138,157.116 3.549 C 157.189 3.890,157.008 4.012,156.642 3.872 C 156.317 3.747,155.964 3.860,155.857 4.122 C 155.713 4.477,155.655 4.472,155.632 4.100 C 155.590 3.446,154.060 3.485,152.820 4.171 C 152.281 4.469,151.608 4.624,151.324 4.515 C 151.039 4.406,150.701 4.592,150.572 4.928 C 150.402 5.372,149.976 5.481,149.020 5.326 C 148.257 5.202,147.586 5.299,147.427 5.556 C 147.276 5.800,146.728 6.000,146.209 6.000 C 144.952 6.000,143.956 6.405,144.209 6.814 C 144.321 6.996,144.202 7.275,143.945 7.434 C 143.652 7.615,143.584 7.550,143.762 7.262 C 143.949 6.958,143.692 6.800,143.011 6.800 C 142.441 6.800,141.876 7.059,141.754 7.375 C 141.633 7.691,141.279 7.852,140.967 7.732 C 140.017 7.368,138.889 7.954,139.611 8.436 C 140.023 8.712,139.764 8.754,138.746 8.579 C 137.862 8.427,137.186 8.499,137.022 8.764 C 136.874 9.004,136.401 9.200,135.971 9.200 C 135.541 9.200,134.877 9.359,134.495 9.553 C 133.620 9.998,132.021 10.656,131.075 10.961 C 130.651 11.097,130.469 11.388,130.636 11.659 C 130.815 11.948,130.749 12.016,130.462 11.838 C 130.203 11.678,129.997 11.783,129.994 12.076 C 129.989 12.467,129.894 12.452,129.620 12.018 C 129.329 11.559,129.058 11.530,128.326 11.882 C 127.817 12.127,127.074 12.433,126.675 12.561 C 126.276 12.689,126.037 12.937,126.145 13.111 C 126.252 13.285,125.859 13.421,125.270 13.413 C 124.676 13.406,124.238 13.604,124.286 13.859 C 124.335 14.119,124.060 14.236,123.651 14.129 C 123.255 14.026,122.265 14.314,121.453 14.770 C 120.640 15.227,119.720 15.600,119.408 15.600 C 119.095 15.600,118.696 15.825,118.520 16.100 C 118.344 16.375,117.840 16.600,117.400 16.600 C 116.960 16.600,116.634 16.793,116.676 17.029 C 116.718 17.265,116.358 17.445,115.876 17.429 C 115.394 17.413,115.034 17.593,115.076 17.829 C 115.118 18.065,114.758 18.245,114.276 18.229 C 113.794 18.213,113.441 18.414,113.492 18.675 C 113.545 18.951,113.252 19.087,112.798 19.000 C 112.335 18.910,111.780 19.179,111.448 19.652 C 111.092 20.161,110.827 20.280,110.725 19.976 C 110.629 19.688,110.020 20.038,109.204 20.848 C 108.455 21.592,107.978 21.975,108.145 21.700 C 108.311 21.425,108.258 21.200,108.027 21.200 C 107.796 21.200,107.382 21.560,107.107 22.000 C 106.832 22.440,106.274 22.800,105.866 22.800 C 105.457 22.800,104.556 23.205,103.862 23.699 C 103.168 24.194,102.510 24.623,102.400 24.653 C 101.099 25.007,100.400 25.357,100.400 25.655 C 100.400 25.854,99.905 26.238,99.300 26.508 C 98.695 26.779,97.871 27.360,97.470 27.800 C 97.068 28.240,96.853 28.375,96.993 28.100 C 97.370 27.358,96.881 27.493,95.908 28.400 C 95.436 28.840,94.813 29.200,94.525 29.200 C 94.236 29.200,94.000 29.380,94.000 29.600 C 94.000 29.820,93.764 30.000,93.475 30.000 C 93.187 30.000,92.516 30.405,91.985 30.900 C 91.453 31.395,90.835 31.808,90.609 31.818 C 90.384 31.828,90.231 32.013,90.270 32.228 C 90.308 32.444,89.805 32.927,89.151 33.302 C 88.497 33.677,88.072 33.808,88.205 33.592 C 88.338 33.376,88.257 33.200,88.024 33.200 C 87.791 33.200,87.600 33.470,87.600 33.800 C 87.600 34.130,87.395 34.400,87.144 34.400 C 86.893 34.400,86.430 34.715,86.114 35.100 C 85.799 35.485,85.669 35.552,85.826 35.248 C 86.017 34.879,85.928 34.763,85.556 34.898 C 85.250 35.009,85.049 35.316,85.110 35.580 C 85.170 35.844,85.080 35.980,84.910 35.883 C 84.454 35.623,82.185 37.034,82.287 37.514 C 82.335 37.739,82.076 38.166,81.710 38.462 C 81.151 38.915,81.099 38.913,81.379 38.448 C 81.610 38.064,81.542 37.958,81.156 38.098 C 80.850 38.209,80.649 38.516,80.710 38.780 C 80.770 39.044,80.634 39.145,80.407 39.004 C 79.727 38.584,74.065 42.964,74.310 43.721 C 74.370 43.907,74.266 43.964,74.078 43.848 C 73.649 43.583,70.726 45.957,70.979 46.366 C 71.081 46.531,70.922 46.667,70.626 46.667 C 69.775 46.667,67.624 48.545,67.817 49.121 C 67.913 49.407,67.816 49.533,67.602 49.401 C 67.174 49.137,64.400 51.724,64.400 52.387 C 64.400 52.614,64.130 52.800,63.800 52.800 C 63.470 52.800,63.200 52.980,63.200 53.200 C 63.200 53.420,62.975 53.555,62.700 53.500 C 62.425 53.445,62.249 53.638,62.310 53.930 C 62.370 54.221,62.259 54.360,62.063 54.239 C 61.591 53.947,60.312 55.379,60.699 55.766 C 60.865 55.931,60.738 56.007,60.418 55.933 C 60.098 55.860,59.828 56.010,59.818 56.267 C 59.795 56.864,59.264 57.395,58.667 57.418 C 58.410 57.428,58.237 57.629,58.282 57.865 C 58.366 58.299,56.562 60.200,56.068 60.200 C 55.920 60.200,55.849 60.348,55.910 60.530 C 55.970 60.711,55.848 60.753,55.638 60.623 C 55.249 60.383,54.632 61.074,54.588 61.800 C 54.575 62.020,54.359 62.159,54.108 62.109 C 53.858 62.059,53.056 62.772,52.327 63.694 C 51.597 64.616,51.270 65.207,51.600 65.008 C 52.118 64.696,52.125 64.739,51.651 65.323 C 51.349 65.695,50.854 66.000,50.551 66.000 C 50.248 66.000,50.000 66.276,50.000 66.613 C 50.000 66.949,49.685 67.344,49.300 67.490 C 48.226 67.897,47.600 68.659,47.600 69.559 C 47.600 70.080,47.405 70.300,47.059 70.167 C 46.547 69.971,45.055 71.728,44.992 72.600 C 44.976 72.820,44.754 72.957,44.498 72.905 C 43.897 72.783,41.936 75.345,42.086 76.057 C 42.149 76.356,41.985 76.558,41.722 76.507 C 41.459 76.456,40.838 76.984,40.343 77.681 C 39.549 78.796,39.529 78.913,40.177 78.664 C 40.798 78.426,40.835 78.476,40.411 78.986 C 40.135 79.319,39.750 79.493,39.555 79.372 C 39.360 79.251,39.200 79.433,39.200 79.776 C 39.200 80.119,38.975 80.355,38.700 80.300 C 38.425 80.245,38.225 80.513,38.255 80.896 C 38.285 81.278,38.170 81.505,37.999 81.399 C 37.661 81.190,36.225 83.159,36.509 83.442 C 36.603 83.537,36.072 84.260,35.327 85.050 C 34.256 86.186,34.070 86.602,34.435 87.043 C 34.805 87.488,34.736 87.600,34.096 87.600 C 33.383 87.600,32.625 88.789,32.757 89.700 C 32.781 89.865,32.515 90.000,32.167 90.000 C 31.818 90.000,31.609 90.225,31.702 90.500 C 31.794 90.775,31.584 91.238,31.235 91.530 C 30.857 91.845,30.828 91.941,31.162 91.768 C 31.531 91.576,31.626 91.635,31.438 91.938 C 31.281 92.192,30.893 92.400,30.576 92.400 C 30.050 92.400,29.820 93.088,29.959 94.252 C 29.989 94.500,29.690 94.788,29.296 94.891 C 28.902 94.994,28.549 95.484,28.512 95.979 C 28.474 96.474,28.119 97.126,27.722 97.427 C 27.325 97.728,27.175 97.980,27.389 97.987 C 27.603 97.994,27.375 98.282,26.882 98.627 C 26.390 98.972,26.081 99.407,26.196 99.593 C 26.311 99.780,25.985 100.443,25.471 101.066 C 24.630 102.086,24.220 102.838,24.041 103.690 C 24.007 103.850,23.529 104.466,22.980 105.060 C 22.430 105.653,22.045 106.333,22.125 106.569 C 22.205 106.806,21.984 107.238,21.635 107.530 C 21.138 107.944,21.131 107.995,21.600 107.765 C 21.930 107.603,21.795 107.917,21.300 108.461 C 20.312 109.549,20.118 110.193,20.900 109.789 C 21.175 109.647,20.950 109.922,20.400 110.400 C 19.850 110.878,19.625 111.153,19.900 111.011 C 20.706 110.594,20.475 111.206,19.500 112.066 C 19.005 112.503,18.825 112.747,19.100 112.607 C 19.905 112.198,19.676 112.805,18.700 113.666 C 18.205 114.103,18.025 114.347,18.300 114.207 C 19.145 113.777,18.853 114.575,17.961 115.132 C 17.415 115.472,17.192 115.927,17.323 116.429 C 17.434 116.853,17.375 117.108,17.190 116.994 C 17.006 116.880,16.742 116.970,16.604 117.193 C 16.466 117.417,16.543 117.600,16.776 117.600 C 17.009 117.600,17.200 117.791,17.200 118.024 C 17.200 118.257,17.046 118.352,16.857 118.235 C 16.413 117.961,14.633 121.407,14.953 121.923 C 15.086 122.139,14.926 122.419,14.598 122.546 C 14.269 122.672,14.000 123.130,14.000 123.564 C 14.000 123.998,13.805 124.473,13.568 124.620 C 13.330 124.767,13.244 125.319,13.376 125.846 C 13.508 126.374,13.478 126.783,13.308 126.755 C 12.505 126.625,12.258 126.852,12.800 127.224 C 13.313 127.576,13.270 127.727,12.500 128.266 C 12.005 128.614,11.600 129.238,11.600 129.654 C 11.600 130.070,11.375 130.774,11.100 131.218 C 10.693 131.875,10.703 132.088,11.154 132.369 C 11.596 132.644,11.535 132.807,10.854 133.171 C 10.384 133.422,10.000 133.971,10.000 134.390 C 10.000 134.810,9.803 135.275,9.562 135.423 C 9.322 135.572,9.205 136.114,9.303 136.627 C 9.409 137.180,9.261 137.644,8.941 137.767 C 8.643 137.882,8.400 138.441,8.400 139.011 C 8.400 139.692,8.558 139.949,8.862 139.762 C 9.150 139.584,9.215 139.652,9.034 139.945 C 8.875 140.202,8.577 140.309,8.372 140.183 C 8.168 140.056,7.987 140.098,7.970 140.276 C 7.861 141.464,7.520 142.640,7.189 142.971 C 6.679 143.481,6.687 144.800,7.200 144.800 C 7.420 144.800,7.243 145.157,6.807 145.593 C 6.280 146.120,6.060 146.784,6.152 147.571 C 6.238 148.308,6.084 148.836,5.745 148.966 C 5.062 149.228,5.029 150.659,5.700 150.951 C 6.043 151.101,5.918 151.378,5.300 151.833 C 4.360 152.527,4.051 154.400,4.876 154.400 C 5.139 154.400,5.032 154.635,4.639 154.922 C 3.954 155.423,3.180 158.081,2.985 160.600 C 2.934 161.260,2.672 162.340,2.404 163.000 C 2.057 163.851,2.027 164.636,2.302 165.700 C 2.601 166.858,2.571 167.200,2.173 167.200 C 1.447 167.200,1.019 171.090,1.584 172.565 C 1.919 173.440,1.912 173.838,1.556 174.165 C 1.209 174.484,1.158 174.467,1.365 174.100 C 1.520 173.825,1.479 173.600,1.273 173.600 C 0.795 173.600,0.391 178.155,0.853 178.333 C 1.376 178.534,1.269 179.505,0.700 179.735 C 0.300 179.896,0.300 179.943,0.700 179.968 C 0.975 179.986,1.200 180.191,1.200 180.424 C 1.200 180.657,1.038 180.747,0.840 180.625 C 0.202 180.231,0.056 185.446,0.206 203.200 C 0.376 223.327,0.329 222.000,0.874 222.000 C 1.140 222.000,1.112 222.224,0.800 222.600 C 0.456 223.015,0.441 223.200,0.751 223.200 C 0.998 223.200,1.200 223.481,1.200 223.824 C 1.200 224.167,1.020 224.336,0.800 224.200 C 0.573 224.060,0.421 224.353,0.447 224.876 C 0.504 225.988,1.083 228.366,1.159 227.800 C 1.188 227.580,1.387 227.670,1.600 228.000 C 2.106 228.783,2.106 229.313,1.600 229.000 C 1.380 228.864,1.200 228.943,1.200 229.176 C 1.200 229.409,1.425 229.603,1.700 229.606 C 2.092 229.611,2.094 229.679,1.709 229.924 C 1.180 230.260,1.454 234.400,2.005 234.400 C 2.167 234.400,2.312 235.165,2.328 236.100 C 2.380 239.230,2.875 242.054,3.408 242.258 C 3.742 242.387,3.875 242.924,3.773 243.730 C 3.595 245.124,3.902 246.508,4.329 246.244 C 4.478 246.152,4.624 246.734,4.653 247.538 C 4.740 249.950,5.475 252.519,6.237 253.076 C 6.660 253.386,6.746 253.600,6.449 253.600 C 6.152 253.600,6.001 253.970,6.082 254.500 C 6.157 254.995,6.395 255.370,6.609 255.333 C 6.824 255.297,7.030 255.837,7.066 256.533 C 7.178 258.660,7.673 260.453,8.206 260.658 C 8.484 260.764,8.620 261.201,8.509 261.628 C 8.397 262.055,8.503 262.642,8.745 262.934 C 8.986 263.225,9.251 263.809,9.332 264.231 C 9.485 265.029,9.827 266.027,10.416 267.400 C 10.604 267.840,10.824 268.560,10.903 269.000 C 10.983 269.440,11.218 269.770,11.426 269.733 C 11.634 269.696,11.803 270.236,11.802 270.933 C 11.801 271.642,11.995 272.164,12.243 272.119 C 12.491 272.074,12.638 272.471,12.578 273.024 C 12.505 273.681,12.742 274.155,13.289 274.448 C 13.894 274.771,13.976 274.968,13.603 275.198 C 13.325 275.370,13.223 275.714,13.376 275.962 C 13.530 276.210,13.821 276.311,14.023 276.186 C 14.225 276.061,14.280 276.248,14.144 276.602 C 13.996 276.988,14.237 277.561,14.749 278.038 C 15.660 278.887,15.892 279.428,15.148 278.968 C 14.871 278.797,14.774 278.904,14.898 279.244 C 15.009 279.550,15.291 279.759,15.524 279.709 C 15.757 279.658,15.915 280.108,15.874 280.709 C 15.831 281.346,15.991 281.764,16.259 281.714 C 16.535 281.662,16.633 281.951,16.506 282.437 C 16.350 283.034,16.528 283.308,17.181 283.479 C 17.697 283.614,17.886 283.823,17.634 283.979 C 17.135 284.287,19.793 289.855,20.371 289.712 C 20.566 289.664,20.680 289.934,20.625 290.311 C 20.497 291.183,21.780 293.524,23.044 294.724 C 23.579 295.233,23.924 295.799,23.811 295.983 C 23.534 296.430,24.386 297.998,25.515 299.120 C 26.018 299.620,26.321 300.204,26.189 300.418 C 25.948 300.808,26.962 302.105,27.269 301.798 C 27.359 301.708,27.462 302.029,27.498 302.511 C 27.535 302.994,27.752 303.451,27.982 303.527 C 28.212 303.604,28.400 303.900,28.400 304.185 C 28.400 304.469,28.805 305.003,29.300 305.370 C 29.795 305.737,29.992 305.938,29.737 305.818 C 29.387 305.652,29.387 305.837,29.737 306.579 C 29.992 307.118,30.560 307.658,31.000 307.779 C 31.579 307.939,31.662 308.089,31.299 308.324 C 30.914 308.573,30.960 308.826,31.499 309.424 C 31.885 309.851,32.455 310.695,32.768 311.300 C 33.080 311.905,33.485 312.400,33.668 312.400 C 33.850 312.400,34.000 312.583,34.000 312.806 C 34.000 313.499,36.884 317.595,37.224 317.385 C 37.400 317.276,37.675 317.398,37.834 317.655 C 38.015 317.948,37.950 318.016,37.662 317.838 C 36.946 317.396,37.107 317.876,38.253 319.609 C 38.832 320.484,39.597 321.203,39.953 321.206 C 40.473 321.211,40.493 321.280,40.052 321.559 C 39.594 321.850,39.600 321.963,40.094 322.253 C 40.418 322.444,40.910 323.031,41.187 323.558 C 41.909 324.933,44.836 328.025,45.201 327.799 C 45.371 327.694,45.485 327.922,45.455 328.304 C 45.421 328.739,45.662 328.979,46.100 328.944 C 46.485 328.914,46.800 329.139,46.800 329.444 C 46.800 329.750,46.980 330.000,47.200 330.000 C 47.420 330.000,47.600 330.339,47.600 330.753 C 47.600 331.168,47.945 331.597,48.366 331.707 C 48.787 331.817,49.197 332.333,49.276 332.854 C 49.354 333.374,49.653 333.751,49.939 333.690 C 50.225 333.630,50.360 333.741,50.239 333.937 C 50.118 334.133,50.375 334.615,50.809 335.009 C 51.244 335.402,51.600 335.580,51.600 335.404 C 51.600 335.227,52.086 335.604,52.679 336.242 L 53.758 337.400 54.039 336.400 C 54.194 335.850,54.342 331.710,54.368 327.200 C 54.469 309.983,58.370 299.770,68.534 290.115 C 75.551 283.449,77.881 282.346,98.800 275.783 C 105.510 273.678,113.806 271.065,117.236 269.978 C 120.665 268.890,123.655 268.000,123.880 268.000 C 124.105 268.000,124.988 267.522,125.844 266.938 C 127.264 265.969,153.776 252.595,160.257 249.579 C 161.766 248.877,163.665 247.966,164.478 247.554 C 166.529 246.516,166.569 246.936,164.794 250.865 C 160.199 261.037,158.133 280.593,160.321 293.200 C 160.607 294.850,161.116 297.910,161.451 300.000 C 161.997 303.401,163.061 308.928,164.031 313.400 C 164.387 315.040,165.763 320.378,166.428 322.700 C 167.391 326.065,167.624 326.890,167.952 328.100 C 168.145 328.815,168.755 330.750,169.306 332.400 C 169.858 334.050,170.702 336.660,171.183 338.200 C 172.858 343.568,178.260 357.907,178.861 358.580 C 179.056 358.799,179.200 358.475,179.200 357.818 C 179.200 357.189,179.842 353.958,180.626 350.638 C 183.866 336.923,184.450 334.509,184.992 332.600 C 189.858 315.472,189.801 316.461,186.200 311.686 C 185.100 310.228,183.450 308.299,182.532 307.399 C 179.820 304.739,178.545 299.600,180.598 299.600 C 180.820 299.600,181.520 299.052,182.152 298.382 C 182.784 297.713,183.988 296.814,184.827 296.386 C 185.667 295.958,186.837 294.973,187.429 294.198 C 188.020 293.423,189.101 292.505,189.830 292.159 C 190.559 291.813,192.111 290.638,193.278 289.548 C 194.445 288.459,195.805 287.221,196.300 286.798 C 197.731 285.575,197.570 283.012,196.012 282.206 C 195.358 281.868,194.616 281.189,194.363 280.696 C 193.866 279.730,192.782 278.498,190.758 276.600 C 187.735 273.765,186.297 272.119,185.793 270.917 C 185.445 270.087,184.763 269.428,183.861 269.051 C 182.849 268.628,182.257 267.995,181.698 266.735 C 181.275 265.781,180.134 264.330,179.164 263.512 C 178.194 262.693,176.818 261.523,176.107 260.912 C 175.396 260.300,174.606 259.170,174.351 258.400 C 173.950 257.188,173.098 256.085,170.880 253.910 C 166.635 249.746,166.739 250.182,166.442 235.265 L 166.200 223.129 165.133 222.265 C 164.547 221.789,162.691 220.519,161.009 219.442 C 159.327 218.366,157.647 217.043,157.275 216.503 C 156.904 215.963,156.052 214.864,155.382 214.060 C 154.712 213.257,153.855 212.109,153.478 211.508 C 153.101 210.908,152.256 210.139,151.600 209.800 C 150.942 209.460,150.024 208.426,149.550 207.492 C 149.078 206.561,148.222 205.257,147.646 204.593 C 147.071 203.930,146.004 202.130,145.275 200.593 C 144.546 199.057,143.261 196.450,142.419 194.800 C 141.531 193.058,140.767 190.878,140.597 189.600 C 140.436 188.390,139.974 186.320,139.571 185.000 C 139.167 183.680,138.492 180.666,138.069 178.302 C 137.170 173.266,136.994 172.995,134.072 172.145 C 131.351 171.355,128.719 169.747,126.610 167.588 L 125.020 165.960 124.864 155.444 C 124.774 149.396,124.876 144.142,125.102 143.080 C 125.384 141.756,125.369 141.190,125.048 141.082 C 124.229 140.808,124.481 95.335,125.323 91.509 C 129.415 72.916,143.464 59.849,162.200 57.210 C 168.522 56.320,233.958 56.698,236.834 57.642 C 244.743 60.237,250.400 67.742,250.400 75.639 C 250.400 79.361,252.631 81.127,257.915 81.588 C 267.295 82.405,274.220 88.985,275.265 98.072 C 275.492 100.044,275.581 114.471,275.484 133.476 L 275.321 165.552 274.160 167.007 C 271.866 169.882,270.838 170.678,268.525 171.370 C 264.417 172.597,264.068 172.807,263.215 174.569 C 262.767 175.495,262.400 176.643,262.400 177.121 C 262.400 177.598,262.229 178.756,262.020 179.694 C 261.811 180.632,261.169 183.560,260.594 186.200 C 259.474 191.344,258.180 195.429,257.362 196.400 C 257.084 196.730,256.471 197.810,255.999 198.800 C 254.766 201.386,253.480 203.683,252.474 205.095 C 251.993 205.771,251.600 206.439,251.600 206.579 C 251.600 208.226,241.028 218.833,236.565 221.663 C 233.719 223.468,233.600 224.028,233.600 235.576 C 233.600 248.889,232.442 253.983,229.411 254.003 C 228.933 254.006,227.575 255.975,226.629 258.034 C 226.225 258.917,225.354 259.816,224.368 260.370 C 223.487 260.865,222.298 262.020,221.726 262.935 C 220.740 264.515,219.217 266.360,216.161 269.677 C 215.412 270.489,214.800 271.334,214.800 271.555 C 214.800 271.775,214.073 272.461,213.184 273.078 C 212.102 273.829,211.070 275.125,210.060 277.000 C 208.744 279.442,208.276 279.940,206.398 280.897 C 202.159 283.058,202.305 286.020,206.756 288.114 C 207.722 288.569,208.592 289.224,208.690 289.570 C 208.787 289.917,209.589 290.740,210.471 291.400 C 211.352 292.060,212.546 293.050,213.123 293.600 C 213.700 294.150,215.347 295.413,216.784 296.406 C 219.154 298.045,219.447 298.404,219.950 300.283 L 220.503 302.354 218.552 305.017 C 217.478 306.482,216.353 308.158,216.050 308.740 C 215.748 309.323,215.017 310.340,214.427 311.000 C 210.784 315.070,210.386 316.775,211.943 321.624 C 213.590 326.751,215.446 333.773,215.790 336.176 C 215.945 337.264,216.408 339.007,216.820 340.050 C 217.231 341.093,217.771 343.174,218.021 344.673 C 218.270 346.173,218.886 348.750,219.389 350.400 C 219.892 352.050,220.432 354.635,220.588 356.144 C 220.923 359.367,221.065 359.280,222.777 354.800 C 223.491 352.930,224.227 351.040,224.411 350.600 C 225.474 348.062,231.277 330.744,232.387 326.800 C 232.665 325.810,233.031 324.550,233.200 324.000 C 233.551 322.859,234.390 319.643,235.575 314.900 C 240.486 295.240,241.766 274.229,238.808 261.800 C 237.351 255.680,236.644 253.633,234.571 249.543 C 232.730 245.910,231.345 245.361,260.800 259.932 C 266.630 262.816,272.384 265.811,273.587 266.588 C 274.789 267.364,276.049 268.003,276.387 268.006 C 276.724 268.009,277.810 268.295,278.800 268.641 C 279.790 268.987,286.540 271.129,293.800 273.401 C 301.060 275.672,308.170 277.912,309.600 278.379 C 311.030 278.846,313.370 279.608,314.800 280.074 C 334.738 286.567,345.589 302.795,345.606 326.143 C 345.612 334.268,345.821 336.005,346.728 335.445 C 346.957 335.303,347.261 335.374,347.402 335.604 C 347.549 335.842,348.510 335.152,349.644 333.994 C 350.756 332.858,351.506 331.772,351.352 331.522 C 351.193 331.265,351.257 331.188,351.504 331.340 C 351.988 331.640,354.659 328.959,354.490 328.342 C 354.430 328.121,354.556 328.049,354.770 328.181 C 354.984 328.314,355.377 328.016,355.643 327.519 C 355.909 327.022,356.559 326.275,357.088 325.859 C 357.629 325.434,357.953 324.853,357.829 324.531 C 357.705 324.207,357.784 324.067,358.012 324.207 C 358.234 324.344,358.674 323.859,358.992 323.128 C 359.309 322.398,359.576 321.971,359.584 322.180 C 359.593 322.389,359.823 322.337,360.097 322.063 C 360.492 321.668,360.472 321.485,359.997 321.167 C 359.504 320.836,359.532 320.787,360.159 320.883 C 360.576 320.947,361.004 320.750,361.110 320.444 C 361.240 320.073,361.134 319.994,360.790 320.206 C 360.451 320.416,360.375 320.365,360.566 320.055 C 360.725 319.798,360.999 319.676,361.174 319.784 C 361.567 320.027,363.018 318.485,362.698 318.164 C 362.571 318.037,362.818 317.582,363.248 317.152 C 363.678 316.722,363.905 316.170,363.753 315.924 C 363.585 315.652,363.657 315.588,363.938 315.762 C 364.374 316.031,364.594 315.493,364.414 314.600 C 364.370 314.380,364.467 314.334,364.631 314.497 C 365.027 314.893,366.116 313.311,365.800 312.799 C 365.664 312.580,365.790 312.400,366.080 312.400 C 366.738 312.400,367.711 310.902,367.390 310.384 C 367.260 310.173,367.388 309.999,367.676 309.997 C 368.404 309.993,369.266 308.101,368.654 307.850 C 368.404 307.747,368.605 307.649,369.100 307.632 C 369.595 307.614,370.004 307.375,370.009 307.100 C 370.014 306.825,370.370 306.150,370.800 305.600 C 371.230 305.050,371.586 304.235,371.591 303.789 C 371.596 303.343,371.960 302.670,372.400 302.293 C 372.840 301.916,373.200 301.175,373.200 300.647 C 373.200 300.118,373.495 299.572,373.857 299.434 C 374.339 299.248,374.419 299.321,374.157 299.710 C 373.960 300.000,374.205 299.779,374.700 299.219 C 375.196 298.659,375.522 297.990,375.426 297.733 C 375.329 297.476,375.521 297.163,375.851 297.036 C 376.181 296.909,376.350 296.643,376.228 296.445 C 376.105 296.246,376.274 295.981,376.602 295.854 C 376.931 295.728,377.200 295.429,377.200 295.189 C 377.200 294.949,376.975 294.869,376.700 295.011 C 376.425 295.153,376.631 294.919,377.158 294.490 C 377.684 294.061,378.000 293.524,377.860 293.297 C 377.719 293.070,377.892 292.773,378.244 292.639 C 378.595 292.504,378.786 292.140,378.667 291.830 C 378.548 291.520,378.728 291.160,379.067 291.030 C 379.424 290.893,379.583 290.534,379.446 290.176 C 379.316 289.836,379.375 289.661,379.577 289.786 C 379.779 289.911,380.058 289.830,380.196 289.607 C 380.334 289.383,380.237 289.200,379.979 289.200 C 379.722 289.200,379.936 288.846,380.456 288.413 C 380.975 287.981,381.237 287.621,381.038 287.613 C 380.839 287.606,380.996 287.247,381.387 286.815 C 381.778 286.382,381.987 285.744,381.853 285.394 C 381.719 285.045,381.777 284.862,381.981 284.989 C 382.186 285.115,382.649 284.539,383.010 283.709 C 383.372 282.879,383.832 281.887,384.034 281.505 C 384.532 280.560,384.494 280.304,383.900 280.611 C 383.625 280.753,383.804 280.539,384.297 280.135 C 384.894 279.645,385.135 279.096,385.018 278.489 C 384.918 277.973,385.007 277.681,385.224 277.815 C 385.434 277.944,385.694 277.769,385.803 277.425 C 385.911 277.081,386.117 276.485,386.260 276.100 C 386.404 275.715,386.571 275.151,386.633 274.848 C 386.694 274.544,386.937 274.103,387.172 273.868 C 387.768 273.272,387.712 272.295,387.100 272.611 C 386.825 272.753,387.033 272.517,387.562 272.086 C 388.150 271.608,388.432 271.060,388.286 270.680 C 388.155 270.338,388.321 269.831,388.656 269.554 C 388.998 269.270,389.189 268.652,389.091 268.144 C 388.996 267.647,389.092 267.276,389.305 267.320 C 389.517 267.364,389.765 266.954,389.857 266.409 C 389.948 265.863,390.198 265.242,390.411 265.029 C 390.625 264.815,390.800 264.237,390.800 263.744 C 390.800 263.251,391.000 262.724,391.244 262.573 C 391.512 262.407,391.596 261.724,391.455 260.849 C 391.301 259.890,391.347 259.599,391.590 259.989 C 392.113 260.827,392.574 259.546,392.235 258.196 C 392.060 257.499,392.138 257.226,392.492 257.297 C 392.792 257.358,393.054 256.909,393.131 256.200 C 393.203 255.540,393.428 254.829,393.631 254.620 C 394.139 254.097,394.097 252.400,393.576 252.400 C 393.343 252.400,393.266 252.217,393.404 251.993 C 393.542 251.770,393.818 251.687,394.016 251.810 C 394.625 252.186,394.949 249.932,394.473 248.629 C 394.073 247.533,394.086 247.481,394.592 248.149 C 395.130 248.858,395.173 248.837,395.403 247.749 C 395.536 247.117,395.838 245.835,396.075 244.899 C 396.311 243.964,396.403 242.573,396.279 241.808 C 396.124 240.854,396.202 240.446,396.527 240.509 C 396.821 240.566,397.020 239.994,397.052 239.000 C 397.081 238.120,397.306 236.893,397.552 236.274 C 398.112 234.866,398.144 232.664,397.600 233.000 C 397.355 233.151,397.200 232.530,397.200 231.400 C 397.200 230.384,397.350 229.645,397.533 229.759 C 397.717 229.872,397.786 230.558,397.687 231.282 C 397.552 232.266,397.624 232.490,397.968 232.165 C 398.627 231.544,399.022 228.800,398.452 228.800 C 398.204 228.800,398.003 228.215,398.006 227.500 C 398.011 226.542,398.110 226.355,398.384 226.788 C 398.932 227.655,399.085 227.269,399.275 224.542 C 399.410 222.588,399.334 222.127,398.902 222.293 C 398.536 222.433,398.438 222.864,398.603 223.613 C 398.749 224.279,398.660 224.840,398.379 225.013 C 398.034 225.226,397.979 224.791,398.171 223.351 C 398.314 222.278,398.566 220.050,398.732 218.400 C 399.017 215.576,399.348 215.309,399.726 217.600 C 399.817 218.150,399.916 217.385,399.946 215.900 C 399.979 214.232,399.838 213.200,399.576 213.200 C 399.343 213.200,399.281 213.408,399.438 213.662 C 399.616 213.950,399.548 214.015,399.255 213.834 C 398.998 213.675,398.922 213.332,399.087 213.072 C 399.569 212.312,399.611 190.846,399.134 188.641 C 398.772 186.966,398.804 186.630,399.355 186.321 C 400.102 185.903,400.220 184.183,399.532 183.758 C 399.219 183.565,399.147 183.685,399.315 184.122 C 399.452 184.481,399.393 184.881,399.183 185.011 C 398.965 185.145,398.800 184.590,398.800 183.721 C 398.800 182.882,398.633 181.611,398.428 180.897 C 398.074 179.664,398.221 179.417,399.239 179.532 C 399.586 179.572,399.167 175.466,398.781 175.048 C 398.603 174.855,398.513 175.710,398.582 176.948 C 398.650 178.187,398.548 179.200,398.353 179.200 C 397.857 179.200,397.910 174.250,398.412 173.748 C 398.888 173.272,398.477 168.800,397.957 168.800 C 397.775 168.800,397.709 169.025,397.811 169.300 C 397.913 169.575,397.842 170.340,397.655 171.000 C 397.350 172.069,397.296 171.945,397.157 169.861 C 397.070 168.575,397.135 167.439,397.300 167.338 C 397.465 167.236,397.600 167.373,397.600 167.643 C 397.600 167.913,397.704 168.030,397.830 167.903 C 398.328 167.406,397.515 163.947,396.951 164.163 C 396.595 164.300,396.400 164.088,396.400 163.564 C 396.400 163.118,396.580 162.864,396.800 163.000 C 397.305 163.312,397.311 162.311,396.816 160.446 C 396.605 159.651,396.319 158.283,396.180 157.406 C 395.930 155.822,395.925 155.819,395.401 156.798 L 394.873 157.784 394.937 156.692 C 394.971 156.092,395.097 155.600,395.215 155.600 C 395.678 155.600,395.580 153.226,395.105 152.922 C 394.827 152.745,394.569 151.880,394.532 151.000 C 394.431 148.615,393.962 146.760,393.407 146.547 C 393.136 146.443,392.965 145.897,393.027 145.332 C 393.188 143.866,392.401 142.320,391.629 142.586 C 391.232 142.722,391.295 142.571,391.800 142.175 C 392.595 141.552,392.594 141.543,391.656 140.774 C 391.136 140.348,390.911 140.000,391.156 140.000 C 391.709 140.000,391.745 138.537,391.200 138.200 C 390.980 138.064,390.800 137.508,390.800 136.964 C 390.800 136.420,390.557 135.882,390.259 135.767 C 389.935 135.643,389.791 135.180,389.900 134.609 C 390.027 133.946,389.828 133.499,389.241 133.133 C 388.778 132.844,388.400 132.460,388.400 132.280 C 388.400 132.100,388.580 132.064,388.800 132.200 C 389.020 132.336,389.200 132.177,389.200 131.847 C 389.200 131.051,388.526 130.661,388.250 131.298 C 388.130 131.574,388.134 131.304,388.260 130.697 C 388.531 129.388,387.509 127.004,386.513 126.622 C 385.920 126.395,385.906 126.302,386.411 125.971 C 386.920 125.637,386.906 125.512,386.306 125.053 C 385.925 124.760,385.730 124.403,385.873 124.260 C 386.121 124.012,385.788 123.124,384.562 120.756 C 384.264 120.182,384.132 119.601,384.268 119.466 C 384.403 119.330,384.230 119.110,383.883 118.976 C 383.535 118.843,383.348 118.479,383.468 118.167 C 383.588 117.855,383.476 117.600,383.219 117.600 C 382.963 117.600,382.857 117.431,382.985 117.225 C 383.112 117.018,382.898 116.664,382.508 116.437 C 381.953 116.113,381.929 116.019,382.400 115.999 C 382.873 115.980,382.843 115.856,382.260 115.414 C 381.833 115.091,381.646 114.649,381.817 114.372 C 381.994 114.086,381.726 113.574,381.158 113.110 C 380.631 112.681,380.470 112.463,380.800 112.624 C 381.287 112.862,381.306 112.816,380.900 112.379 C 380.625 112.082,380.400 111.526,380.400 111.143 C 380.400 110.759,380.000 110.165,379.511 109.823 C 379.022 109.480,378.854 109.200,379.138 109.200 C 379.489 109.200,379.389 108.826,378.827 108.038 C 378.372 107.399,378.000 106.686,378.000 106.452 C 378.000 105.888,376.487 105.099,375.992 105.405 C 375.776 105.538,375.600 105.457,375.600 105.224 C 375.600 104.991,376.005 104.794,376.500 104.787 C 377.329 104.776,377.346 104.733,376.706 104.248 C 376.325 103.958,376.111 103.623,376.230 103.503 C 376.350 103.383,375.989 102.826,375.428 102.265 C 374.867 101.704,374.491 101.009,374.593 100.722 C 374.928 99.774,373.720 98.602,373.013 99.190 C 372.595 99.536,372.400 99.555,372.400 99.249 C 372.400 99.002,372.602 98.800,372.849 98.800 C 373.161 98.800,373.147 98.618,372.804 98.204 C 372.532 97.877,372.150 97.707,371.955 97.828 C 371.760 97.949,371.603 97.542,371.606 96.924 C 371.611 96.051,371.699 95.934,372.000 96.400 C 372.213 96.730,372.391 96.851,372.394 96.669 C 372.403 96.176,369.905 93.783,369.509 93.906 C 369.320 93.964,369.354 93.660,369.584 93.230 C 370.031 92.395,369.536 91.745,368.800 92.200 C 368.580 92.336,368.400 92.257,368.400 92.024 C 368.400 91.791,368.580 91.600,368.800 91.600 C 369.020 91.600,369.200 91.399,369.200 91.153 C 369.200 90.897,368.843 90.800,368.360 90.926 C 367.700 91.099,367.561 90.993,367.708 90.430 C 367.986 89.367,367.260 88.252,366.630 88.775 C 366.256 89.086,366.009 88.937,365.671 88.197 C 365.422 87.649,365.378 87.200,365.575 87.200 C 365.772 87.200,366.014 87.425,366.112 87.700 C 366.210 87.975,366.450 88.050,366.645 87.867 C 366.845 87.679,366.662 87.288,366.223 86.967 C 365.796 86.655,365.594 86.400,365.773 86.400 C 365.952 86.400,365.871 86.126,365.593 85.791 C 365.301 85.440,364.730 85.269,364.244 85.387 C 363.780 85.500,363.625 85.489,363.900 85.363 C 364.175 85.237,364.400 84.872,364.400 84.553 C 364.400 83.735,363.180 81.965,362.784 82.210 C 362.603 82.322,362.325 82.202,362.166 81.945 C 361.985 81.652,362.050 81.584,362.338 81.762 C 363.017 82.181,362.900 81.574,362.141 80.735 C 361.517 80.045,361.454 80.043,360.919 80.704 C 360.413 81.329,360.401 81.307,360.796 80.492 C 361.252 79.552,361.006 78.626,360.400 79.000 C 360.210 79.117,359.925 79.002,359.766 78.745 C 359.585 78.452,359.650 78.384,359.938 78.562 C 360.695 79.030,360.461 78.230,359.634 77.522 C 359.212 77.161,358.745 76.986,358.596 77.133 C 358.446 77.280,358.386 77.040,358.462 76.600 C 358.545 76.120,358.400 75.840,358.100 75.900 C 357.825 75.955,357.645 75.842,357.700 75.648 C 357.885 74.999,355.976 72.768,355.480 73.053 C 355.216 73.204,355.130 73.185,355.288 73.009 C 355.999 72.223,351.000 66.899,349.607 66.958 C 348.918 66.987,348.585 66.761,348.491 66.200 C 348.415 65.749,348.497 65.574,348.678 65.800 C 348.855 66.020,349.242 66.251,349.537 66.312 C 349.832 66.374,349.392 65.592,348.558 64.575 C 347.139 62.843,347.008 62.773,346.491 63.463 C 346.083 64.007,345.958 64.043,346.016 63.600 C 346.162 62.487,346.002 61.951,345.600 62.200 C 345.380 62.336,345.194 62.122,345.187 61.724 C 345.180 61.326,344.935 60.685,344.643 60.300 C 344.056 59.527,343.385 59.328,343.838 60.062 C 344.016 60.350,343.948 60.415,343.655 60.234 C 343.398 60.075,343.292 59.775,343.420 59.567 C 343.713 59.093,340.586 56.051,339.305 55.564 C 338.781 55.365,338.446 55.049,338.562 54.862 C 338.832 54.425,336.993 52.690,335.234 51.721 C 334.482 51.308,333.672 50.619,333.434 50.190 C 332.811 49.073,331.109 47.609,330.715 47.853 C 330.531 47.966,330.430 47.821,330.490 47.530 C 330.551 47.238,330.362 47.049,330.070 47.110 C 329.779 47.170,329.649 47.044,329.781 46.830 C 330.078 46.350,328.628 45.517,328.188 45.914 C 328.014 46.071,327.985 46.001,328.124 45.758 C 328.497 45.102,326.694 43.589,325.754 43.770 C 325.137 43.889,324.951 43.720,324.972 43.063 C 324.991 42.480,324.775 42.218,324.304 42.255 C 323.922 42.285,323.695 42.170,323.800 42.000 C 324.004 41.671,320.697 38.794,320.133 38.809 C 319.950 38.814,320.229 39.148,320.754 39.552 C 321.508 40.131,321.592 40.353,321.154 40.607 C 320.849 40.784,320.734 40.781,320.897 40.600 C 321.061 40.419,320.833 40.018,320.391 39.709 C 319.948 39.399,319.675 39.002,319.784 38.826 C 320.036 38.417,318.478 36.988,318.144 37.322 C 318.007 37.460,317.536 37.118,317.099 36.562 C 316.661 36.006,316.070 35.641,315.785 35.750 C 315.500 35.860,315.167 35.691,315.046 35.375 C 314.924 35.059,314.454 34.800,314.000 34.800 C 313.546 34.800,313.072 34.531,312.946 34.202 C 312.819 33.874,312.555 33.704,312.358 33.826 C 312.161 33.948,312.000 33.857,312.000 33.624 C 312.000 33.391,311.730 33.200,311.400 33.200 C 311.070 33.200,310.800 33.020,310.800 32.800 C 310.800 32.580,310.536 32.400,310.214 32.400 C 309.892 32.400,309.435 32.040,309.200 31.600 C 308.965 31.160,308.498 30.800,308.162 30.800 C 307.803 30.800,307.670 30.990,307.838 31.262 C 308.011 31.541,307.948 31.615,307.679 31.449 C 307.435 31.298,307.319 30.955,307.422 30.686 C 307.525 30.418,307.254 29.976,306.820 29.705 C 306.133 29.276,306.064 29.302,306.290 29.906 C 306.517 30.513,306.465 30.531,305.875 30.051 C 305.504 29.749,305.200 29.254,305.200 28.951 C 305.200 28.633,304.786 28.400,304.220 28.400 C 303.681 28.400,303.064 28.086,302.850 27.703 C 302.635 27.320,302.131 27.005,301.730 27.003 C 301.310 27.001,301.052 26.759,301.123 26.432 C 301.228 25.942,301.150 25.942,300.546 26.432 C 300.099 26.795,299.955 26.819,300.147 26.500 C 300.338 26.182,300.211 26.000,299.800 26.000 C 299.444 26.000,299.254 25.837,299.377 25.637 C 299.500 25.438,299.196 25.363,298.701 25.472 C 297.977 25.631,297.918 25.585,298.400 25.241 C 298.730 25.005,298.910 24.796,298.800 24.776 C 298.690 24.757,298.164 24.660,297.632 24.562 C 297.100 24.464,296.413 24.025,296.105 23.585 C 295.797 23.146,295.398 22.878,295.218 22.989 C 295.038 23.100,294.668 22.923,294.396 22.596 C 294.124 22.268,293.699 21.996,293.451 21.991 C 293.203 21.986,292.568 21.650,292.040 21.244 C 291.512 20.838,290.740 20.595,290.323 20.704 C 289.822 20.835,289.606 20.716,289.683 20.351 C 289.751 20.031,289.526 19.845,289.146 19.907 C 288.786 19.966,288.381 19.729,288.247 19.380 C 288.084 18.953,287.738 18.829,287.192 19.003 C 286.634 19.180,286.414 19.094,286.490 18.730 C 286.556 18.412,286.250 18.212,285.724 18.229 C 285.242 18.245,284.882 18.088,284.924 17.879 C 284.966 17.671,284.775 17.418,284.500 17.317 C 284.225 17.216,284.000 17.368,284.000 17.656 C 284.000 17.943,283.720 17.778,283.377 17.289 C 282.724 16.357,281.765 16.037,282.211 16.900 C 282.353 17.175,282.081 16.950,281.605 16.400 C 280.986 15.684,280.680 15.550,280.528 15.928 C 280.374 16.310,280.147 16.217,279.711 15.594 C 279.335 15.057,278.827 14.804,278.367 14.925 C 277.942 15.036,277.664 14.923,277.714 14.659 C 277.761 14.407,277.416 14.194,276.946 14.187 C 276.476 14.180,275.801 13.933,275.446 13.638 C 274.906 13.190,274.800 13.190,274.800 13.640 C 274.800 13.936,274.507 13.760,274.149 13.248 C 273.637 12.518,273.423 12.434,273.149 12.859 C 272.860 13.306,272.732 13.296,272.406 12.800 C 272.189 12.470,272.004 12.380,271.994 12.600 C 271.984 12.820,271.792 12.685,271.568 12.300 C 271.344 11.915,270.897 11.600,270.575 11.600 C 270.253 11.600,269.677 11.441,269.295 11.247 C 266.816 9.986,266.423 9.883,265.862 10.348 C 265.412 10.722,265.255 10.653,265.086 10.008 C 264.944 9.465,264.542 9.200,263.861 9.200 C 263.303 9.200,262.726 9.004,262.578 8.765 C 262.431 8.526,262.010 8.409,261.643 8.505 C 261.276 8.601,260.734 8.420,260.438 8.102 C 260.142 7.785,259.477 7.607,258.962 7.705 C 258.446 7.804,258.116 7.736,258.228 7.554 C 258.341 7.372,257.930 7.114,257.316 6.981 C 256.702 6.847,255.808 6.548,255.329 6.317 C 254.850 6.085,254.004 5.982,253.449 6.089 C 252.795 6.214,252.361 6.076,252.216 5.697 C 252.062 5.295,251.567 5.163,250.624 5.273 C 249.872 5.361,249.332 5.309,249.426 5.158 C 249.619 4.846,248.629 4.400,247.744 4.400 C 247.419 4.400,247.264 4.580,247.400 4.800 C 247.824 5.486,247.239 5.239,246.361 4.361 C 245.754 3.754,245.153 3.565,244.189 3.677 C 243.456 3.763,242.931 3.711,243.024 3.562 C 243.222 3.241,241.782 2.813,240.476 2.805 C 239.853 2.802,239.644 2.962,239.835 3.300 C 239.991 3.575,239.724 3.395,239.243 2.900 C 238.403 2.035,236.000 1.611,236.000 2.329 C 236.000 2.509,235.055 2.693,233.900 2.736 C 232.494 2.790,231.986 2.693,232.364 2.445 C 232.674 2.241,233.151 2.160,233.423 2.264 C 233.696 2.369,234.029 2.277,234.163 2.060 C 234.297 1.843,233.843 1.541,233.154 1.390 C 231.945 1.124,231.543 1.356,231.057 2.600 C 230.961 2.844,230.694 2.805,230.370 2.500 C 230.078 2.225,229.021 1.987,228.020 1.972 C 226.658 1.951,226.401 1.860,227.000 1.610 C 227.440 1.426,228.205 1.368,228.700 1.481 C 229.195 1.594,229.600 1.510,229.600 1.294 C 229.600 0.650,226.321 0.283,225.939 0.885 C 225.754 1.176,225.610 1.212,225.606 0.968 C 225.598 0.367,178.446 -0.275,175.000 0.278 M354.400 71.824 C 354.400 72.141,354.130 72.400,353.800 72.400 C 353.127 72.400,353.100 72.327,353.442 71.435 C 353.723 70.703,354.400 70.977,354.400 71.824 M392.034 144.442 C 391.682 145.323,391.649 145.333,391.625 144.567 C 391.611 144.108,391.720 143.613,391.867 143.467 C 392.344 142.989,392.426 143.463,392.034 144.442 M343.053 340.631 C 341.543 342.066,340.382 343.316,340.475 343.409 C 340.568 343.501,341.889 342.322,343.411 340.789 C 346.896 337.277,346.682 337.183,343.053 340.631 M64.422 347.900 C 64.434 348.065,65.019 348.638,65.722 349.174 L 67.000 350.149 65.825 348.874 C 64.603 347.549,64.385 347.397,64.422 347.900 M75.388 357.581 C 75.518 357.791,76.204 358.369,76.912 358.866 C 78.038 359.655,78.124 359.670,77.600 358.984 C 76.572 357.640,74.685 356.443,75.388 357.581 M323.239 358.086 C 322.788 358.808,322.810 358.812,323.785 358.173 C 324.955 357.406,324.996 357.333,324.255 357.333 C 323.955 357.333,323.498 357.672,323.239 358.086 M320.800 360.049 C 319.406 361.271,319.405 361.272,320.688 360.419 C 321.396 359.948,322.082 359.391,322.212 359.181 C 322.597 358.557,322.277 358.754,320.800 360.049 M78.588 359.981 C 78.718 360.191,79.375 360.755,80.049 361.235 C 81.245 362.087,81.261 362.088,80.757 361.279 C 80.472 360.824,80.115 360.529,79.962 360.624 C 79.809 360.718,79.581 360.526,79.454 360.198 C 79.328 359.869,79.029 359.600,78.789 359.600 C 78.549 359.600,78.459 359.772,78.588 359.981 M124.600 386.400 C 124.736 386.620,125.107 386.800,125.424 386.800 C 125.741 386.800,126.000 386.620,126.000 386.400 C 126.000 386.180,125.629 386.000,125.176 386.000 C 124.723 386.000,124.464 386.180,124.600 386.400 M128.612 388.019 C 128.754 388.250,129.187 388.385,129.574 388.319 C 129.961 388.254,130.582 388.453,130.956 388.763 C 131.469 389.190,131.746 389.214,132.097 388.863 C 132.448 388.512,132.347 388.400,131.680 388.400 C 131.196 388.400,130.800 388.220,130.800 388.000 C 130.800 387.780,130.249 387.600,129.576 387.600 C 128.825 387.600,128.453 387.762,128.612 388.019 M267.600 388.800 C 267.600 389.020,267.859 389.200,268.176 389.200 C 268.493 389.200,268.864 389.020,269.000 388.800 C 269.136 388.580,268.877 388.400,268.424 388.400 C 267.971 388.400,267.600 388.580,267.600 388.800 M263.131 390.491 C 263.387 390.747,263.766 390.747,264.222 390.491 C 264.813 390.161,264.752 390.100,263.831 390.100 C 263.120 390.100,262.876 390.236,263.131 390.491 M137.800 391.200 C 137.936 391.420,138.397 391.600,138.824 391.600 C 139.251 391.600,139.600 391.420,139.600 391.200 C 139.600 390.980,139.139 390.800,138.576 390.800 C 137.996 390.800,137.660 390.973,137.800 391.200 M258.000 392.000 C 258.000 392.506,258.817 392.506,259.600 392.000 C 260.068 391.698,259.957 391.611,259.100 391.606 C 258.495 391.603,258.000 391.780,258.000 392.000 M142.400 392.578 C 142.400 392.797,145.449 393.723,146.500 393.824 C 146.885 393.861,147.200 393.735,147.200 393.545 C 147.200 393.355,146.660 393.200,146.000 393.200 C 145.340 393.200,144.800 393.058,144.800 392.885 C 144.800 392.712,144.260 392.529,143.600 392.479 C 142.940 392.428,142.400 392.473,142.400 392.578 M255.200 392.715 C 255.200 393.169,256.741 393.219,257.016 392.775 C 257.143 392.569,256.787 392.400,256.224 392.400 C 255.661 392.400,255.200 392.542,255.200 392.715 M149.600 394.336 C 149.600 395.220,152.921 395.975,153.400 395.200 C 153.549 394.958,153.004 394.800,152.024 394.800 C 151.131 394.800,150.400 394.620,150.400 394.400 C 150.400 394.180,150.220 394.000,150.000 394.000 C 149.780 394.000,149.600 394.151,149.600 394.336 M250.000 394.400 C 250.000 394.906,250.817 394.906,251.600 394.400 C 252.068 394.098,251.957 394.011,251.100 394.006 C 250.495 394.003,250.000 394.180,250.000 394.400 M246.800 395.200 C 246.800 395.420,247.149 395.600,247.576 395.600 C 248.003 395.600,248.464 395.420,248.600 395.200 C 248.740 394.973,248.404 394.800,247.824 394.800 C 247.261 394.800,246.800 394.980,246.800 395.200 M154.000 396.000 C 154.783 396.506,155.600 396.506,155.600 396.000 C 155.600 395.780,155.105 395.603,154.500 395.606 C 153.643 395.611,153.532 395.698,154.000 396.000 M243.200 395.913 C 243.200 396.379,245.122 396.450,245.404 395.994 C 245.543 395.768,245.125 395.600,244.424 395.600 C 243.751 395.600,243.200 395.741,243.200 395.913 M157.796 396.794 C 158.078 397.250,160.000 397.179,160.000 396.713 C 160.000 396.541,159.449 396.400,158.776 396.400 C 158.075 396.400,157.657 396.568,157.796 396.794 M239.600 396.800 C 239.600 397.309,241.212 397.309,242.000 396.800 C 242.446 396.512,242.216 396.411,241.100 396.406 C 240.275 396.403,239.600 396.580,239.600 396.800 M161.543 397.628 C 162.636 398.066,164.838 397.985,164.549 397.517 C 164.441 397.343,163.508 397.211,162.476 397.225 C 160.887 397.247,160.744 397.309,161.543 397.628 M235.200 397.513 C 235.200 397.982,237.180 398.053,237.938 397.611 C 238.439 397.318,238.187 397.221,236.900 397.212 C 235.965 397.205,235.200 397.341,235.200 397.513 M166.200 398.400 C 167.316 398.879,168.800 398.879,168.800 398.400 C 168.800 398.180,168.035 398.013,167.100 398.028 C 165.783 398.050,165.580 398.134,166.200 398.400 M230.600 398.400 C 230.298 398.888,232.663 398.888,233.800 398.400 C 234.404 398.141,234.140 398.049,232.724 398.028 C 231.692 398.013,230.736 398.180,230.600 398.400 M172.200 399.200 C 173.983 399.654,175.600 399.654,175.600 399.200 C 175.600 398.974,174.598 398.821,173.300 398.847 C 171.407 398.886,171.212 398.949,172.200 399.200 M224.200 399.200 C 223.915 399.662,225.985 399.662,227.800 399.200 C 228.792 398.948,228.605 398.886,226.724 398.847 C 225.472 398.821,224.336 398.980,224.200 399.200 M179.111 399.893 C 180.051 399.978,181.491 399.977,182.311 399.891 C 183.130 399.805,182.360 399.736,180.600 399.737 C 178.840 399.739,178.170 399.809,179.111 399.893 M216.500 399.891 C 217.325 399.978,218.675 399.978,219.500 399.891 C 220.325 399.805,219.650 399.734,218.000 399.734 C 216.350 399.734,215.675 399.805,216.500 399.891 " stroke="none" fill="#c8e2fb" fill-rule="evenodd"></path><path id="path2" d="M196.345 289.124 C 180.998 301.831,180.391 302.395,181.085 303.300 C 181.296 303.575,183.267 306.050,185.464 308.800 C 191.297 316.098,190.900 315.185,189.980 319.200 C 189.552 321.070,186.984 331.357,184.274 342.061 L 179.347 361.521 181.687 367.061 C 185.288 375.583,187.779 381.066,192.110 390.000 C 194.296 394.510,196.241 398.605,196.432 399.100 C 197.023 400.628,203.047 400.461,203.631 398.900 C 203.858 398.295,205.173 395.550,206.554 392.800 C 207.934 390.050,209.305 387.170,209.599 386.400 C 209.893 385.630,210.311 384.769,210.527 384.487 C 210.936 383.952,212.952 379.530,214.669 375.400 C 215.218 374.080,216.004 372.280,216.417 371.400 C 218.119 367.773,220.400 361.993,220.395 361.320 C 220.390 360.675,218.295 352.076,215.444 341.000 C 214.528 337.439,212.157 327.995,209.937 319.062 C 209.018 315.364,208.514 316.504,214.857 307.931 C 219.944 301.055,220.008 301.987,214.099 296.965 C 211.534 294.784,207.717 291.498,205.617 289.662 C 200.356 285.060,201.194 285.109,196.345 289.124 " stroke="none" fill="#dc7a80" fill-rule="evenodd"></path><path id="path3" d="M233.600 107.855 C 233.050 107.961,230.890 108.572,228.800 109.212 C 209.720 115.058,188.530 114.896,169.434 108.760 C 158.043 105.100,150.612 111.988,150.835 126.000 C 150.945 132.963,148.868 136.877,143.493 139.831 C 141.432 140.964,141.277 140.984,133.417 141.191 L 125.434 141.400 125.087 143.000 C 124.896 143.880,124.802 149.405,124.878 155.279 L 125.017 165.957 126.608 167.586 C 128.719 169.747,131.350 171.354,134.072 172.145 C 136.994 172.995,137.170 173.266,138.069 178.302 C 138.492 180.666,139.167 183.680,139.571 185.000 C 139.974 186.320,140.436 188.390,140.597 189.600 C 140.767 190.878,141.531 193.058,142.419 194.800 C 143.261 196.450,144.546 199.057,145.275 200.593 C 146.004 202.130,147.071 203.930,147.646 204.593 C 148.222 205.257,149.078 206.561,149.550 207.492 C 150.024 208.426,150.942 209.460,151.600 209.800 C 152.256 210.139,153.101 210.908,153.478 211.508 C 153.855 212.109,154.712 213.257,155.382 214.060 C 156.052 214.864,156.904 215.963,157.275 216.503 C 157.647 217.043,159.327 218.366,161.009 219.442 C 162.691 220.519,164.547 221.789,165.133 222.265 L 166.200 223.129 166.442 235.265 C 166.739 250.182,166.635 249.746,170.880 253.910 C 173.098 256.085,173.950 257.188,174.351 258.400 C 174.606 259.170,175.396 260.300,176.107 260.912 C 176.818 261.523,178.194 262.693,179.164 263.512 C 180.134 264.330,181.275 265.781,181.698 266.735 C 182.257 267.995,182.849 268.628,183.861 269.051 C 184.763 269.428,185.445 270.087,185.793 270.917 C 186.297 272.119,187.735 273.765,190.758 276.600 C 192.782 278.498,193.866 279.730,194.363 280.696 C 194.616 281.189,195.358 281.868,196.012 282.206 C 197.570 283.012,197.731 285.575,196.300 286.798 C 195.805 287.221,194.445 288.459,193.278 289.548 C 192.111 290.638,190.559 291.813,189.830 292.159 C 189.101 292.505,188.020 293.423,187.429 294.198 C 186.837 294.973,185.667 295.958,184.827 296.386 C 183.988 296.814,182.784 297.713,182.152 298.382 C 181.520 299.052,180.820 299.600,180.598 299.600 C 178.545 299.600,179.820 304.739,182.532 307.399 C 187.586 312.354,189.316 315.784,188.566 319.358 C 188.116 321.501,187.569 323.528,184.992 332.600 C 183.812 336.757,179.282 356.263,179.140 357.800 C 179.079 358.460,179.183 359.248,179.370 359.551 C 179.664 360.027,187.134 331.614,189.973 319.224 C 190.890 315.223,191.264 316.082,185.440 308.800 C 182.889 305.610,180.801 302.804,180.801 302.565 C 180.800 302.167,185.213 298.351,196.348 289.124 C 201.193 285.109,200.355 285.060,205.619 289.662 C 207.719 291.498,211.634 294.870,214.319 297.156 C 217.004 299.442,219.200 301.480,219.200 301.686 C 219.200 301.892,217.246 304.702,214.857 307.930 C 212.469 311.159,210.204 314.287,209.824 314.881 C 209.153 315.931,209.181 316.152,210.810 322.481 C 211.733 326.067,213.005 331.160,213.637 333.800 C 214.269 336.440,215.330 340.670,215.995 343.200 C 216.660 345.730,217.871 350.536,218.686 353.880 C 219.722 358.135,220.299 359.850,220.606 359.595 C 221.171 359.126,220.363 353.333,219.249 349.856 C 218.816 348.505,218.260 346.173,218.014 344.673 C 217.768 343.174,217.231 341.093,216.820 340.050 C 216.408 339.007,215.945 337.264,215.790 336.176 C 215.446 333.773,213.590 326.751,211.943 321.624 C 210.386 316.775,210.784 315.070,214.427 311.000 C 215.017 310.340,215.748 309.323,216.050 308.740 C 216.353 308.158,217.478 306.482,218.552 305.017 L 220.503 302.354 219.950 300.283 C 219.447 298.404,219.154 298.045,216.784 296.406 C 215.347 295.413,213.700 294.150,213.123 293.600 C 212.546 293.050,211.352 292.060,210.471 291.400 C 209.589 290.740,208.787 289.917,208.690 289.570 C 208.592 289.224,207.722 288.569,206.756 288.114 C 202.305 286.020,202.159 283.058,206.398 280.897 C 208.276 279.940,208.744 279.442,210.060 277.000 C 211.070 275.125,212.102 273.829,213.184 273.078 C 214.073 272.461,214.800 271.775,214.800 271.555 C 214.800 271.334,215.412 270.489,216.161 269.677 C 219.217 266.360,220.740 264.515,221.726 262.935 C 222.298 262.020,223.487 260.865,224.368 260.370 C 225.354 259.816,226.225 258.917,226.629 258.034 C 227.575 255.975,228.933 254.006,229.411 254.003 C 232.442 253.983,233.600 248.889,233.600 235.576 C 233.600 224.028,233.719 223.468,236.565 221.663 C 241.028 218.833,251.600 208.226,251.600 206.579 C 251.600 206.439,251.993 205.771,252.474 205.095 C 253.480 203.683,254.766 201.386,255.999 198.800 C 256.471 197.810,257.084 196.730,257.362 196.400 C 258.180 195.429,259.474 191.344,260.594 186.200 C 261.169 183.560,261.811 180.632,262.020 179.694 C 262.229 178.756,262.400 177.598,262.400 177.121 C 262.400 176.643,262.767 175.495,263.215 174.569 C 264.068 172.807,264.417 172.597,268.525 171.370 C 274.837 169.484,275.877 166.139,275.339 149.459 L 275.076 141.298 267.038 141.121 C 252.957 140.811,249.766 137.933,249.164 125.000 C 248.765 116.431,248.062 114.287,244.614 111.120 C 241.969 108.691,236.965 107.207,233.600 107.855 " stroke="none" fill="#fadcd0" fill-rule="evenodd"></path><path id="path4" d="M226.885 1.672 C 226.486 1.830,226.984 1.956,228.076 1.972 C 229.108 1.987,230.064 2.180,230.200 2.400 C 230.612 3.066,231.200 2.849,231.200 2.031 C 231.200 1.229,228.555 1.009,226.885 1.672 M232.265 2.508 C 232.009 2.677,232.745 2.780,233.900 2.736 C 235.055 2.693,236.000 2.505,236.000 2.319 C 236.000 1.914,232.926 2.069,232.265 2.508 M161.800 57.244 C 143.531 59.879,129.498 72.990,125.355 91.295 C 124.657 94.380,123.984 136.657,124.582 139.846 L 124.851 141.280 133.126 141.136 C 147.316 140.889,150.616 137.684,150.975 123.800 C 151.149 117.065,151.693 115.238,154.408 112.268 C 158.182 108.138,163.578 106.879,169.434 108.760 C 188.644 114.933,210.188 115.060,229.000 109.112 C 235.892 106.932,240.733 107.555,244.614 111.120 C 248.062 114.287,248.765 116.431,249.164 125.000 C 249.586 134.072,251.402 137.560,257.000 140.052 C 259.541 141.183,274.599 141.761,275.238 140.752 C 275.686 140.045,275.676 101.555,275.226 97.678 C 274.222 89.008,267.099 82.388,257.915 81.588 C 252.631 81.127,250.400 79.361,250.400 75.639 C 250.400 67.742,244.743 60.237,236.834 57.642 C 234.077 56.737,167.752 56.385,161.800 57.244 M234.880 57.654 C 243.048 59.402,248.677 65.933,249.565 74.690 C 250.119 80.158,251.811 81.628,258.391 82.359 C 267.534 83.374,273.865 89.646,274.809 98.622 C 275.504 105.223,275.308 139.435,274.571 140.171 C 273.081 141.662,259.172 140.763,256.128 138.979 C 251.239 136.114,249.950 133.200,249.619 124.267 C 249.098 110.239,242.250 104.689,229.955 108.331 C 210.407 114.122,191.142 114.256,171.618 108.738 C 157.609 104.780,150.900 109.477,150.393 123.600 C 150.042 133.368,147.802 137.765,142.143 139.791 C 140.083 140.529,128.292 141.161,126.231 140.643 L 125.200 140.385 125.200 118.569 C 125.200 95.575,125.330 93.427,127.069 87.600 C 130.674 75.517,140.650 64.647,152.000 60.434 C 159.322 57.717,157.377 57.853,192.400 57.603 C 209.890 57.478,226.126 57.336,228.480 57.288 C 230.834 57.239,233.714 57.404,234.880 57.654 M348.926 65.060 C 349.352 65.565,349.490 66.021,349.260 66.163 C 349.045 66.296,348.766 66.179,348.641 65.902 C 348.516 65.626,348.458 65.758,348.512 66.195 C 348.565 66.633,348.912 67.049,349.282 67.120 C 350.234 67.304,350.048 65.753,349.014 64.884 C 348.210 64.209,348.209 64.211,348.926 65.060 M353.467 71.467 C 353.006 71.927,353.175 72.400,353.800 72.400 C 354.130 72.400,354.400 72.130,354.400 71.800 C 354.400 71.175,353.927 71.006,353.467 71.467 M365.667 88.187 C 365.915 88.731,366.267 89.082,366.450 88.969 C 366.813 88.745,365.994 87.200,365.512 87.200 C 365.350 87.200,365.420 87.644,365.667 88.187 M394.938 156.662 C 394.894 157.421,394.978 157.563,395.232 157.161 C 395.668 156.472,395.706 155.600,395.300 155.600 C 395.135 155.600,394.972 156.078,394.938 156.662 M396.400 163.600 C 396.400 164.347,396.507 164.453,396.880 164.080 C 397.253 163.707,397.253 163.493,396.880 163.120 C 396.507 162.747,396.400 162.853,396.400 163.600 M397.147 167.449 C 397.057 167.642,397.093 168.790,397.227 170.000 C 397.461 172.118,397.625 171.949,397.814 169.400 C 397.905 168.172,397.441 166.816,397.147 167.449 M1.303 173.095 C 1.339 173.808,1.517 174.243,1.697 174.063 C 1.877 173.883,1.847 173.300,1.630 172.768 C 1.259 171.856,1.240 171.875,1.303 173.095 M397.463 173.020 C 397.586 173.339,397.801 173.600,397.943 173.599 C 398.084 173.599,398.140 174.859,398.067 176.399 C 397.994 177.940,398.090 179.200,398.280 179.200 C 398.470 179.200,398.599 177.895,398.566 176.300 C 398.494 172.767,398.529 172.935,397.820 172.663 C 397.433 172.515,397.315 172.633,397.463 173.020 M0.400 179.000 C 0.400 179.330,0.580 179.600,0.800 179.600 C 1.020 179.600,1.200 179.330,1.200 179.000 C 1.200 178.670,1.020 178.400,0.800 178.400 C 0.580 178.400,0.400 178.670,0.400 179.000 M398.534 179.476 C 398.206 179.594,398.176 180.020,398.434 180.919 C 398.635 181.621,398.800 182.901,398.800 183.764 C 398.800 186.280,399.359 185.012,399.486 182.206 C 399.602 179.664,399.425 179.155,398.534 179.476 M399.257 186.365 C 398.823 186.633,398.799 187.093,399.136 188.650 C 399.611 190.847,399.568 212.315,399.087 213.072 C 398.922 213.332,398.998 213.675,399.255 213.834 C 399.534 214.007,399.617 213.951,399.459 213.696 C 399.314 213.461,399.379 213.207,399.603 213.132 C 399.872 213.043,399.975 208.414,399.905 199.513 C 399.818 188.277,399.709 186.085,399.257 186.365 M0.131 191.800 C 0.133 193.340,0.205 193.921,0.292 193.091 C 0.379 192.261,0.377 191.001,0.289 190.291 C 0.200 189.581,0.129 190.260,0.131 191.800 M0.128 208.800 C 0.128 210.230,0.201 210.815,0.289 210.100 C 0.378 209.385,0.378 208.215,0.289 207.500 C 0.201 206.785,0.128 207.370,0.128 208.800 M398.653 218.496 C 398.537 220.093,398.322 222.278,398.176 223.351 C 397.981 224.792,398.034 225.226,398.379 225.013 C 398.660 224.840,398.749 224.279,398.603 223.613 C 398.436 222.852,398.535 222.434,398.919 222.286 C 399.328 222.130,399.488 221.249,399.511 219.041 C 399.552 215.121,398.927 214.724,398.653 218.496 M398.006 227.500 C 398.003 228.215,398.180 228.800,398.400 228.800 C 398.908 228.800,398.908 227.586,398.400 226.800 C 398.106 226.345,398.011 226.514,398.006 227.500 M397.200 231.400 C 397.200 232.463,397.320 233.213,397.467 233.067 C 397.613 232.920,397.733 232.170,397.733 231.400 C 397.733 230.630,397.613 229.880,397.467 229.733 C 397.320 229.587,397.200 230.337,397.200 231.400 M162.400 248.531 C 151.401 253.834,127.162 266.040,125.844 266.939 C 124.988 267.522,124.105 268.000,123.880 268.000 C 123.655 268.000,120.665 268.890,117.236 269.978 C 113.806 271.065,105.510 273.678,98.800 275.783 C 92.090 277.888,85.250 280.083,83.600 280.660 C 70.784 285.142,59.299 297.718,55.973 310.912 C 54.076 318.437,53.510 340.045,55.238 338.977 C 55.448 338.847,55.570 338.979,55.510 339.270 C 55.449 339.562,55.638 339.751,55.930 339.690 C 56.221 339.630,56.353 339.752,56.223 339.963 C 56.093 340.173,56.348 340.599,56.791 340.909 C 57.233 341.218,57.461 341.619,57.297 341.800 C 57.134 341.981,57.210 342.008,57.466 341.862 C 57.722 341.715,57.992 341.751,58.066 341.942 C 58.273 342.477,62.071 345.662,62.268 345.465 C 62.364 345.369,60.835 343.652,58.870 341.650 L 55.298 338.009 55.442 329.505 C 55.658 316.766,55.951 314.322,58.073 307.600 C 61.995 295.175,73.253 284.933,88.200 280.191 C 90.840 279.353,95.610 277.818,98.800 276.779 C 101.990 275.740,108.650 273.609,113.600 272.043 C 118.550 270.477,123.590 268.665,124.800 268.016 C 126.982 266.846,152.160 254.300,160.587 250.183 C 165.864 247.606,165.643 247.457,163.685 252.274 C 161.612 257.375,160.952 259.831,159.570 267.600 C 158.857 271.612,158.989 287.314,159.781 292.587 C 160.443 296.990,161.118 299.145,160.664 295.400 C 158.431 277.016,159.666 262.251,164.292 252.000 C 166.916 246.185,166.989 246.319,162.400 248.531 M233.813 247.178 C 233.680 247.394,234.029 248.473,234.588 249.577 C 236.643 253.631,237.354 255.691,238.808 261.800 C 241.350 272.481,240.785 290.046,237.369 306.563 C 237.022 308.242,236.814 309.837,236.906 310.108 C 236.998 310.378,237.299 309.430,237.575 308.000 C 237.851 306.570,238.234 304.590,238.426 303.600 C 238.617 302.610,238.956 300.540,239.178 299.000 C 239.400 297.460,239.856 294.416,240.191 292.235 C 240.909 287.559,241.036 271.067,240.382 267.367 C 239.059 259.878,238.375 257.343,236.315 252.274 C 235.437 250.115,234.800 248.267,234.898 248.169 C 234.997 248.070,239.613 250.242,245.158 252.995 C 250.702 255.748,255.315 258.000,255.409 258.000 C 255.918 258.000,272.769 266.586,273.793 267.367 C 274.460 267.877,277.435 269.065,280.403 270.008 C 283.372 270.952,285.971 271.876,286.180 272.062 C 286.389 272.248,286.822 272.400,287.141 272.400 C 287.461 272.400,290.260 273.226,293.361 274.235 C 296.463 275.244,300.800 276.607,303.000 277.264 C 334.028 286.533,344.001 298.122,344.767 325.800 C 344.919 331.300,345.188 336.115,345.365 336.501 C 345.618 337.053,344.881 337.988,341.900 340.901 C 336.398 346.275,330.135 351.998,329.741 352.011 C 329.070 352.032,326.687 354.283,327.079 354.525 C 327.299 354.661,327.822 354.464,328.243 354.086 C 328.663 353.709,330.536 352.113,332.406 350.539 C 340.168 344.008,350.511 333.106,346.728 335.445 C 345.821 336.005,345.612 334.268,345.606 326.143 C 345.589 302.795,334.738 286.567,314.800 280.074 C 313.370 279.608,311.030 278.846,309.600 278.379 C 308.170 277.912,301.060 275.672,293.800 273.401 C 286.540 271.129,279.790 268.987,278.800 268.641 C 277.810 268.295,276.724 268.009,276.387 268.006 C 276.049 268.003,274.789 267.365,273.587 266.588 C 271.583 265.295,257.663 258.291,241.200 250.293 C 237.570 248.529,234.477 247.019,234.328 246.937 C 234.178 246.854,233.946 246.963,233.813 247.178 M160.800 298.756 C 160.800 299.465,160.971 300.800,161.179 301.723 C 161.387 302.645,161.669 304.093,161.805 304.941 C 161.941 305.788,162.144 306.390,162.257 306.277 C 162.460 306.073,161.231 297.951,160.948 297.633 C 160.867 297.542,160.800 298.047,160.800 298.756 M162.468 307.800 C 162.462 308.460,162.611 309.360,162.800 309.800 C 163.270 310.894,163.270 309.067,162.800 307.600 C 162.488 306.625,162.479 306.630,162.468 307.800 M163.232 311.318 C 163.188 312.306,164.459 317.274,164.695 317.038 C 164.881 316.852,164.215 313.606,163.580 311.600 C 163.363 310.916,163.253 310.827,163.232 311.318 M236.178 312.178 C 236.027 312.981,235.994 313.727,236.104 313.837 C 236.214 313.947,236.427 313.381,236.578 312.578 C 236.728 311.775,236.762 311.028,236.652 310.918 C 236.542 310.808,236.328 311.375,236.178 312.178 M235.488 314.933 C 235.330 315.336,235.211 316.056,235.225 316.533 C 235.249 317.356,235.271 317.350,235.640 316.425 C 235.854 315.889,235.973 315.169,235.903 314.825 C 235.799 314.311,235.725 314.330,235.488 314.933 M164.832 318.026 C 164.795 318.760,167.444 328.378,167.775 328.708 C 168.127 329.061,168.039 327.737,167.642 326.719 C 167.445 326.213,167.060 324.990,166.788 324.000 C 166.515 323.010,166.141 321.660,165.958 321.000 C 165.242 318.429,164.862 317.426,164.832 318.026 M234.688 318.133 C 234.530 318.536,234.411 319.256,234.425 319.733 C 234.449 320.556,234.471 320.550,234.840 319.625 C 235.054 319.089,235.173 318.369,235.103 318.025 C 234.999 317.511,234.925 317.530,234.688 318.133 M233.873 321.353 C 233.723 321.745,233.611 322.366,233.625 322.733 C 233.642 323.175,233.781 323.074,234.037 322.434 C 234.249 321.903,234.361 321.282,234.285 321.054 C 234.209 320.827,234.024 320.961,233.873 321.353 M232.987 324.653 C 232.848 325.284,232.552 326.286,232.327 326.880 C 232.103 327.473,231.994 328.183,232.086 328.457 C 232.177 328.730,232.569 327.823,232.956 326.441 C 233.344 325.059,233.566 323.833,233.450 323.717 C 233.334 323.601,233.126 324.022,232.987 324.653 M168.000 329.555 C 168.000 331.300,177.775 358.746,179.053 360.589 C 179.595 361.371,179.600 361.371,179.600 360.569 C 179.600 360.124,179.434 359.589,179.231 359.380 C 178.813 358.951,176.142 352.330,174.415 347.443 C 173.784 345.659,172.819 342.940,172.270 341.400 C 171.721 339.860,170.607 336.485,169.794 333.900 C 168.456 329.642,168.000 328.537,168.000 329.555 M229.463 336.043 C 227.187 342.927,225.061 349.052,224.410 350.600 C 224.224 351.040,223.412 353.110,222.604 355.200 C 221.797 357.290,220.970 359.171,220.768 359.380 C 220.566 359.589,220.400 360.124,220.400 360.569 C 220.400 361.371,220.405 361.371,220.946 360.589 C 222.351 358.561,232.231 330.492,231.895 329.485 C 231.822 329.266,230.727 332.217,229.463 336.043 M62.805 346.337 C 62.808 346.482,63.445 347.011,64.220 347.514 C 64.996 348.016,65.520 348.606,65.385 348.824 C 65.251 349.041,65.379 349.170,65.670 349.110 C 65.962 349.049,66.155 349.225,66.100 349.500 C 66.045 349.775,66.146 349.955,66.325 349.900 C 66.622 349.809,69.018 351.742,72.758 355.091 C 73.551 355.801,74.335 356.386,74.500 356.391 C 74.665 356.396,74.800 356.659,74.800 356.976 C 74.800 357.293,75.008 357.681,75.262 357.838 C 75.548 358.015,75.615 357.948,75.438 357.662 C 74.467 356.090,76.598 357.722,78.231 359.800 C 78.577 360.240,78.745 360.375,78.606 360.100 C 78.213 359.325,79.108 359.511,79.568 360.300 C 79.792 360.685,79.981 360.825,79.988 360.611 C 79.995 360.397,80.280 360.622,80.623 361.111 C 80.965 361.600,81.490 362.000,81.789 362.000 C 82.089 362.000,82.393 362.142,82.467 362.314 C 82.622 362.680,85.009 364.400,85.362 364.400 C 86.108 364.400,85.341 363.568,83.500 362.381 C 82.345 361.637,80.952 360.617,80.404 360.114 C 79.856 359.611,79.265 359.200,79.091 359.200 C 78.916 359.200,78.245 358.660,77.600 358.000 C 76.955 357.340,76.229 356.800,75.987 356.800 C 75.744 356.800,74.519 355.720,73.262 354.400 C 72.006 353.080,70.785 352.000,70.548 352.000 C 70.311 352.000,68.859 350.768,67.320 349.263 C 64.879 346.874,62.790 345.521,62.805 346.337 M324.514 356.099 C 323.681 356.814,322.856 357.624,322.680 357.899 C 322.504 358.175,322.144 358.402,321.880 358.403 C 321.616 358.405,320.770 358.997,320.000 359.719 C 319.230 360.441,317.745 361.639,316.701 362.383 C 314.744 363.776,314.385 364.486,316.118 363.536 C 316.657 363.241,318.142 362.156,319.419 361.124 C 320.697 360.092,321.872 359.282,322.031 359.324 C 322.190 359.366,322.338 359.265,322.360 359.100 C 322.421 358.639,323.769 357.311,324.037 357.448 C 324.167 357.514,324.877 356.946,325.615 356.184 C 327.312 354.434,326.525 354.373,324.514 356.099 M86.000 364.837 C 86.000 365.037,86.270 365.200,86.600 365.200 C 86.930 365.200,87.200 365.359,87.200 365.553 C 87.200 365.748,87.577 366.005,88.037 366.126 C 88.825 366.332,88.835 366.301,88.211 365.612 C 87.470 364.793,86.000 364.278,86.000 364.837 M89.500 366.231 C 88.920 366.816,89.211 367.470,90.300 368.032 C 90.905 368.344,91.490 368.689,91.600 368.799 C 92.105 369.305,95.180 370.686,95.373 370.493 C 95.492 370.374,94.906 369.900,94.070 369.438 C 91.260 367.889,90.022 367.003,89.911 366.464 C 89.850 366.169,89.665 366.064,89.500 366.231 M95.600 371.200 C 95.600 371.420,95.887 371.600,96.238 371.600 C 96.898 371.600,99.184 373.045,99.683 373.777 C 99.874 374.057,100.129 374.031,100.463 373.697 C 100.859 373.301,100.828 373.200,100.313 373.200 C 99.958 373.200,99.607 373.057,99.533 372.883 C 99.115 371.889,95.600 370.385,95.600 371.200 M101.000 374.400 C 101.136 374.620,101.409 374.800,101.606 374.800 C 101.803 374.800,102.885 375.343,104.011 376.006 C 105.136 376.670,106.235 377.102,106.454 376.966 C 106.673 376.831,105.636 376.108,104.149 375.360 C 101.348 373.951,100.577 373.716,101.000 374.400 M294.300 376.157 C 293.447 376.804,293.413 377.067,294.182 377.067 C 294.503 377.067,294.672 376.917,294.559 376.733 C 294.445 376.550,294.623 376.400,294.953 376.400 C 295.283 376.400,295.664 376.220,295.800 376.000 C 296.156 375.424,295.124 375.531,294.300 376.157 M107.400 378.000 C 107.798 378.440,108.366 378.800,108.661 378.800 C 109.364 378.800,114.426 381.441,114.185 381.682 C 114.083 381.783,114.270 381.897,114.600 381.933 C 114.930 381.970,115.470 382.030,115.800 382.067 C 116.130 382.103,116.400 382.283,116.400 382.467 C 116.400 382.650,116.665 382.800,116.988 382.800 C 117.311 382.800,118.217 383.160,119.000 383.600 C 119.783 384.040,120.779 384.400,121.212 384.400 C 121.645 384.400,122.000 384.580,122.000 384.800 C 122.000 385.020,122.180 385.200,122.400 385.200 C 123.726 385.200,122.289 384.114,118.900 382.554 C 116.755 381.567,114.010 380.273,112.800 379.679 C 111.590 379.086,110.375 378.625,110.100 378.656 C 109.825 378.686,109.600 378.540,109.600 378.330 C 109.600 378.121,109.195 378.006,108.700 378.075 C 108.145 378.152,107.838 378.009,107.900 377.700 C 107.955 377.425,107.702 377.200,107.338 377.200 C 106.743 377.200,106.749 377.281,107.400 378.000 M291.000 378.000 C 290.340 378.408,289.485 378.755,289.100 378.771 C 288.715 378.787,288.399 378.935,288.397 379.100 C 288.393 379.459,286.456 380.400,285.720 380.400 C 285.434 380.400,285.200 380.580,285.200 380.800 C 285.200 381.020,284.840 381.200,284.400 381.200 C 283.960 381.200,283.600 381.380,283.600 381.600 C 283.600 381.820,283.328 382.000,282.996 382.000 C 282.221 382.000,278.825 383.704,278.811 384.100 C 278.805 384.265,279.070 384.400,279.400 384.400 C 279.730 384.400,280.000 384.220,280.000 384.000 C 280.000 383.780,280.225 383.602,280.500 383.605 C 280.928 383.609,284.215 382.001,291.707 378.124 C 292.638 377.642,293.130 377.250,292.800 377.253 C 292.470 377.256,291.660 377.592,291.000 378.000 M123.200 385.187 C 123.200 385.401,123.500 385.460,123.866 385.319 C 124.313 385.148,124.436 385.217,124.242 385.532 C 124.056 385.833,124.256 386.000,124.805 386.000 C 125.274 386.000,125.919 386.262,126.240 386.583 C 126.561 386.904,127.117 387.053,127.477 386.915 C 127.915 386.747,128.035 386.819,127.842 387.132 C 127.639 387.460,128.039 387.600,129.176 387.600 C 130.069 387.600,130.800 387.780,130.800 388.000 C 130.800 388.220,131.171 388.400,131.624 388.400 C 132.077 388.400,132.336 388.580,132.200 388.800 C 132.052 389.040,132.564 389.202,133.476 389.206 C 134.607 389.211,134.845 389.312,134.400 389.600 C 133.793 389.993,134.539 390.207,135.900 390.030 C 136.175 389.994,136.400 390.153,136.400 390.382 C 136.400 390.612,137.120 390.800,138.000 390.800 C 138.880 390.800,139.600 390.980,139.600 391.200 C 139.600 391.420,139.960 391.600,140.400 391.600 C 140.840 391.600,141.200 391.780,141.200 392.000 C 141.200 392.220,141.560 392.400,142.000 392.400 C 143.245 392.400,142.941 391.608,141.592 391.338 C 140.927 391.205,140.286 390.940,140.168 390.748 C 140.050 390.557,139.601 390.400,139.171 390.400 C 138.741 390.400,138.077 390.242,137.695 390.049 C 136.712 389.553,134.250 388.802,133.572 388.791 C 133.257 388.786,132.550 388.430,132.000 388.000 C 131.450 387.570,130.681 387.214,130.291 387.209 C 129.901 387.204,128.391 386.660,126.936 386.000 C 124.173 384.747,123.200 384.536,123.200 385.187 M274.100 385.924 C 273.385 386.265,272.800 386.698,272.800 386.886 C 272.800 387.074,273.153 387.039,273.584 386.809 C 274.015 386.578,274.510 386.420,274.684 386.458 C 275.202 386.571,276.400 385.942,276.400 385.557 C 276.400 385.067,275.643 385.188,274.100 385.924 M270.800 387.224 C 270.800 387.457,270.575 387.520,270.300 387.365 C 269.934 387.158,269.916 387.209,270.233 387.554 C 270.692 388.055,272.000 387.761,272.000 387.157 C 272.000 386.961,271.730 386.800,271.400 386.800 C 271.070 386.800,270.800 386.991,270.800 387.224 M264.446 389.552 C 263.728 390.103,263.619 390.365,264.007 390.605 C 264.347 390.814,264.426 390.765,264.238 390.462 C 264.061 390.175,264.239 390.000,264.710 390.000 C 265.126 390.000,265.467 389.730,265.467 389.400 C 265.467 389.070,265.452 388.804,265.433 388.809 C 265.415 388.814,264.971 389.148,264.446 389.552 M259.200 391.200 L 258.200 391.520 259.300 391.560 C 259.905 391.582,260.400 391.420,260.400 391.200 C 260.400 390.980,260.355 390.818,260.300 390.840 C 260.245 390.862,259.750 391.024,259.200 391.200 M256.600 392.000 C 256.464 392.220,256.723 392.400,257.176 392.400 C 257.629 392.400,258.000 392.220,258.000 392.000 C 258.000 391.780,257.741 391.600,257.424 391.600 C 257.107 391.600,256.736 391.780,256.600 392.000 M143.900 392.282 C 144.395 392.378,144.800 392.623,144.800 392.828 C 144.800 393.033,145.340 393.200,146.000 393.200 C 146.660 393.200,147.200 393.380,147.200 393.600 C 147.200 393.820,147.920 394.000,148.800 394.000 C 149.680 394.000,150.400 394.180,150.400 394.400 C 150.400 394.620,150.794 394.800,151.276 394.800 C 152.133 394.800,152.135 394.787,151.376 394.213 C 150.949 393.890,150.253 393.620,149.828 393.613 C 148.981 393.599,146.599 392.903,145.505 392.351 C 145.123 392.158,144.403 392.025,143.905 392.054 L 143.000 392.109 143.900 392.282 M254.000 392.800 C 253.564 393.082,253.543 393.189,253.924 393.194 C 254.235 393.198,254.326 393.402,254.147 393.700 C 253.943 394.040,254.063 394.024,254.523 393.651 C 255.705 392.692,255.268 391.981,254.000 392.800 M248.800 394.400 C 248.800 394.620,249.070 394.800,249.400 394.800 C 249.730 394.800,250.000 394.620,250.000 394.400 C 250.000 394.180,249.730 394.000,249.400 394.000 C 249.070 394.000,248.800 394.180,248.800 394.400 M153.105 394.688 C 153.383 394.783,153.507 395.027,153.381 395.230 C 153.256 395.434,153.873 395.600,154.753 395.600 C 155.633 395.600,156.464 395.780,156.600 396.000 C 156.736 396.220,157.332 396.389,157.924 396.375 L 159.000 396.349 158.000 395.925 C 157.109 395.548,156.060 395.266,153.400 394.688 C 152.960 394.593,152.827 394.593,153.105 394.688 M160.000 396.800 C 160.000 397.020,160.405 397.197,160.900 397.194 C 161.628 397.189,161.685 397.114,161.200 396.800 C 160.424 396.299,160.000 396.299,160.000 396.800 " stroke="none" fill="#85a3bf" fill-rule="evenodd"></path></g></svg>