<svg id="svg" version="1.1" xmlns="http://www.w3.org/2000/svg" xmlns:xlink="http://www.w3.org/1999/xlink" width="400" height="400" viewBox="0, 0, 400,400"><g id="svgg"><path id="path0" d="M260.937 26.619 C 260.698 27.242,260.964 33.710,261.598 42.700 C 262.357 53.456,262.784 59.404,263.034 62.696 L 263.284 65.993 284.342 66.096 L 305.400 66.200 305.602 219.200 C 305.713 303.350,305.848 372.231,305.902 372.268 C 306.011 372.344,310.402 372.693,315.598 373.039 C 317.467 373.163,319.177 373.411,319.398 373.591 C 319.619 373.771,321.130 373.936,322.755 373.958 C 324.381 373.981,326.361 374.170,327.155 374.378 C 327.950 374.586,331.210 374.881,334.400 375.033 C 337.590 375.185,340.260 375.464,340.333 375.654 C 340.407 375.845,342.162 376.000,344.233 376.000 C 346.478 376.000,348.000 376.162,348.000 376.400 C 348.000 376.637,349.467 376.800,351.600 376.800 C 353.733 376.800,355.200 376.963,355.200 377.200 C 355.200 377.420,355.638 377.600,356.173 377.600 C 357.264 377.600,357.537 377.009,357.559 374.600 C 357.568 373.720,357.771 371.200,358.012 369.000 C 358.253 366.800,358.552 363.151,358.678 360.891 C 358.803 358.631,359.062 356.685,359.253 356.567 C 359.444 356.449,359.600 354.833,359.600 352.976 C 359.600 350.992,359.765 349.600,360.000 349.600 C 360.237 349.600,360.400 348.141,360.400 346.024 C 360.400 344.057,360.580 342.336,360.800 342.200 C 361.021 342.063,361.200 340.255,361.200 338.153 C 361.200 335.721,361.344 334.442,361.600 334.600 C 361.855 334.758,362.000 333.537,362.000 331.224 C 362.000 329.231,362.156 327.600,362.346 327.600 C 362.536 327.600,362.726 326.029,362.768 324.110 C 362.810 322.190,362.989 320.525,363.166 320.410 C 363.342 320.294,363.524 318.670,363.569 316.800 C 363.614 314.930,363.819 313.229,364.025 313.020 C 364.231 312.811,364.400 311.157,364.400 309.344 C 364.400 307.531,364.580 305.936,364.800 305.800 C 365.020 305.664,365.200 304.033,365.200 302.176 C 365.200 300.192,365.365 298.800,365.600 298.800 C 365.837 298.800,366.000 297.341,366.000 295.224 C 366.000 293.257,366.180 291.536,366.400 291.400 C 366.620 291.264,366.800 289.543,366.800 287.576 C 366.800 285.459,366.963 284.000,367.200 284.000 C 367.439 284.000,367.600 282.459,367.600 280.176 C 367.600 277.729,367.744 276.442,368.000 276.600 C 368.255 276.758,368.400 275.545,368.400 273.247 C 368.400 271.267,368.580 269.536,368.800 269.400 C 369.020 269.264,369.200 267.644,369.200 265.800 C 369.200 263.956,369.355 262.352,369.543 262.235 C 369.732 262.118,369.922 260.533,369.966 258.711 C 370.009 256.890,370.214 255.229,370.422 255.020 C 370.630 254.811,370.800 253.157,370.800 251.344 C 370.800 249.531,370.956 247.951,371.147 247.833 C 371.338 247.715,371.526 246.148,371.564 244.351 C 371.602 242.555,371.806 240.762,372.017 240.369 C 372.228 239.975,372.400 238.211,372.400 236.450 C 372.400 234.688,372.558 233.149,372.751 233.030 C 372.945 232.911,373.130 231.349,373.162 229.560 C 373.195 227.771,373.377 226.014,373.568 225.654 C 373.759 225.294,373.932 223.766,373.953 222.258 C 373.974 220.750,374.163 218.860,374.373 218.058 C 374.582 217.256,374.879 213.855,375.033 210.500 C 375.186 207.145,375.467 204.400,375.656 204.400 C 375.845 204.400,376.000 202.780,376.000 200.800 C 376.000 198.667,376.163 197.200,376.400 197.200 C 376.637 197.200,376.800 195.733,376.800 193.600 C 376.800 191.467,376.963 190.000,377.200 190.000 C 377.439 190.000,377.600 188.467,377.600 186.200 C 377.600 183.933,377.761 182.400,378.000 182.400 C 378.237 182.400,378.400 180.933,378.400 178.800 C 378.400 176.667,378.563 175.200,378.800 175.200 C 379.035 175.200,379.200 173.808,379.200 171.824 C 379.200 169.967,379.380 168.336,379.600 168.200 C 379.820 168.064,380.000 166.354,380.000 164.400 C 380.000 162.446,380.180 160.736,380.400 160.600 C 380.620 160.464,380.800 158.833,380.800 156.976 C 380.800 155.119,380.956 153.600,381.146 153.600 C 381.336 153.600,381.525 152.025,381.566 150.100 C 381.608 148.175,381.812 146.540,382.021 146.467 C 382.229 146.393,382.400 144.739,382.400 142.790 C 382.400 140.842,382.580 139.136,382.800 139.000 C 383.020 138.864,383.200 137.143,383.200 135.176 C 383.200 133.059,383.363 131.600,383.600 131.600 C 383.837 131.600,384.000 130.133,384.000 128.000 C 384.000 125.867,384.163 124.400,384.400 124.400 C 384.635 124.400,384.800 123.008,384.800 121.024 C 384.800 119.167,384.980 117.536,385.200 117.400 C 385.420 117.264,385.600 115.554,385.600 113.600 C 385.600 111.646,385.780 109.936,386.000 109.800 C 386.220 109.664,386.400 108.044,386.400 106.200 C 386.400 104.356,386.555 102.752,386.743 102.635 C 386.932 102.518,387.122 100.933,387.166 99.111 C 387.209 97.290,387.414 95.629,387.622 95.420 C 387.830 95.211,388.000 93.557,388.000 91.744 C 388.000 89.931,388.180 88.336,388.400 88.200 C 388.620 88.064,388.800 86.354,388.800 84.400 C 388.800 82.446,388.957 80.750,389.149 80.632 C 389.341 80.513,389.528 78.843,389.566 76.921 C 389.604 74.998,389.785 73.330,389.967 73.213 C 390.335 72.977,390.846 67.094,391.454 56.108 C 391.590 53.637,391.859 51.713,392.051 51.832 C 392.243 51.950,392.400 50.417,392.400 48.424 C 392.400 46.275,392.563 44.800,392.800 44.800 C 393.020 44.800,393.200 43.810,393.200 42.600 L 393.200 40.400 391.624 40.400 C 390.757 40.400,389.936 40.220,389.800 40.000 C 389.664 39.780,387.943 39.600,385.976 39.600 C 383.859 39.600,382.400 39.437,382.400 39.200 C 382.400 38.963,380.933 38.800,378.800 38.800 C 376.667 38.800,375.200 38.637,375.200 38.400 C 375.200 38.165,373.827 38.000,371.880 38.000 C 370.054 38.000,368.389 37.832,368.180 37.627 C 367.971 37.422,366.180 37.154,364.200 37.031 C 355.093 36.467,353.600 36.317,353.600 35.971 C 353.600 35.767,351.980 35.600,350.000 35.600 C 347.867 35.600,346.400 35.437,346.400 35.200 C 346.400 34.963,344.941 34.800,342.824 34.800 C 340.857 34.800,339.136 34.620,339.000 34.400 C 338.864 34.180,337.143 34.000,335.176 34.000 C 333.059 34.000,331.600 33.837,331.600 33.600 C 331.600 33.363,330.133 33.200,328.000 33.200 C 325.867 33.200,324.400 33.037,324.400 32.800 C 324.400 32.565,323.008 32.400,321.024 32.400 C 319.167 32.400,317.536 32.220,317.400 32.000 C 317.264 31.780,315.554 31.600,313.600 31.600 C 311.646 31.600,309.936 31.420,309.800 31.200 C 309.664 30.980,308.044 30.800,306.200 30.800 C 304.356 30.800,302.752 30.645,302.635 30.457 C 302.518 30.268,300.933 30.078,299.111 30.034 C 297.290 29.991,295.629 29.786,295.420 29.578 C 295.211 29.370,293.557 29.200,291.744 29.200 C 289.931 29.200,288.350 29.043,288.232 28.851 C 288.113 28.659,286.439 28.471,284.510 28.434 C 282.582 28.396,280.832 28.192,280.622 27.982 C 280.412 27.772,278.656 27.600,276.720 27.600 C 274.784 27.600,273.200 27.442,273.200 27.250 C 273.200 27.057,271.852 26.873,270.204 26.841 C 268.556 26.809,266.790 26.624,266.280 26.431 C 264.728 25.840,261.188 25.965,260.937 26.619 M200.000 146.014 L 200.000 162.048 202.236 167.524 C 203.466 170.536,204.726 173.585,205.036 174.300 C 205.618 175.641,206.328 177.296,207.441 179.900 C 207.793 180.725,208.220 181.760,208.390 182.200 C 208.560 182.640,209.104 183.900,209.600 185.000 C 210.096 186.100,210.640 187.360,210.810 187.800 C 210.980 188.240,211.428 189.320,211.807 190.200 C 212.185 191.080,212.723 192.340,213.001 193.000 C 213.279 193.660,213.888 195.053,214.353 196.096 C 214.819 197.138,215.200 198.079,215.200 198.186 C 215.200 198.293,215.739 199.557,216.398 200.996 L 217.596 203.612 229.455 203.506 C 239.523 203.416,241.358 203.309,241.613 202.800 C 242.073 201.880,243.663 198.299,244.011 197.400 C 244.181 196.960,244.698 195.747,245.160 194.704 C 245.622 193.662,246.000 192.735,246.000 192.646 C 246.000 192.512,251.139 180.209,252.368 177.400 C 252.561 176.960,253.007 175.925,253.359 175.100 C 253.712 174.275,254.288 172.925,254.641 172.100 C 254.993 171.275,255.420 170.240,255.590 169.800 C 255.978 168.794,257.570 165.229,258.044 164.305 C 258.240 163.923,258.400 163.338,258.400 163.005 C 258.400 162.672,258.580 162.400,258.800 162.400 C 259.020 162.400,259.200 162.128,259.200 161.795 C 259.200 161.462,259.359 160.877,259.553 160.495 C 259.748 160.113,260.090 159.350,260.313 158.800 C 260.537 158.250,261.098 156.947,261.560 155.904 C 262.022 154.862,262.400 153.935,262.400 153.846 C 262.400 153.712,267.539 141.409,268.768 138.600 C 269.198 137.618,270.187 135.303,271.034 133.300 C 271.382 132.475,271.832 131.487,272.034 131.105 C 272.235 130.723,272.400 130.316,272.400 130.199 C 272.400 130.083,267.065 130.036,260.543 130.094 C 247.734 130.209,248.642 130.046,247.687 132.400 C 247.464 132.950,246.993 134.075,246.641 134.900 C 246.288 135.725,245.712 137.075,245.359 137.900 C 245.007 138.725,244.536 139.850,244.313 140.400 C 244.089 140.950,243.748 141.713,243.553 142.095 C 243.359 142.477,243.200 143.062,243.200 143.395 C 243.200 143.728,243.020 144.000,242.800 144.000 C 242.580 144.000,242.400 144.272,242.400 144.605 C 242.400 144.938,242.241 145.523,242.047 145.905 C 241.852 146.287,241.510 147.050,241.287 147.600 C 241.063 148.150,240.502 149.453,240.040 150.496 C 239.578 151.538,239.200 152.485,239.200 152.600 C 239.200 152.715,238.858 153.572,238.439 154.504 C 237.284 157.077,233.804 165.444,232.577 168.600 C 230.500 173.937,230.257 173.862,227.654 167.100 C 227.463 166.605,227.079 165.660,226.800 165.000 C 226.521 164.340,226.155 163.440,225.987 163.000 C 225.819 162.560,225.393 161.525,225.041 160.700 C 224.688 159.875,224.112 158.525,223.759 157.700 C 223.407 156.875,222.981 155.840,222.813 155.400 C 222.645 154.960,222.279 154.060,222.000 153.400 C 221.511 152.242,221.121 151.263,220.647 150.000 C 220.524 149.670,218.649 145.080,216.482 139.800 L 212.542 130.200 206.271 130.090 L 200.000 129.980 200.000 146.014 M200.000 246.200 L 200.000 257.600 233.800 257.600 L 267.600 257.600 267.600 246.200 L 267.600 234.800 233.800 234.800 L 200.000 234.800 200.000 246.200 M200.181 276.506 C 200.074 276.784,200.035 281.959,200.093 288.006 L 200.200 299.000 233.000 299.110 C 251.040 299.171,266.205 299.122,266.700 299.002 L 267.600 298.785 267.600 287.872 C 267.600 279.918,267.470 276.830,267.120 276.480 C 266.401 275.761,200.457 275.786,200.181 276.506 M200.269 318.264 C 200.121 318.412,200.000 323.544,200.000 329.669 L 200.000 340.805 233.700 340.702 L 267.400 340.600 267.400 329.400 L 267.400 318.200 233.969 318.098 C 215.582 318.041,200.417 318.116,200.269 318.264 " stroke="none" fill="#142c3c" fill-rule="evenodd"></path><path id="path1" d="M77.200 208.720 C 77.200 318.880,77.092 351.148,76.720 351.520 C 76.399 351.841,76.385 352.000,76.677 352.000 C 77.573 352.000,77.600 347.793,77.600 208.767 L 77.600 66.800 138.805 66.800 L 200.010 66.800 199.905 98.191 L 199.800 129.582 206.551 129.691 L 213.301 129.800 215.653 135.800 C 216.946 139.100,218.207 142.250,218.455 142.800 C 218.704 143.350,219.063 144.205,219.254 144.700 C 219.444 145.195,219.804 146.095,220.054 146.700 C 220.303 147.305,220.645 148.160,220.814 148.600 C 220.982 149.040,221.498 150.253,221.960 151.296 C 222.422 152.338,222.800 153.356,222.800 153.558 C 222.800 153.759,223.186 154.706,223.657 155.662 C 224.478 157.327,224.963 158.461,225.600 160.200 C 225.881 160.968,226.517 162.504,227.255 164.200 C 227.447 164.640,228.207 166.509,228.945 168.353 C 229.683 170.197,230.383 171.547,230.500 171.353 C 230.617 171.159,231.560 168.930,232.595 166.400 C 234.663 161.347,235.100 160.311,236.353 157.504 C 236.819 156.462,237.200 155.515,237.200 155.400 C 237.200 155.285,237.578 154.338,238.040 153.296 C 238.502 152.253,239.019 151.040,239.189 150.600 C 239.359 150.160,239.904 148.900,240.400 147.800 C 240.896 146.700,241.480 145.350,241.697 144.800 C 241.915 144.250,242.252 143.487,242.447 143.105 C 242.641 142.723,242.800 142.138,242.800 141.805 C 242.800 141.472,242.980 141.200,243.200 141.200 C 243.420 141.200,243.600 140.928,243.600 140.596 C 243.600 140.263,243.978 139.138,244.440 138.096 C 244.902 137.053,245.423 135.840,245.599 135.400 C 245.775 134.960,246.195 133.967,246.533 133.194 C 246.872 132.421,247.335 131.296,247.564 130.694 L 247.980 129.600 260.390 129.600 L 272.800 129.600 272.800 130.562 C 272.800 131.091,272.414 132.306,271.943 133.262 C 271.472 134.218,270.950 135.360,270.784 135.800 C 270.502 136.545,269.845 138.098,268.583 141.000 C 268.296 141.660,267.128 144.450,265.987 147.200 C 264.846 149.950,263.644 152.830,263.315 153.600 C 262.987 154.370,262.580 155.360,262.410 155.800 C 262.240 156.240,261.696 157.500,261.200 158.600 C 260.704 159.700,260.164 160.960,260.000 161.400 C 259.836 161.840,259.296 163.100,258.800 164.200 C 258.304 165.300,257.760 166.560,257.590 167.000 C 257.266 167.840,256.533 169.585,255.447 172.100 C 255.091 172.925,254.510 174.275,254.156 175.100 C 253.802 175.925,253.262 177.123,252.956 177.761 C 252.650 178.400,252.400 179.077,252.400 179.266 C 252.400 179.454,252.051 180.372,251.624 181.304 C 251.197 182.237,249.915 185.250,248.776 188.000 C 247.637 190.750,246.347 193.810,245.910 194.800 C 244.910 197.065,244.012 199.166,243.600 200.200 C 243.425 200.640,242.985 201.675,242.622 202.500 L 241.962 204.000 229.371 204.000 L 216.780 204.000 216.391 202.976 C 216.177 202.413,215.551 200.968,215.001 199.765 C 214.450 198.561,214.000 197.429,214.000 197.250 C 214.000 197.070,213.750 196.400,213.444 195.761 C 212.924 194.676,212.403 193.490,211.047 190.300 C 210.744 189.585,210.185 188.280,209.807 187.400 C 209.428 186.520,208.980 185.440,208.810 185.000 C 208.640 184.560,208.096 183.300,207.600 182.200 C 207.104 181.100,206.564 179.840,206.400 179.400 C 206.236 178.960,205.696 177.700,205.200 176.600 C 204.704 175.500,204.160 174.240,203.990 173.800 C 203.820 173.360,203.412 172.370,203.082 171.600 C 202.752 170.830,201.910 168.760,201.209 167.000 C 200.509 165.240,199.765 163.440,199.556 163.000 L 199.175 162.200 199.488 163.000 C 199.840 163.903,200.148 231.705,199.806 233.098 L 199.586 233.996 157.293 234.129 C 134.032 234.202,149.425 234.186,191.500 234.094 L 268.000 233.926 268.000 245.963 L 268.000 258.000 234.000 258.000 L 200.000 258.000 200.000 266.800 L 200.000 275.600 234.006 275.600 L 268.012 275.600 267.906 287.700 L 267.800 299.800 233.360 299.800 C 210.249 299.800,199.101 299.932,199.469 300.201 C 199.909 300.523,199.996 302.222,199.909 308.801 L 199.800 317.000 157.618 317.102 C 126.624 317.177,115.325 317.325,115.018 317.661 C 114.772 317.930,114.764 318.032,115.000 317.909 C 115.220 317.794,149.735 317.571,191.700 317.413 L 268.000 317.126 268.000 329.363 L 268.000 341.600 234.000 341.600 L 200.000 341.600 200.000 370.800 L 200.000 400.000 253.010 400.000 L 306.020 400.000 305.801 385.700 C 305.680 377.835,305.495 302.895,305.390 219.166 L 305.198 66.932 273.699 66.666 C 256.375 66.520,205.075 66.400,159.700 66.400 L 77.200 66.400 77.200 208.720 M146.600 128.421 C 145.843 128.627,146.434 128.665,148.200 128.525 C 149.740 128.402,151.075 128.234,151.167 128.151 C 151.473 127.874,147.816 128.090,146.600 128.421 M157.633 128.146 C 157.725 128.226,158.790 128.400,160.000 128.532 C 161.437 128.688,161.922 128.648,161.400 128.414 C 160.643 128.075,157.279 127.836,157.633 128.146 M186.526 132.000 C 187.002 133.533,188.157 136.240,188.489 136.600 C 188.916 137.064,187.342 132.932,186.742 132.015 C 186.401 131.494,186.368 131.492,186.526 132.000 M128.000 135.649 C 126.606 136.871,126.605 136.872,127.888 136.019 C 128.596 135.548,129.282 134.991,129.412 134.781 C 129.797 134.157,129.477 134.354,128.000 135.649 M179.800 135.857 C 183.404 139.342,185.995 141.563,184.000 139.459 C 182.790 138.182,181.260 136.763,180.600 136.304 C 179.940 135.846,179.580 135.645,179.800 135.857 M124.752 138.008 C 124.175 138.439,123.032 139.648,122.211 140.696 C 121.063 142.161,121.013 142.278,121.995 141.200 C 122.697 140.430,123.930 139.218,124.736 138.506 C 126.362 137.069,126.371 136.799,124.752 138.008 M183.781 145.700 L 182.200 147.400 183.900 145.819 C 185.481 144.348,185.784 144.000,185.481 144.000 C 185.416 144.000,184.651 144.765,183.781 145.700 M179.781 149.300 L 178.200 151.000 179.900 149.419 C 181.481 147.948,181.784 147.600,181.481 147.600 C 181.416 147.600,180.651 148.365,179.781 149.300 M150.602 148.768 C 150.164 148.939,151.334 149.005,153.202 148.915 C 157.839 148.692,158.459 148.497,154.600 148.475 C 152.840 148.464,151.041 148.596,150.602 148.768 M143.985 152.029 L 142.600 153.258 144.100 152.181 C 145.426 151.230,145.857 150.800,145.485 150.800 C 145.422 150.800,144.747 151.353,143.985 152.029 M176.575 152.100 L 175.400 153.400 176.700 152.225 C 177.415 151.579,178.000 150.994,178.000 150.925 C 178.000 150.616,177.670 150.888,176.575 152.100 M168.386 154.500 C 169.589 155.765,170.849 156.795,171.186 156.788 C 171.833 156.776,174.597 154.463,174.309 154.176 C 174.217 154.084,173.626 154.546,172.996 155.204 C 171.443 156.825,170.976 156.733,168.413 154.300 L 166.200 152.200 168.386 154.500 M112.600 160.400 C 112.446 161.310,112.404 162.138,112.507 162.240 C 112.610 162.343,112.813 161.677,112.960 160.760 C 113.107 159.843,113.148 159.015,113.053 158.920 C 112.958 158.824,112.754 159.490,112.600 160.400 M137.857 163.500 C 137.540 165.417,137.569 168.164,137.927 170.181 C 138.105 171.187,138.207 169.987,138.207 166.881 C 138.207 161.436,138.204 161.400,137.857 163.500 M112.428 172.033 C 112.444 172.565,112.619 173.360,112.819 173.800 C 113.071 174.358,113.107 174.115,112.938 173.000 C 112.655 171.143,112.387 170.636,112.428 172.033 M138.412 172.800 C 138.412 173.130,138.587 173.670,138.800 174.000 C 139.145 174.533,139.188 174.533,139.188 174.000 C 139.188 173.670,139.013 173.130,138.800 172.800 C 138.455 172.267,138.412 172.267,138.412 172.800 M113.212 176.400 C 113.212 176.730,113.387 177.270,113.600 177.600 C 113.945 178.133,113.988 178.133,113.988 177.600 C 113.988 177.270,113.813 176.730,113.600 176.400 C 113.255 175.867,113.212 175.867,113.212 176.400 M171.014 176.781 C 171.462 176.962,172.069 177.401,172.363 177.755 C 172.657 178.110,173.070 178.400,173.280 178.400 C 173.490 178.400,173.127 177.950,172.473 177.400 C 171.819 176.850,171.040 176.411,170.742 176.425 C 170.444 176.439,170.566 176.599,171.014 176.781 M168.425 178.969 L 167.050 180.600 168.605 179.113 C 169.460 178.296,170.079 177.562,169.980 177.483 C 169.881 177.403,169.181 178.072,168.425 178.969 M174.800 179.712 C 174.800 179.816,176.007 180.959,177.482 182.251 C 178.957 183.543,180.037 184.394,179.883 184.141 C 179.539 183.576,174.800 179.447,174.800 179.712 M165.041 181.627 C 164.183 182.272,163.650 182.800,163.856 182.800 C 164.062 182.800,164.853 182.267,165.615 181.616 C 167.387 180.102,167.061 180.108,165.041 181.627 M117.000 186.000 C 117.341 186.660,117.711 187.200,117.821 187.200 C 117.931 187.200,117.741 186.660,117.400 186.000 C 117.059 185.340,116.689 184.800,116.579 184.800 C 116.469 184.800,116.659 185.340,117.000 186.000 M153.507 185.090 C 154.226 185.179,155.306 185.177,155.907 185.086 C 156.508 184.995,155.920 184.922,154.600 184.924 C 153.280 184.926,152.788 185.001,153.507 185.090 M183.753 187.740 C 185.682 189.568,186.431 190.541,186.257 190.995 C 186.113 191.371,186.174 191.539,186.405 191.397 C 187.254 190.872,186.689 190.021,183.900 187.625 L 181.000 185.133 183.753 187.740 M122.551 193.164 C 123.159 193.914,124.588 195.238,125.728 196.106 C 126.868 196.974,127.260 197.202,126.600 196.613 C 125.940 196.024,124.510 194.700,123.423 193.671 C 121.944 192.271,121.724 192.143,122.551 193.164 M183.123 194.609 C 182.091 195.594,181.379 196.400,181.540 196.400 C 181.701 196.400,182.628 195.590,183.600 194.600 C 185.877 192.280,185.558 192.286,183.123 194.609 M178.687 198.168 C 176.326 199.802,175.764 200.375,177.506 199.372 C 178.850 198.599,181.156 196.823,180.800 196.836 C 180.690 196.841,179.739 197.440,178.687 198.168 M128.269 198.032 C 128.766 198.633,131.200 200.164,131.200 199.876 C 131.200 199.783,130.435 199.202,129.500 198.585 C 128.565 197.968,128.011 197.720,128.269 198.032 M164.000 204.400 C 163.176 204.664,163.141 204.726,163.800 204.754 C 164.240 204.773,164.870 204.613,165.200 204.400 C 165.901 203.947,165.414 203.947,164.000 204.400 M147.800 205.183 C 149.008 205.507,153.077 205.728,152.767 205.452 C 152.675 205.371,151.250 205.204,149.600 205.082 C 147.769 204.947,147.068 204.986,147.800 205.183 M157.800 205.200 L 155.400 205.466 157.600 205.505 C 158.810 205.526,160.160 205.389,160.600 205.200 C 161.492 204.817,161.264 204.817,157.800 205.200 M135.931 275.900 C 147.662 275.959,166.742 275.959,178.331 275.900 C 189.919 275.841,180.320 275.793,157.000 275.793 C 133.680 275.793,124.199 275.841,135.931 275.900 M135.900 341.500 C 147.615 341.559,166.785 341.559,178.500 341.500 C 190.215 341.441,180.630 341.393,157.200 341.393 C 133.770 341.393,124.185 341.441,135.900 341.500 " stroke="none" fill="#6ccbf3" fill-rule="evenodd"></path><path id="path2" d="M77.600 208.767 C 77.600 350.921,77.592 352.000,76.557 352.000 C 76.087 352.000,76.000 355.753,76.000 376.000 L 76.000 400.000 138.000 400.000 L 200.000 400.000 200.000 370.800 L 200.000 341.600 157.394 341.600 L 114.788 341.600 114.894 329.500 L 115.000 317.400 157.400 317.200 L 199.800 317.000 199.909 308.801 C 200.006 301.445,199.947 300.550,199.332 300.101 C 198.794 299.707,189.672 299.600,156.724 299.600 L 114.800 299.600 114.800 287.600 L 114.800 275.600 157.400 275.600 L 200.000 275.600 200.000 266.800 L 200.000 258.000 157.400 258.000 L 114.800 258.000 114.800 246.000 L 114.800 234.000 157.157 234.000 C 195.412 234.000,199.538 233.939,199.757 233.367 C 200.309 231.929,200.012 165.477,199.444 163.400 C 198.852 161.233,197.699 158.240,196.169 154.895 C 195.636 153.730,195.200 152.690,195.200 152.584 C 195.200 152.478,194.822 151.538,194.360 150.496 C 193.898 149.453,193.381 148.240,193.211 147.800 C 193.041 147.360,192.496 146.100,192.000 145.000 C 191.504 143.900,190.960 142.640,190.790 142.200 C 190.399 141.185,189.510 139.106,188.482 136.800 C 186.316 131.941,185.648 129.957,186.120 129.783 C 186.384 129.686,189.570 129.560,193.200 129.503 L 199.800 129.400 199.902 98.100 L 200.005 66.800 138.802 66.800 L 77.600 66.800 77.600 208.767 M163.600 128.773 C 164.810 129.026,166.387 129.336,167.104 129.461 C 167.821 129.586,168.506 129.849,168.627 130.044 C 168.748 130.240,169.125 130.400,169.465 130.400 C 173.025 130.400,187.264 140.726,186.731 142.922 C 186.659 143.220,184.191 145.609,181.247 148.232 C 178.302 150.854,174.972 153.852,173.847 154.893 C 171.248 157.297,171.221 157.294,167.995 154.251 C 155.559 142.519,138.253 149.680,138.211 166.576 C 138.168 183.880,155.802 191.141,168.287 178.959 C 171.394 175.928,170.958 176.003,173.249 178.104 C 174.266 179.037,177.731 182.121,180.949 184.958 C 187.646 190.862,187.419 190.373,184.808 193.275 C 179.499 199.179,171.766 203.229,162.600 204.906 C 158.004 205.747,145.415 205.421,143.000 204.399 C 142.560 204.213,141.750 203.969,141.200 203.858 C 135.726 202.751,127.334 198.243,123.662 194.438 C 117.595 188.152,114.858 183.058,112.839 174.294 C 112.171 171.397,112.287 161.901,113.030 158.600 C 113.377 157.060,113.752 155.350,113.863 154.800 C 114.246 152.907,118.402 144.998,119.853 143.400 C 120.652 142.520,121.763 141.202,122.322 140.472 C 124.703 137.359,134.063 131.448,138.400 130.319 C 139.170 130.119,140.430 129.773,141.200 129.550 C 146.413 128.043,158.163 127.635,163.600 128.773 " stroke="none" fill="#b3e3fb" fill-rule="evenodd"></path><path id="path3" d="M192.000 4.000 C 192.000 4.247,189.941 4.400,186.624 4.400 C 183.471 4.400,181.145 4.565,181.000 4.800 C 180.855 5.034,178.537 5.200,175.400 5.200 C 172.263 5.200,169.945 5.366,169.800 5.600 C 169.655 5.834,167.337 6.000,164.200 6.000 C 161.063 6.000,158.745 6.166,158.600 6.400 C 158.454 6.636,156.055 6.800,152.753 6.800 C 149.121 6.800,147.240 6.941,147.400 7.200 C 147.560 7.459,145.671 7.600,142.024 7.600 C 138.931 7.600,136.400 7.755,136.400 7.945 C 136.400 8.134,133.385 8.397,129.700 8.528 C 126.015 8.659,121.380 8.873,119.400 9.003 C 117.420 9.133,113.189 9.373,109.997 9.536 C 106.806 9.699,104.003 9.951,103.769 10.096 C 103.535 10.240,100.926 10.386,97.971 10.420 C 95.017 10.454,92.415 10.632,92.188 10.816 C 91.962 11.001,89.532 11.249,86.788 11.368 C 82.103 11.571,78.626 11.794,64.400 12.807 C 61.210 13.033,56.260 13.315,53.400 13.432 C 50.540 13.549,48.029 13.815,47.820 14.022 C 47.611 14.230,45.057 14.400,42.144 14.400 C 39.044 14.400,36.745 14.566,36.600 14.800 C 36.455 15.035,34.129 15.200,30.976 15.200 C 27.659 15.200,25.600 15.353,25.600 15.600 C 25.600 15.848,23.475 16.000,20.024 16.000 C 16.737 16.000,14.346 16.164,14.200 16.400 C 14.064 16.620,12.343 16.800,10.376 16.800 L 6.800 16.800 6.800 19.800 C 6.800 21.533,6.969 22.800,7.200 22.800 C 7.447 22.800,7.600 24.840,7.600 28.120 C 7.600 31.046,7.772 33.612,7.982 33.822 C 8.192 34.032,8.390 36.768,8.422 39.902 C 8.453 43.036,8.596 45.601,8.739 45.602 C 8.883 45.603,9.000 47.538,9.000 49.902 C 9.000 52.266,9.129 54.830,9.287 55.600 C 9.445 56.370,9.595 58.710,9.619 60.800 C 9.644 62.890,9.817 65.320,10.004 66.200 C 10.191 67.080,10.388 70.050,10.442 72.800 C 10.496 75.550,10.678 77.985,10.846 78.212 C 11.014 78.438,11.249 80.868,11.367 83.612 C 11.485 86.355,11.771 91.210,12.001 94.400 C 12.232 97.590,12.516 102.630,12.632 105.600 C 12.749 108.570,13.014 111.171,13.222 111.380 C 13.430 111.589,13.600 114.118,13.600 117.000 C 13.600 119.882,13.772 122.412,13.982 122.622 C 14.192 122.832,14.390 125.477,14.422 128.500 C 14.456 131.635,14.635 133.902,14.840 133.775 C 15.047 133.647,15.200 136.019,15.200 139.343 C 15.200 142.676,15.363 145.190,15.583 145.267 C 15.799 145.342,15.992 147.807,16.024 150.900 C 16.055 153.925,16.243 156.400,16.440 156.400 C 16.638 156.400,16.800 158.729,16.800 161.576 C 16.800 164.596,16.967 166.856,17.200 167.000 C 17.434 167.145,17.600 169.463,17.600 172.600 C 17.600 175.737,17.766 178.055,18.000 178.200 C 18.234 178.345,18.400 180.663,18.400 183.800 C 18.400 186.937,18.566 189.255,18.800 189.400 C 19.034 189.545,19.200 191.863,19.200 195.000 C 19.200 198.137,19.366 200.455,19.600 200.600 C 19.834 200.745,20.000 203.063,20.000 206.200 C 20.000 209.337,20.166 211.655,20.400 211.800 C 20.635 211.945,20.800 214.271,20.800 217.424 C 20.800 220.741,20.953 222.800,21.200 222.800 C 21.447 222.800,21.600 224.859,21.600 228.176 C 21.600 231.329,21.765 233.655,22.000 233.800 C 22.234 233.945,22.400 236.263,22.400 239.400 C 22.400 242.537,22.566 244.855,22.800 245.000 C 23.034 245.145,23.200 247.463,23.200 250.600 C 23.200 253.737,23.366 256.055,23.600 256.200 C 23.834 256.345,24.000 258.644,24.000 261.744 C 24.000 264.657,24.165 267.211,24.367 267.420 C 24.569 267.629,24.839 270.500,24.967 273.800 C 25.291 282.175,25.467 285.672,25.760 289.600 C 25.899 291.470,26.075 294.551,26.150 296.447 C 26.226 298.343,26.389 300.059,26.514 300.260 C 26.638 300.461,26.778 302.960,26.825 305.813 C 26.871 308.666,27.047 311.180,27.215 311.400 C 27.383 311.620,27.637 314.230,27.779 317.200 C 27.921 320.170,28.213 325.120,28.428 328.200 C 28.643 331.280,28.915 336.134,29.033 338.987 C 29.151 341.840,29.397 344.360,29.580 344.587 C 29.764 344.814,29.943 347.156,29.979 349.790 C 30.023 353.002,30.202 354.681,30.522 354.884 C 31.212 355.323,37.522 355.270,38.365 354.819 C 38.757 354.609,41.356 354.410,44.142 354.376 C 46.927 354.342,49.293 354.173,49.401 353.999 C 49.508 353.825,51.981 353.656,54.897 353.623 C 57.812 353.590,60.369 353.391,60.579 353.181 C 60.788 352.972,63.343 352.800,66.256 352.800 C 69.356 352.800,71.655 352.634,71.800 352.400 C 71.936 352.180,72.991 352.000,74.144 352.000 C 75.297 352.000,76.456 351.784,76.720 351.520 C 77.092 351.148,77.200 318.880,77.200 208.720 L 77.200 66.400 159.700 66.400 C 205.075 66.400,256.375 66.520,273.700 66.666 L 305.200 66.932 305.299 219.166 L 305.399 371.400 305.500 219.221 C 305.556 135.522,305.466 66.907,305.301 66.743 C 305.135 66.578,281.375 66.316,252.500 66.158 L 200.000 65.873 200.000 34.736 L 200.000 3.600 196.000 3.600 C 193.600 3.600,192.000 3.760,192.000 4.000 M147.600 128.597 C 138.266 129.776,126.346 135.345,123.034 140.073 C 122.747 140.482,121.895 141.488,121.139 142.309 C 110.364 154.010,109.534 175.772,119.355 189.088 C 120.040 190.016,120.750 190.781,120.934 190.788 C 121.117 190.794,120.740 190.125,120.096 189.300 C 117.512 185.993,114.927 180.429,114.103 176.400 C 113.855 175.190,113.460 173.241,113.226 172.069 C 111.954 165.708,113.532 156.087,116.965 149.269 C 121.479 140.306,130.440 133.214,140.800 130.405 C 141.790 130.136,143.013 129.755,143.519 129.558 C 144.024 129.361,145.249 129.200,146.242 129.200 C 147.234 129.200,149.315 128.990,150.865 128.734 C 160.976 127.065,175.439 131.921,183.274 139.618 C 186.608 142.893,186.618 142.562,183.104 145.653 C 181.512 147.054,179.307 149.022,178.204 150.027 C 170.633 156.928,171.346 156.589,169.147 154.343 C 165.942 151.068,161.017 148.343,158.485 148.443 C 157.700 148.474,157.897 148.594,159.200 148.878 C 160.190 149.094,161.171 149.435,161.380 149.635 C 161.589 149.836,162.004 150.000,162.302 150.000 C 163.117 150.000,167.187 152.901,168.981 154.761 C 171.167 157.027,170.959 157.127,179.000 149.931 C 187.411 142.403,187.125 142.960,184.139 139.925 C 175.058 130.696,162.296 126.740,147.600 128.597 M186.208 129.988 C 186.076 130.201,186.327 131.056,186.766 131.888 C 187.210 132.728,187.572 133.100,187.582 132.724 C 187.592 132.352,187.420 131.936,187.200 131.800 C 186.980 131.664,186.800 131.208,186.800 130.786 C 186.800 130.066,187.205 130.012,193.500 129.899 L 200.200 129.779 193.324 129.690 C 189.215 129.636,186.351 129.756,186.208 129.988 M213.260 131.268 C 214.052 132.875,214.421 133.731,215.213 135.800 C 215.840 137.436,217.212 140.171,217.006 139.373 C 216.488 137.370,213.246 129.815,212.847 129.682 C 212.604 129.601,212.790 130.315,213.260 131.268 M271.901 132.086 C 271.516 132.993,271.276 133.809,271.367 133.900 C 271.617 134.150,272.897 131.288,272.738 130.834 C 272.662 130.615,272.285 131.179,271.901 132.086 M188.484 136.034 C 189.752 139.302,191.359 142.774,191.526 142.607 C 191.641 142.493,191.542 141.994,191.307 141.499 C 190.173 139.113,189.200 136.771,189.200 136.428 C 189.200 136.219,188.989 135.917,188.732 135.758 C 188.434 135.574,188.344 135.674,188.484 136.034 M244.223 138.606 C 243.315 140.780,243.476 141.311,244.416 139.240 C 244.855 138.273,245.132 137.398,245.031 137.297 C 244.930 137.196,244.566 137.785,244.223 138.606 M242.800 141.976 C 242.800 142.403,242.620 142.864,242.400 143.000 C 242.180 143.136,242.000 143.537,242.000 143.890 C 242.000 144.756,242.255 144.445,242.993 142.679 C 243.352 141.820,243.441 141.200,243.205 141.200 C 242.982 141.200,242.800 141.549,242.800 141.976 M267.384 142.870 C 267.226 143.381,266.736 144.572,266.297 145.515 C 265.857 146.459,265.588 147.322,265.699 147.433 C 265.810 147.544,266.381 146.435,266.968 144.968 C 267.555 143.502,267.954 142.221,267.854 142.121 C 267.755 142.021,267.543 142.358,267.384 142.870 M191.717 143.700 C 192.422 145.447,196.962 156.082,197.565 157.400 C 197.967 158.280,198.426 159.419,198.584 159.930 C 198.743 160.442,198.953 160.780,199.051 160.682 C 199.280 160.454,198.060 157.309,195.647 151.904 C 195.181 150.862,194.800 149.915,194.800 149.800 C 194.800 149.685,194.419 148.738,193.953 147.696 C 193.488 146.653,192.849 145.215,192.535 144.500 C 192.007 143.301,191.260 142.570,191.717 143.700 M240.178 148.300 C 239.815 149.125,239.375 150.160,239.199 150.600 C 239.023 151.040,238.502 152.253,238.040 153.296 C 237.578 154.338,237.200 155.285,237.200 155.400 C 237.200 155.515,236.822 156.462,236.360 157.504 C 235.898 158.547,235.361 159.760,235.167 160.200 C 233.425 164.148,231.230 169.764,231.374 169.908 C 231.525 170.059,232.800 167.411,232.800 166.947 C 232.800 166.861,233.178 165.938,233.640 164.896 C 234.102 163.853,234.624 162.640,234.800 162.200 C 234.976 161.760,235.498 160.547,235.960 159.504 C 236.422 158.462,236.800 157.515,236.800 157.400 C 236.800 157.285,237.181 156.338,237.647 155.296 C 239.867 150.324,241.263 146.800,241.013 146.800 C 240.916 146.800,240.541 147.475,240.178 148.300 M153.100 148.289 C 153.815 148.378,154.985 148.378,155.700 148.289 C 156.415 148.201,155.830 148.128,154.400 148.128 C 152.970 148.128,152.385 148.201,153.100 148.289 M264.605 149.449 C 264.272 150.246,264.000 150.961,264.000 151.039 C 264.000 151.116,263.460 152.359,262.800 153.800 C 262.140 155.241,261.600 156.500,261.600 156.598 C 261.600 156.696,261.164 157.730,260.631 158.895 C 259.268 161.875,257.979 165.200,258.187 165.200 C 258.350 165.200,259.280 163.240,259.990 161.400 C 260.160 160.960,260.704 159.700,261.200 158.600 C 261.696 157.500,262.240 156.240,262.410 155.800 C 262.580 155.360,262.993 154.370,263.328 153.600 C 264.552 150.789,265.584 148.000,265.400 148.000 C 265.296 148.000,264.938 148.652,264.605 149.449 M148.356 148.988 C 141.252 151.603,137.464 157.797,137.464 166.800 C 137.465 171.806,137.589 172.432,139.384 176.512 C 141.138 180.500,146.767 184.652,150.950 185.044 C 152.587 185.197,152.584 185.194,150.600 184.668 C 133.835 180.219,132.954 154.752,149.370 149.149 C 150.487 148.768,151.040 148.456,150.600 148.456 C 150.160 148.456,149.150 148.696,148.356 148.988 M221.913 152.219 C 222.284 153.220,222.639 153.882,222.703 153.691 C 222.831 153.306,221.693 150.400,221.414 150.400 C 221.317 150.400,221.542 151.219,221.913 152.219 M223.606 156.400 C 224.043 157.500,224.769 159.330,225.221 160.468 C 225.672 161.605,226.383 163.285,226.800 164.200 C 227.468 165.666,228.489 168.157,229.647 171.143 C 230.024 172.115,231.217 171.734,231.188 170.651 C 231.181 170.403,230.977 170.542,230.734 170.960 C 230.352 171.619,230.113 171.272,228.948 168.360 C 228.209 166.512,227.399 164.550,227.148 164.000 C 226.898 163.450,226.537 162.595,226.346 162.100 C 226.156 161.605,225.796 160.705,225.546 160.100 C 225.297 159.495,224.955 158.640,224.787 158.200 C 224.101 156.404,223.152 154.400,222.987 154.400 C 222.891 154.400,223.169 155.300,223.606 156.400 M200.000 164.032 C 200.000 164.201,202.119 169.397,203.208 171.900 C 203.424 172.395,203.757 173.205,203.949 173.700 C 204.141 174.195,204.704 175.500,205.200 176.600 C 205.696 177.700,206.240 178.960,206.410 179.400 C 207.120 181.240,208.050 183.200,208.213 183.200 C 208.421 183.200,207.132 179.875,205.769 176.895 C 205.236 175.730,204.800 174.690,204.800 174.584 C 204.800 174.478,204.419 173.538,203.953 172.496 C 202.558 169.371,202.100 168.288,201.373 166.400 C 200.760 164.808,200.000 163.498,200.000 164.032 M256.692 168.083 C 255.111 172.029,254.851 172.816,255.195 172.603 C 255.418 172.465,255.600 172.181,255.600 171.972 C 255.600 171.763,255.983 170.776,256.451 169.780 C 256.919 168.784,257.212 167.878,257.101 167.767 C 256.990 167.656,256.806 167.798,256.692 168.083 M168.150 179.365 C 165.967 181.554,163.721 183.031,161.443 183.772 C 161.026 183.908,160.795 184.129,160.930 184.263 C 161.445 184.778,165.783 182.202,168.186 179.953 C 171.175 177.158,171.283 177.145,173.625 179.311 C 175.828 181.349,180.977 185.928,183.846 188.400 C 186.478 190.668,186.484 190.568,183.500 193.578 C 178.996 198.119,173.223 201.464,167.000 203.136 C 161.849 204.521,154.706 205.305,152.000 204.782 C 151.010 204.591,149.133 204.427,147.828 204.417 C 146.524 204.408,144.859 204.220,144.128 204.000 C 143.398 203.780,142.215 203.444,141.500 203.254 C 138.127 202.356,136.363 201.708,133.457 200.297 C 129.920 198.579,124.856 194.884,122.899 192.592 C 122.183 191.754,121.512 191.155,121.406 191.261 C 121.113 191.554,125.100 195.384,127.800 197.403 C 132.475 200.900,140.366 204.083,145.800 204.663 C 146.680 204.757,148.905 205.002,150.745 205.208 C 162.245 206.494,175.291 202.135,183.493 194.265 C 186.612 191.272,186.874 190.565,185.351 189.261 C 184.718 188.719,182.760 186.976,181.000 185.388 C 169.894 175.364,171.423 176.081,168.150 179.365 M251.418 180.618 C 251.072 181.446,250.871 182.205,250.971 182.305 C 251.071 182.405,251.436 181.809,251.782 180.982 C 252.128 180.154,252.329 179.395,252.229 179.295 C 252.129 179.195,251.764 179.791,251.418 180.618 M249.833 184.433 C 249.440 185.324,249.205 186.138,249.309 186.243 C 249.414 186.348,249.800 185.683,250.167 184.767 C 251.034 182.600,250.762 182.328,249.833 184.433 M157.800 184.800 L 156.600 185.105 158.000 185.147 C 158.770 185.169,159.670 185.013,160.000 184.800 C 160.739 184.323,159.676 184.323,157.800 184.800 M209.230 185.839 C 209.213 186.080,209.459 186.800,209.775 187.439 C 210.092 188.077,210.547 189.120,210.787 189.755 C 211.026 190.391,211.311 190.822,211.419 190.714 C 211.527 190.606,211.085 189.366,210.437 187.959 C 209.789 186.551,209.246 185.597,209.230 185.839 M248.385 187.839 C 247.932 189.032,247.479 190.087,246.047 193.296 C 245.581 194.338,245.200 195.279,245.200 195.386 C 245.200 195.493,244.692 196.709,244.070 198.090 C 243.449 199.470,242.694 201.230,242.393 202.000 C 242.092 202.770,241.655 203.532,241.423 203.694 C 241.140 203.891,241.159 203.990,241.481 203.994 C 241.905 203.999,242.540 202.863,243.600 200.200 C 244.037 199.102,245.080 196.666,245.784 195.100 C 247.506 191.271,249.165 187.032,249.005 186.872 C 248.905 186.771,248.626 187.206,248.385 187.839 M214.028 197.051 C 213.988 197.694,215.210 200.524,215.432 200.302 C 215.534 200.200,215.266 199.325,214.837 198.358 C 214.408 197.391,214.044 196.803,214.028 197.051 M211.600 234.293 C 243.481 234.569,268.000 234.572,268.000 234.300 C 268.000 234.135,252.565 234.042,233.700 234.094 C 214.835 234.146,204.890 234.235,211.600 234.293 M114.894 246.100 L 115.000 257.800 191.500 257.802 L 268.000 257.803 191.600 257.701 L 115.200 257.598 115.200 246.201 L 115.200 234.804 157.100 234.700 L 199.000 234.596 156.894 234.498 L 114.788 234.400 114.894 246.100 M157.094 275.900 L 114.788 276.004 114.894 287.702 L 115.000 299.400 191.143 299.737 C 251.551 300.004,267.381 299.971,267.743 299.578 C 268.099 299.192,268.023 299.146,267.400 299.372 C 266.960 299.531,232.535 299.530,190.900 299.371 L 115.200 299.081 115.200 287.799 L 115.200 276.517 191.178 276.221 C 232.966 276.058,267.346 276.043,267.578 276.186 C 267.810 276.330,268.000 276.257,268.000 276.024 C 268.000 275.728,257.636 275.630,233.700 275.698 C 214.835 275.752,180.362 275.843,157.094 275.900 M157.600 317.597 L 115.000 317.800 114.894 329.500 L 114.788 341.200 140.094 341.200 C 154.012 341.200,188.485 341.320,216.700 341.466 C 257.046 341.676,268.000 341.628,268.000 341.243 C 268.000 340.973,267.810 340.870,267.579 341.013 C 267.347 341.156,232.967 341.140,191.179 340.978 L 115.200 340.682 115.200 329.401 L 115.200 318.119 190.900 317.828 C 232.535 317.669,266.915 317.661,267.300 317.812 C 267.710 317.972,268.000 317.902,268.000 317.643 C 268.000 317.180,247.001 317.172,157.600 317.597 " stroke="none" fill="#3c8cb4" fill-rule="evenodd"></path><path id="path4" d="M247.155 0.178 C 247.057 0.276,244.732 0.386,241.989 0.422 C 239.245 0.458,236.713 0.639,236.361 0.825 C 236.010 1.011,233.400 1.189,230.561 1.222 C 227.723 1.254,225.214 1.432,224.988 1.616 C 224.761 1.801,222.188 1.993,219.271 2.042 C 216.353 2.092,213.873 2.282,213.759 2.466 C 213.646 2.650,211.133 2.800,208.176 2.800 C 204.859 2.800,202.800 2.953,202.800 3.200 C 202.800 3.420,202.170 3.600,201.400 3.600 L 200.000 3.600 200.000 34.800 L 200.000 66.000 228.900 66.056 C 244.795 66.086,268.538 66.221,281.662 66.356 C 294.786 66.490,305.441 66.465,305.339 66.300 C 305.236 66.135,295.732 66.000,284.219 66.000 L 263.285 66.000 263.034 62.700 C 262.896 60.885,262.610 56.970,262.398 54.000 C 262.186 51.030,261.809 45.900,261.562 42.600 C 261.314 39.300,261.071 33.945,261.022 30.700 C 260.973 27.455,260.813 24.680,260.667 24.533 C 260.520 24.387,260.400 22.047,260.400 19.333 C 260.400 15.657,260.273 14.398,259.900 14.394 C 259.561 14.390,259.593 14.251,260.000 13.963 C 260.452 13.644,260.476 13.489,260.100 13.336 C 259.742 13.191,259.600 11.861,259.600 8.647 C 259.600 5.611,259.438 3.986,259.100 3.621 C 258.700 3.190,258.700 3.139,259.100 3.365 C 259.430 3.551,259.600 3.366,259.600 2.824 C 259.600 2.371,259.420 2.000,259.200 2.000 C 258.980 2.000,258.800 1.550,258.800 1.000 L 258.800 0.000 253.067 0.000 C 249.913 0.000,247.253 0.080,247.155 0.178 M150.200 128.823 C 149.320 129.005,147.663 129.164,146.519 129.177 C 145.374 129.190,144.024 129.361,143.519 129.558 C 143.013 129.755,141.790 130.136,140.800 130.405 C 127.232 134.083,116.729 144.688,114.062 157.400 C 112.971 162.602,112.800 163.875,112.800 166.800 C 112.800 168.526,112.992 170.898,113.226 172.069 C 113.460 173.241,113.854 175.190,114.100 176.400 C 116.628 188.817,127.435 199.493,141.200 203.173 C 142.190 203.438,143.553 203.822,144.228 204.027 C 144.904 204.232,146.524 204.408,147.828 204.417 C 149.133 204.427,151.010 204.591,152.000 204.782 C 154.706 205.305,161.849 204.521,167.000 203.136 C 173.223 201.464,178.996 198.119,183.500 193.578 C 186.484 190.568,186.478 190.668,183.846 188.400 C 180.977 185.928,175.828 181.349,173.625 179.311 C 171.327 177.185,170.966 177.193,168.783 179.420 C 158.339 190.081,141.211 186.095,137.762 172.200 C 137.329 170.453,137.397 162.870,137.864 160.979 C 141.266 147.188,158.554 143.520,169.147 154.343 C 171.346 156.589,170.633 156.928,178.204 150.027 C 179.307 149.022,181.512 147.054,183.104 145.653 C 186.618 142.562,186.608 142.893,183.274 139.618 C 175.276 131.761,160.038 126.788,150.200 128.823 M193.500 129.899 C 186.411 130.026,186.227 130.084,187.153 131.905 C 187.348 132.287,187.689 133.050,187.913 133.600 C 188.136 134.150,188.607 135.275,188.959 136.100 C 189.312 136.925,189.888 138.275,190.241 139.100 C 190.593 139.925,191.020 140.960,191.190 141.400 C 191.360 141.840,191.863 143.010,192.309 144.000 C 194.173 148.144,194.800 149.603,194.800 149.800 C 194.800 149.915,195.160 150.817,195.600 151.804 C 196.040 152.792,196.739 154.365,197.153 155.300 C 197.567 156.235,198.398 158.440,199.000 160.200 C 199.602 161.960,200.433 164.163,200.847 165.096 C 201.261 166.028,201.600 166.861,201.600 166.947 C 201.600 167.382,202.870 170.064,203.010 169.924 C 203.099 169.834,202.464 168.060,201.598 165.980 L 200.025 162.200 200.012 146.100 L 200.000 130.000 206.180 130.000 C 211.644 130.000,212.408 130.081,212.768 130.700 C 212.992 131.085,213.181 131.211,213.188 130.980 C 213.230 129.518,213.612 129.539,193.500 129.899 M248.324 130.300 C 247.994 130.685,247.408 131.810,247.021 132.800 C 246.634 133.790,245.974 135.467,245.554 136.526 C 245.134 137.586,244.973 138.340,245.195 138.203 C 245.418 138.065,245.600 137.781,245.600 137.572 C 245.600 137.363,245.978 136.338,246.440 135.296 C 246.902 134.253,247.463 132.950,247.686 132.400 C 248.646 130.039,247.696 130.200,260.706 130.200 C 267.316 130.200,272.640 130.065,272.538 129.900 C 272.092 129.179,248.958 129.561,248.324 130.300 M270.764 133.894 C 270.535 134.496,270.072 135.621,269.733 136.394 C 269.395 137.167,268.961 138.160,268.768 138.600 C 266.070 144.767,262.427 153.760,262.569 153.902 C 262.724 154.057,264.000 151.421,264.000 150.947 C 264.000 150.799,264.385 149.909,266.353 145.504 C 266.819 144.462,267.200 143.515,267.200 143.400 C 267.200 143.285,267.581 142.338,268.047 141.296 C 270.350 136.137,271.661 132.800,271.384 132.800 C 271.272 132.800,270.993 133.292,270.764 133.894 M215.650 137.818 C 216.586 140.425,220.208 149.095,220.489 149.400 C 220.691 149.620,220.503 148.900,220.071 147.800 C 216.930 139.813,216.236 138.153,215.891 137.800 C 215.631 137.534,215.550 137.540,215.650 137.818 M236.667 157.667 C 235.813 159.839,236.060 160.086,237.000 158.000 C 237.399 157.116,237.635 156.302,237.525 156.192 C 237.415 156.081,237.029 156.745,236.667 157.667 M233.632 164.900 C 231.637 170.065,230.698 171.846,230.046 171.700 C 229.521 171.582,229.444 172.256,229.947 172.567 C 230.454 172.880,231.377 171.653,232.179 169.600 C 232.566 168.610,233.221 166.945,233.635 165.900 C 234.049 164.855,234.296 164.000,234.184 164.000 C 234.072 164.000,233.824 164.405,233.632 164.900 M256.629 167.261 C 256.036 168.451,255.776 169.557,256.187 169.146 C 256.500 168.833,257.623 166.000,257.435 166.000 C 257.338 166.000,256.975 166.568,256.629 167.261 M254.385 172.639 C 254.145 173.271,253.672 174.421,253.333 175.194 C 252.995 175.967,252.562 176.960,252.370 177.400 C 249.557 183.868,246.848 190.581,246.993 190.726 C 247.094 190.828,247.374 190.394,247.615 189.761 C 248.068 188.568,248.521 187.513,249.953 184.304 C 250.419 183.262,250.800 182.315,250.800 182.200 C 250.800 182.085,251.153 181.228,251.584 180.296 C 253.286 176.615,255.178 171.844,255.005 171.672 C 254.905 171.571,254.626 172.006,254.385 172.639 M209.407 185.479 C 210.082 187.093,210.400 187.558,210.400 186.928 C 210.400 186.431,209.209 184.000,208.965 184.000 C 208.868 184.000,209.067 184.666,209.407 185.479 M212.026 191.667 C 212.486 192.832,213.267 194.689,213.761 195.793 C 214.256 196.897,215.081 198.880,215.595 200.200 C 217.190 204.301,216.110 204.000,229.229 204.000 C 240.697 204.000,242.000 203.906,242.000 203.077 C 242.000 202.785,241.841 202.799,241.520 203.120 C 241.169 203.471,237.901 203.600,229.315 203.600 L 217.591 203.600 216.395 200.990 C 215.738 199.554,215.200 198.293,215.200 198.186 C 215.200 198.079,214.819 197.138,214.353 196.096 C 212.253 191.395,212.000 190.786,212.000 190.428 C 212.000 190.219,211.818 189.935,211.595 189.797 C 211.373 189.660,211.567 190.501,212.026 191.667 M157.100 234.699 L 115.200 234.804 115.200 246.202 L 115.200 257.600 157.600 257.600 L 200.000 257.600 200.000 246.200 L 200.000 234.800 233.794 234.800 L 267.588 234.800 267.703 246.100 L 267.818 257.400 267.809 246.000 L 267.800 234.600 233.400 234.597 C 214.480 234.595,180.145 234.641,157.100 234.699 M157.300 276.300 L 115.200 276.404 115.200 287.742 L 115.200 299.081 190.900 299.371 C 232.535 299.530,266.918 299.537,267.306 299.385 C 268.300 298.997,268.198 276.388,267.200 276.083 C 266.716 275.935,266.696 276.002,267.100 276.430 C 267.475 276.827,267.600 279.692,267.600 287.872 L 267.600 298.785 266.700 299.002 C 266.205 299.122,251.040 299.171,233.000 299.110 L 200.200 299.000 200.200 287.500 C 200.200 280.034,200.060 276.034,199.800 276.098 C 199.580 276.152,180.455 276.243,157.300 276.300 M25.301 282.600 C 25.305 283.480,25.387 283.793,25.483 283.295 C 25.579 282.798,25.575 282.078,25.475 281.695 C 25.375 281.313,25.296 281.720,25.301 282.600 M157.700 317.900 L 115.200 318.004 115.200 329.343 L 115.200 340.682 191.179 340.978 C 232.967 341.140,267.347 341.156,267.579 341.013 C 268.346 340.539,268.142 318.140,267.367 317.843 C 267.019 317.709,251.764 317.644,233.467 317.698 C 215.170 317.752,181.075 317.843,157.700 317.900 M267.400 329.400 L 267.400 340.600 233.700 340.702 L 200.000 340.805 200.000 329.669 C 200.000 323.544,200.121 318.412,200.269 318.264 C 200.417 318.116,215.582 318.041,233.969 318.098 L 267.400 318.200 267.400 329.400 " stroke="none" fill="#245c74" fill-rule="evenodd"></path></g></svg>